<?xml version="1.0" encoding="UTF-8"?>
<svg version="1.1" xmlns="http://www.w3.org/2000/svg" width="512" height="512">
<path d="M0 0 C2.7195571 1.6571961 4.80169731 3.77462301 7 6.0625 C8.22327375 7.26762237 9.4472266 8.47205583 10.671875 9.67578125 C11.24873047 10.25537598 11.82558594 10.8349707 12.41992188 11.43212891 C14.29338062 13.29111408 16.2449822 15.0343242 18.25 16.75 C21.20061765 19.29711438 24.10698786 21.88752237 27 24.5 C29.98062721 27.18983431 32.97245233 29.86310364 36 32.5 C36.64195312 33.06460938 37.28390625 33.62921875 37.9453125 34.2109375 C39.40539284 35.48226221 40.88111682 36.735718 42.3671875 37.9765625 C59.23241728 52.42496807 71.35561302 73.73857902 74 96 C74.16104422 99.64689616 74.18506824 103.28743339 74.1875 106.9375 C74.19974609 107.90107422 74.21199219 108.86464844 74.22460938 109.85742188 C74.23339775 114.14321844 74.21674792 117.85467722 72.75 121.91015625 C72.5025 122.92980469 72.255 123.94945313 72 125 C73.39876019 127.48518192 73.39876019 127.48518192 75.8125 129.5 C85.04623585 138.87601221 91.04232794 150.50617252 95 163 C95.31839844 163.96550781 95.63679688 164.93101562 95.96484375 165.92578125 C99.13286691 177.18175295 101.05155269 193.46290957 95.5 204.1875 C94.80390625 205.22970703 94.80390625 205.22970703 94.09375 206.29296875 C92.73025449 208.08310003 92.73025449 208.08310003 93 211 C94.9292893 213.10307472 94.9292893 213.10307472 97.4375 215.3125 C109.15349259 226.69659478 120.49724301 245.25797572 121.10546875 261.8828125 C121.05326172 262.93082031 121.05326172 262.93082031 121 264 C121.85722656 263.95359375 122.71445312 263.9071875 123.59765625 263.859375 C130.6930306 263.63539475 135.3404239 263.54458903 141 268 C146.00483423 273.39995273 146.35018872 277.84921748 146.28125 284.984375 C145.76430753 290.52714707 143.52534949 293.58626145 139.4375 297.375 C135.47639849 300.01573434 132.46686867 300.11254697 127.8125 300.0625 C126.72582031 300.05347656 125.63914062 300.04445313 124.51953125 300.03515625 C123.68808594 300.02355469 122.85664063 300.01195312 122 300 C122.00888245 300.56137665 122.01776489 301.1227533 122.0269165 301.70114136 C122.11666254 307.64033631 122.17625043 313.57933338 122.21972656 319.51904297 C122.23961886 321.7242009 122.26674256 323.9293077 122.30175781 326.13427734 C122.76606167 356.16381186 115.9926423 382.19049158 94.59375 404.34765625 C93.7378125 405.22292969 92.881875 406.09820312 92 407 C91.3709375 407.67933594 90.741875 408.35867188 90.09375 409.05859375 C83.51403428 416.0262644 75.55301445 420.84266048 67.1875 425.375 C66.55328125 425.72103271 65.9190625 426.06706543 65.265625 426.42358398 C61.8355746 428.23333442 58.80246939 429.33492313 55 430 C55.41886475 431.13542236 55.83772949 432.27084473 56.26928711 433.44067383 C57.82216581 437.65046159 59.37443249 441.86047479 60.92651367 446.07055664 C61.59854692 447.89320947 62.27074647 449.71580099 62.94311523 451.53833008 C63.90912836 454.15690292 64.8745446 456.77569514 65.83984375 459.39453125 C66.14091537 460.21025101 66.441987 461.02597076 66.75218201 461.8664093 C67.032397 462.62697128 67.312612 463.38753326 67.60131836 464.17114258 C67.84780624 464.83954666 68.09429413 465.50795074 68.34825134 466.1966095 C68.92373014 467.78896106 69.46457873 469.3937362 70 471 C91.78 471.495 91.78 471.495 114 472 C114.66 470.35 115.32 468.7 116 467 C116.78585515 465.6480265 117.6129268 464.31928678 118.4765625 463.015625 C118.97470459 462.25709229 119.47284668 461.49855957 119.98608398 460.71704102 C120.52692627 459.90291748 121.06776855 459.08879395 121.625 458.25 C125.54723095 452.30425826 129.43187008 446.34119037 133.20703125 440.30078125 C133.91759839 439.16946594 134.62837234 438.03828049 135.33935547 436.90722656 C136.71464898 434.71482244 138.08245014 432.51769648 139.44189453 430.31542969 C146.99029707 418.33656764 146.99029707 418.33656764 154 416 C161.45399418 415.33524321 166.97491487 415.35566355 173 420 C177.0025678 424.31856 178.1847977 427.6801894 178.4375 433.5 C178.49808594 434.4590625 178.55867188 435.418125 178.62109375 436.40625 C177.02537748 445.63932525 170.23062336 453.94062037 165.125 461.625 C160.9202729 468.00303417 156.7330304 474.38916701 152.640625 480.83984375 C152.28245697 481.40364746 151.92428894 481.96745117 151.55526733 482.54833984 C149.82110459 485.2792955 148.09139009 488.01292304 146.36767578 490.75048828 C137.35684844 504.94398353 137.35684844 504.94398353 130 508 C126.62110764 508.37719816 126.62110764 508.37719816 122.84690952 508.38031673 C121.79625575 508.38730661 121.79625575 508.38730661 120.72437665 508.3944377 C118.37754756 508.40638764 116.03129742 508.39699259 113.6844635 508.38768005 C111.98485268 508.39185298 110.28524465 508.39733027 108.5856418 508.40399987 C103.91520836 508.4184786 99.24495102 508.41420217 94.57450783 508.40683305 C89.53760558 508.40210971 84.50074189 508.41460383 79.46385193 508.42485046 C69.59628598 508.44206001 59.72878366 508.44287403 49.8612066 508.43763756 C41.84223762 508.43359874 33.82328746 508.43503599 25.80431938 508.44038582 C24.09339714 508.44150845 24.09339714 508.44150845 22.3479108 508.44265376 C20.03087612 508.44418521 17.71384144 508.44572356 15.39680677 508.44726873 C-6.33927345 508.4610015 -28.07531768 508.45555056 -49.81139708 508.44408352 C-69.70382436 508.4341497 -89.59615864 508.44709303 -109.48857158 508.47101771 C-129.90699909 508.49539031 -150.32538325 508.50502115 -170.74382502 508.49836498 C-182.21009784 508.49486875 -193.67629912 508.49713149 -205.14256096 508.51461601 C-214.9032566 508.52931496 -224.66383033 508.53000363 -234.42452352 508.5125451 C-239.40563923 508.50401383 -244.38653693 508.5019374 -249.36764145 508.51719666 C-253.92673679 508.53099037 -258.48542625 508.52634934 -263.0444978 508.50695742 C-264.69449816 508.50318073 -266.34453063 508.50616722 -267.99450254 508.51656907 C-270.23718085 508.52970305 -272.47845082 508.51818965 -274.72106838 508.50057125 C-275.96671611 508.50046391 -277.21236384 508.50035658 -278.49575847 508.50024599 C-283.66983733 507.76162333 -287.41139714 505.6795534 -291.046875 501.8359375 C-295.54700876 495.33345065 -299.70892042 488.67126395 -303.79199219 481.90014648 C-306.75148302 477.00008105 -309.80134835 472.1847508 -313 467.4375 C-313.59905151 466.54804687 -313.59905151 466.54804687 -314.21020508 465.640625 C-314.81578247 464.74150391 -314.81578247 464.74150391 -315.43359375 463.82421875 C-318.35012152 459.4923004 -321.21329687 455.1264243 -324.0625 450.75 C-324.54009766 450.02224365 -325.01769531 449.2944873 -325.50976562 448.54467773 C-325.95126953 447.86477783 -326.39277344 447.18487793 -326.84765625 446.484375 C-327.4355896 445.58283691 -327.4355896 445.58283691 -328.03540039 444.66308594 C-330.97984575 439.5865074 -330.52838434 433.6654543 -330 428 C-328.400795 423.09808903 -325.25262792 419.83508528 -321 417 C-314.89380519 414.96460173 -308.28698303 415.19955594 -302.25 417.3125 C-293.93175291 423.10520701 -288.9026149 434.2204486 -283.66015625 442.71875 C-280.87360463 447.22563994 -278.00781015 451.67923218 -275.125 456.125 C-274.44667114 457.17228271 -274.44667114 457.17228271 -273.75463867 458.24072266 C-273.32256104 458.9063623 -272.8904834 459.57200195 -272.4453125 460.2578125 C-271.82897949 461.20769043 -271.82897949 461.20769043 -271.20019531 462.17675781 C-270.40999841 463.37716271 -269.60749023 464.56956753 -268.79199219 465.75292969 C-266 469.8048727 -266 469.8048727 -266 472 C-262.04 471.67 -258.08 471.34 -254 471 C-251.59472079 464.38063513 -249.19203344 457.76033751 -246.79174805 451.13916016 C-245.97475294 448.8866227 -245.15704891 446.63434223 -244.33862305 444.38232422 C-243.16268637 441.14618073 -241.98929829 437.90912302 -240.81640625 434.671875 C-240.44971329 433.66445251 -240.08302032 432.65703003 -239.70521545 431.61907959 C-239.3649382 430.67840637 -239.02466095 429.73773315 -238.67407227 428.76855469 C-238.3742897 427.94248718 -238.07450714 427.11641968 -237.76564026 426.26531982 C-237.06444421 424.19067276 -236.49527808 422.13204111 -236 420 C-237.06734375 419.61134766 -237.06734375 419.61134766 -238.15625 419.21484375 C-248.65165835 414.73122837 -257.55885095 406.51967591 -266 399 C-266.66773438 398.40574219 -267.33546875 397.81148438 -268.0234375 397.19921875 C-285.24608538 380.90643214 -297.10595861 357.72399594 -303 335 C-303.27078369 333.95650391 -303.54156738 332.91300781 -303.82055664 331.83789062 C-307.04160349 316.83669725 -306.34191611 301.49643629 -306.20599365 286.23760986 C-306.17488667 282.36874344 -306.16151498 278.49981573 -306.14648438 274.63085938 C-306.11464707 267.08707536 -306.06368519 259.54358971 -306 252 C-306.81984375 252.01957764 -307.6396875 252.03915527 -308.484375 252.05932617 C-310.10085938 252.08216675 -310.10085938 252.08216675 -311.75 252.10546875 C-312.81734375 252.12504639 -313.8846875 252.14462402 -314.984375 252.16479492 C-320.55587451 251.86032907 -323.59609643 249.51473806 -327.375 245.4375 C-330.93437157 240.09844265 -330.57838779 234.2016024 -330 228 C-328.400795 223.09808903 -325.25262792 219.83508528 -321 217 C-317.71480525 215.90493508 -315.26336585 215.90039392 -311.8125 215.9375 C-310.72582031 215.94652344 -309.63914062 215.95554688 -308.51953125 215.96484375 C-307.68808594 215.97644531 -306.85664063 215.98804688 -306 216 C-306.00444122 214.82680206 -306.00888245 213.65360413 -306.01345825 212.44485474 C-306.05393708 201.40838062 -306.08395199 190.37192149 -306.10362434 179.33539009 C-306.11407795 173.66089925 -306.12826583 167.98646816 -306.15087891 162.31201172 C-306.17255116 156.83962285 -306.18455674 151.36729159 -306.18975449 145.89486313 C-306.19346037 143.80319181 -306.20069663 141.71152377 -306.21146011 139.61987686 C-306.22590041 136.69850001 -306.22798108 133.77736361 -306.22705078 130.85595703 C-306.23424133 129.98417816 -306.24143188 129.11239929 -306.24884033 128.21420288 C-306.22810432 122.22810432 -306.22810432 122.22810432 -304 120 C-301.29443359 119.68115234 -301.29443359 119.68115234 -297.8984375 119.5859375 C-296.68671875 119.54726562 -295.475 119.50859375 -294.2265625 119.46875 C-292.95554687 119.4378125 -291.68453125 119.406875 -290.375 119.375 C-289.09625 119.33632812 -287.8175 119.29765625 -286.5 119.2578125 C-283.33347983 119.16328951 -280.1669696 119.07773643 -277 119 C-277.8146875 118.24976562 -278.629375 117.49953125 -279.46875 116.7265625 C-282 114 -282 114 -282.5 110.375 C-282 107 -282 107 -280.9375 105.0625 C-277.81995974 103.35288115 -275.50115445 103.61706123 -272 104 C-269.6793956 105.80719635 -267.97671859 107.34484934 -266.0625 109.5 C-265.56943359 110.02464844 -265.07636719 110.54929687 -264.56835938 111.08984375 C-263.36229501 112.37787365 -262.17876741 113.68694263 -261 115 C-257.32637797 113.49074671 -255.31202467 111.31185709 -252.6875 108.375 C-248.51534527 104.09974425 -248.51534527 104.09974425 -244.125 103.25 C-241 104 -241 104 -239.0625 105.0625 C-237.33361855 108.21516617 -237.51417021 110.47773401 -238 114 C-240.53125 116.7265625 -240.53125 116.7265625 -243 119 C-242.19256348 119.01981934 -241.38512695 119.03963867 -240.55322266 119.06005859 C-236.91014125 119.15505899 -233.26765314 119.26483912 -229.625 119.375 C-228.35398437 119.4059375 -227.08296875 119.436875 -225.7734375 119.46875 C-224.56171875 119.50742188 -223.35 119.54609375 -222.1015625 119.5859375 C-220.42054443 119.63306885 -220.42054443 119.63306885 -218.70556641 119.68115234 C-216 120 -216 120 -214 122 C-213.7215271 124.63223267 -213.7215271 124.63223267 -213.68115234 128.01025391 C-213.66128265 129.27141022 -213.64141296 130.53256653 -213.62094116 131.8319397 C-213.60906386 133.21347885 -213.59740105 134.59501986 -213.5859375 135.9765625 C-213.5672329 137.38619124 -213.54766002 138.79580871 -213.5272522 140.20541382 C-213.47584988 143.91745362 -213.43626781 147.62952977 -213.39910889 151.34173584 C-213.35911978 155.12895759 -213.30800429 158.91602715 -213.2578125 162.703125 C-213.16095743 170.13531238 -213.07658363 177.56757317 -213 185 C-212.26612061 184.39164307 -211.53224121 183.78328613 -210.77612305 183.15649414 C-209.80199463 182.35332764 -208.82786621 181.55016113 -207.82421875 180.72265625 C-206.86346436 179.92867432 -205.90270996 179.13469238 -204.9128418 178.31665039 C-201.10100721 175.28501026 -197.11873299 172.59327633 -193 170 C-193.33 169.34 -193.66 168.68 -194 168 C-194.68911981 160.55524661 -194.63396217 155.0116266 -190 149 C-187.290392 146.488656 -185.50142752 145.16714251 -182 144 C-182.65397133 138.42567298 -183.94563544 133.23310334 -185.50390625 127.84765625 C-186.00228973 126.08407946 -186.50032599 124.32040453 -186.99804688 122.55664062 C-187.77952447 119.8061243 -188.56419206 117.05662233 -189.35522461 114.30883789 C-190.12238312 111.63681211 -190.87643777 108.96135019 -191.62890625 106.28515625 C-191.86638077 105.47345474 -192.10385529 104.66175323 -192.348526 103.82545471 C-193.77375713 98.71807058 -194.34223075 94.30750172 -194 89 C-190.6212418 83.77268108 -183.77262556 80.84619639 -177.91015625 79.53125 C-169.37711759 78.21155334 -161.82274967 79.82916672 -154.6953125 84.69140625 C-152.60826677 86.30237473 -150.75146851 88.02959793 -149 90 C-146.25068417 88.83682792 -144.47572254 87.5456262 -142.1875 85.5625 C-136.58145199 80.81137431 -130.24482873 79.01183796 -123 79 C-116.01311332 79.59670616 -110.53554653 81.69173399 -105 86 C-104.43152344 86.38285156 -103.86304688 86.76570313 -103.27734375 87.16015625 C-101.19172311 90.16421534 -101.6908301 93.49170123 -102 97 C-102.68295361 100.40834911 -103.6387792 103.71520136 -104.625 107.046875 C-104.89135254 107.98049866 -105.15770508 108.91412231 -105.43212891 109.8760376 C-106.27819905 112.83697332 -107.1381084 115.79363468 -108 118.75 C-108.86002505 121.72112679 -109.71696386 124.6930578 -110.56787109 127.66680908 C-111.09631305 129.51152066 -111.63028494 131.35465924 -112.17041016 133.19598389 C-112.41065918 134.03075256 -112.6509082 134.86552124 -112.8984375 135.72558594 C-113.11161621 136.45646423 -113.32479492 137.18734253 -113.54443359 137.94036865 C-114.14397891 140.29936479 -114.14397891 140.29936479 -114 144 C-112.9275 144.556875 -111.855 145.11375 -110.75 145.6875 C-105.90830282 148.45558142 -103.40194369 152.04926889 -101 157 C-100.29037109 155.47632813 -100.29037109 155.47632813 -99.56640625 153.921875 C-94.41533557 143.1083172 -88.71899975 133.40480156 -80 125 C-80.32226562 124.05898437 -80.64453125 123.11796875 -80.9765625 122.1484375 C-86.45872104 102.81048709 -80.24417039 80.17999065 -71 63 C-64.35047736 51.48986412 -55.18436849 41.24391707 -45.02734375 32.70703125 C-42.63400282 30.69182897 -40.31904559 28.60020111 -38 26.5 C-34.38459795 23.2373201 -30.7391044 20.0142505 -27.06640625 16.81640625 C-24.67103608 14.71083512 -22.30394858 12.57551312 -19.9375 10.4375 C-19.09316406 9.6846875 -18.24882812 8.931875 -17.37890625 8.15625 C-15.9198618 6.83376636 -14.48370741 5.48476323 -13.08984375 4.09375 C-12.52394531 3.5471875 -11.95804687 3.000625 -11.375 2.4375 C-10.90835937 1.96183594 -10.44171875 1.48617188 -9.9609375 0.99609375 C-6.66930578 -0.67595025 -3.53107839 -0.77542514 0 0 Z M-201 434 C-202.8554647 439.08886246 -204.70677139 444.17921046 -206.55419922 449.27099609 C-207.18358423 451.00383567 -207.81411416 452.73625984 -208.44580078 454.46826172 C-209.3522821 456.95432587 -210.25466866 459.44184284 -211.15625 461.9296875 C-211.5827887 463.09538773 -211.5827887 463.09538773 -212.01794434 464.28463745 C-213.47817136 468.04542885 -213.47817136 468.04542885 -214 472 C-179.68 472 -145.36 472 -110 472 C-110 460.12 -110 448.24 -110 436 C-115.47980469 435.93941406 -120.95960938 435.87882812 -126.60546875 435.81640625 C-130.10091827 435.7758565 -133.5963613 435.73505519 -137.09179688 435.69335938 C-142.62587087 435.62736896 -148.15994444 435.56225206 -153.6940918 435.50268555 C-158.16157675 435.45454128 -162.62899529 435.40218909 -167.09639931 435.34705925 C-168.79099154 435.32685978 -170.48560182 435.30811351 -172.18022728 435.29092598 C-181.83212431 435.19197766 -191.38394295 434.90782474 -201 434 Z M-74 436 C-74 447.88 -74 459.76 -74 472 C-39.68 472 -5.36 472 30 472 C29.14343149 467.71715746 28.02843908 464.06459114 26.53125 459.984375 C26.29088013 459.32794006 26.05051025 458.67150513 25.80285645 457.99517822 C25.29694149 456.61624997 24.78921871 455.23798378 24.27978516 453.86035156 C23.49800915 451.74461211 22.72322553 449.62640485 21.94921875 447.5078125 C21.4561412 446.16651512 20.96266569 444.82536397 20.46875 443.484375 C20.01951172 442.26459961 19.57027344 441.04482422 19.10742188 439.78808594 C18.26654137 437.13449451 18.26654137 437.13449451 17 436 C14.16959328 435.90479094 11.36365007 435.87446369 8.53295898 435.88647461 C7.64523804 435.88632858 6.75751709 435.88618256 5.84289551 435.8860321 C2.89393716 435.88673157 -0.05495887 435.89452552 -3.00390625 435.90234375 C-5.04271917 435.90420781 -7.08153254 435.90563177 -9.12034607 435.90663147 C-14.49784574 435.91045759 -19.87531858 435.92028868 -25.25280762 435.93133545 C-30.73559201 435.94154755 -36.21838072 435.94612866 -41.70117188 435.95117188 C-52.46746162 435.96191086 -63.23372439 435.97950842 -74 436 Z " fill="#010100" transform="translate(332,2)"/>
<path d="M0 0 C13.6479435 -0.06962968 27.29584446 -0.1228772 40.94392967 -0.15543652 C47.28185696 -0.1710664 53.61966237 -0.19225596 59.95751953 -0.22631836 C66.07833676 -0.25900698 72.19903703 -0.27687315 78.31993484 -0.28463173 C80.65061915 -0.29015817 82.98129734 -0.30094985 85.31193161 -0.31719017 C88.58618561 -0.33909042 91.85996143 -0.34196162 95.13427734 -0.34057617 C96.08950287 -0.351362 97.04472839 -0.36214783 98.02890015 -0.3732605 C111.50543172 -0.31189319 122.74174946 4.98308803 132.45585632 14.21109009 C140.47596992 23.00280044 145.33533948 35.4361195 150.54526329 46.06245804 C151.73081567 48.47845273 152.923259 50.89093543 154.11763 53.30258179 C157.50665041 60.14707966 160.88831343 66.99514295 164.25415039 73.85107422 C166.32791145 78.07392627 168.41336145 82.29082767 170.50638771 86.50416183 C171.29663682 88.10071809 172.08244517 89.6994807 172.86362267 91.30049515 C173.95235904 93.53099917 175.05581496 95.75362779 176.1628418 97.97509766 C176.47827438 98.63067657 176.79370697 99.28625549 177.11869812 99.96170044 C179.83866604 105.35411187 183.42395647 108.72274827 189 111 C191.92462185 111.3034179 191.92462185 111.3034179 195.19769287 111.26069641 C196.47058167 111.26778122 197.74347046 111.27486603 199.05493164 111.28216553 C200.46337926 111.27987172 201.87182654 111.27736203 203.28027344 111.2746582 C204.76540381 111.27900608 206.25053194 111.28418948 207.73565674 111.29014587 C211.7689115 111.30354241 215.80207259 111.30411358 219.83534527 111.30158257 C223.20490467 111.30051281 226.57444513 111.30539662 229.94400048 111.310188 C237.89725171 111.3212865 245.85045571 111.32171936 253.80371094 111.31567383 C261.99934348 111.30963959 270.19480411 111.32193023 278.39040732 111.3432439 C285.43260406 111.36088238 292.4747462 111.36685752 299.5169642 111.36360615 C303.72023709 111.36179595 307.92338748 111.3644027 312.12664032 111.37832069 C316.08294802 111.3909302 320.03898889 111.38892558 323.99529266 111.37590981 C325.44323824 111.37355085 326.89120276 111.37625422 328.33912659 111.38453293 C339.06505155 111.5057396 339.06505155 111.5057396 349 108 C352.09483646 104.87111673 353.97384369 101.41721926 355.91674805 97.49121094 C356.45377853 96.41369568 356.99080902 95.33618042 357.54411316 94.22601318 C358.110923 93.07377258 358.67773285 91.92153198 359.26171875 90.734375 C359.85836741 89.53293256 360.45561099 88.3317854 361.05342102 87.13092041 C362.61833581 83.98404691 364.17634375 80.83380761 365.73254395 77.68261719 C368.23200263 72.62427257 370.74181803 67.57106082 373.25196266 62.518013 C374.12773307 60.75248982 375.00024715 58.98535258 375.87272644 57.21820068 C376.40030045 56.15329407 376.92787445 55.08838745 377.47143555 53.99121094 C377.93680222 53.04920837 378.40216888 52.10720581 378.88163757 51.13665771 C380 49 380 49 381 48 C382.70772358 47.91286169 384.41898649 47.89299993 386.12890625 47.90234375 C387.68061523 47.90717773 387.68061523 47.90717773 389.26367188 47.91210938 C390.35228516 47.92048828 391.44089844 47.92886719 392.5625 47.9375 C394.2012207 47.94426758 394.2012207 47.94426758 395.87304688 47.95117188 C398.58208495 47.96300174 401.29101599 47.97948457 404 48 C404.12593359 53.88167978 404.21540905 59.76253353 404.2746582 65.64526367 C404.29942013 67.635963 404.33323964 69.62657538 404.37719727 71.61694336 C404.99977231 100.58499406 397.44580173 125.09334208 377.4921875 146.55859375 C365.40241196 158.4020259 350.27826866 165.80585425 334 170 C332.80570751 170.34103634 331.61141502 170.68207268 330.38093185 171.03344345 C325.83336096 172.16191266 321.50975693 172.27946173 316.84259033 172.25396729 C315.95400731 172.25708727 315.06542428 172.26020725 314.1499145 172.26342177 C311.1900436 172.27136112 308.23038003 172.26509392 305.27050781 172.25878906 C303.14104086 172.2615008 301.01157484 172.26506277 298.8821106 172.26940918 C293.10921199 172.27851582 287.33638498 172.27499541 281.56348515 172.26865101 C275.51259738 172.26357948 269.46171565 172.26828591 263.41082764 172.27142334 C253.24587914 172.27506073 243.08095971 172.27027098 232.91601562 172.26074219 C221.18268665 172.2498698 209.44942725 172.25337531 197.71609998 172.264395 C187.62835511 172.27348831 177.54063112 172.2747428 167.45288348 172.26951766 C161.43422733 172.26640769 155.4156038 172.26596158 149.39694977 172.27259064 C143.73342023 172.2783928 138.06997979 172.27431484 132.40645981 172.26280212 C130.3345212 172.26017034 128.26257503 172.26089512 126.1906395 172.26532745 C88.8108641 172.33788206 58.24799702 159.12532588 31.68359375 132.6953125 C8.78268357 108.40043387 -0.23954313 76.17171619 -0.09765625 43.45703125 C-0.0962413 42.20742111 -0.09482635 40.95781097 -0.09336853 39.67033386 C-0.08875602 36.38741819 -0.07981038 33.10455398 -0.06866455 29.82165527 C-0.05833788 26.45597963 -0.05384708 23.09029638 -0.04882812 19.72460938 C-0.0378609 13.14971988 -0.02116975 6.57486414 0 0 Z " fill="#EA4A6D" transform="translate(38,254)"/>
<path d="M0 0 C1.47821843 -0.00031115 2.95643842 -0.0033084 4.43464661 -0.00881958 C7.50690369 -0.01156306 10.57726527 0.01310631 13.64916992 0.05908203 C17.55646213 0.11600663 21.46063303 0.110308 25.36815929 0.08490181 C28.41158534 0.07089535 31.45430832 0.08666643 34.49764442 0.11141586 C35.93709924 0.12034511 37.37663083 0.12120729 38.81609154 0.11328506 C55.61553046 0.06405334 66.02553013 7.99418642 77.76953125 19.2421875 C93.10830037 34.64958646 99.82960964 54.72118549 100.43383789 75.9934082 C101.1632874 100.45594432 106.36646451 123.11069043 116.19580078 145.61352539 C117.14453125 147.9921875 117.14453125 147.9921875 117.14453125 149.9921875 C103.94453125 149.9921875 90.74453125 149.9921875 77.14453125 149.9921875 C71.45756125 139.33446364 65.9348637 128.62593156 60.61328125 117.78125 C59.46097794 115.44138634 58.30863368 113.10154283 57.15625 110.76171875 C55.39218177 107.17804044 53.63112256 103.59306299 51.88525391 100.00048828 C38.65107235 72.79253255 24.57964136 53.19551323 -4.640625 42.21875 C-14.55513082 39.07773724 -24.78389473 38.6361536 -35.10546875 38.3671875 C-36.95591797 38.30917969 -36.95591797 38.30917969 -38.84375 38.25 C-41.84751812 38.1568599 -44.85129753 38.07104219 -47.85546875 37.9921875 C-48.47105868 28.10257785 -48.47105868 28.10257785 -46.203125 24.01171875 C-45.07197266 22.91923828 -45.07197266 22.91923828 -43.91796875 21.8046875 C-43.0878125 20.98871094 -42.25765625 20.17273438 -41.40234375 19.33203125 C-40.14164062 18.17380859 -40.14164062 18.17380859 -38.85546875 16.9921875 C-38.159375 16.29222656 -37.46328125 15.59226563 -36.74609375 14.87109375 C-25.68075632 4.20094694 -15.1869178 -0.26560631 0 0 Z " fill="#BA7456" transform="translate(165.85546875,180.0078125)"/>
<path d="M0 0 C3.00234705 1.40967988 5.61142589 3.08094201 8.3125 5 C15.49406931 9.78771287 22.4805098 10.93749548 31 10 C37.98606485 8.21026577 42.83568648 4.93977815 48 0 C51.00234705 1.40967988 53.61142589 3.08094201 56.3125 5 C63.20365153 9.60158327 69.81821407 10.83691551 78 10 C81.10953977 9.23616693 84.03450226 8.19940354 87 7 C87.91136719 6.63648438 88.82273437 6.27296875 89.76171875 5.8984375 C90.50035156 5.60195312 91.23898437 5.30546875 92 5 C106.28659133 19.64294621 114.69819688 37.55891808 115.375 58.125 C115.25433652 65.52569367 113.87185959 70.20177784 108.5625 75.375 C103.16040291 78.8007201 98.36691617 80.02931811 92 79 C86.46323295 76.72875577 82.65343175 73.40891856 80 68 C79.40997356 65.39505334 78.94678254 62.81883684 78.58984375 60.171875 C78.15459855 57.62814398 78.15459855 57.62814398 75 56 C72.45792029 55.66656449 72.45792029 55.66656449 70 56 C67.6068876 58.3931124 67.6121653 59.46909084 67.125 62.75 C65.97815587 68.87238329 63.98258889 72.50294309 58.9375 76.3125 C53.97084852 79.16568277 49.62587963 79.80109613 44 79 C38.46323647 76.74644011 34.64812823 73.39810754 32 68 C31.40997356 65.39505334 30.94678254 62.81883684 30.58984375 60.171875 C30.15459855 57.62814398 30.15459855 57.62814398 27 56 C24.45792029 55.66656449 24.45792029 55.66656449 22 56 C19.6068876 58.3931124 19.6121653 59.46909084 19.125 62.75 C17.97815587 68.87238329 15.98258889 72.50294309 10.9375 76.3125 C5.97084852 79.16568277 1.62587963 79.80109613 -4 79 C-9.53676353 76.74644011 -13.35187177 73.39810754 -16 68 C-16.59002644 65.39505334 -17.05321746 62.81883684 -17.41015625 60.171875 C-17.84540145 57.62814398 -17.84540145 57.62814398 -21 56 C-23.54207971 55.66656449 -23.54207971 55.66656449 -26 56 C-28.3931124 58.3931124 -28.3878347 59.46909084 -28.875 62.75 C-29.91893816 68.48337466 -31.85638754 71.85638754 -36 76 C-37.90625 75.92578125 -37.90625 75.92578125 -40 75 C-41.71875 72.91796875 -41.71875 72.91796875 -43.5 70.1875 C-46.74120394 65.52674621 -50.21641541 61.49233762 -54.25 57.5 C-54.75724609 56.99621826 -55.26449219 56.49243652 -55.78710938 55.97338867 C-58.38974118 53.43479124 -61.02714526 51.09515477 -64 49 C-63.46000613 43.35518038 -62.406122 38.47402659 -60.375 33.1875 C-59.97740479 32.14710571 -59.97740479 32.14710571 -59.57177734 31.08569336 C-55.54484223 20.94321743 -49.48530738 12.87415452 -42 5 C-39.10495217 6.14212865 -36.27095937 7.33254485 -33.4375 8.625 C-25.36572553 11.58921097 -17.01589031 10.7680412 -9.26953125 7.2890625 C-5.71888014 5.27234156 -2.94741305 2.81926466 0 0 Z " fill="#5EBC7C" transform="translate(303,131)"/>
<path d="M0 0 C3.84534619 1.81367802 7.20137355 4.14008594 10.68359375 6.5625 C17.24928596 10.63699365 23.43330508 10.70469801 31 10 C38.00729963 8.29421199 42.84328063 4.93251418 48 0 C51.84534619 1.81367802 55.20137355 4.14008594 58.68359375 6.5625 C65.24928596 10.63699365 71.43330508 10.70469801 79 10 C86.00729963 8.29421199 90.84328063 4.93251418 96 0 C99.00234705 1.40967988 101.61142589 3.08094201 104.3125 5 C111.51402216 9.80101477 118.46724709 10.79701538 127 10 C129.34618409 9.38007331 131.68335253 8.72251877 134 8 C147.91294531 20.95855119 159.37435624 35.36200627 161 55 C159.92105469 55.00410889 158.84210938 55.00821777 157.73046875 55.01245117 C153.69695377 55.03435392 149.66439893 55.08875705 145.63134766 55.15258789 C143.89153298 55.17567135 142.15158047 55.19014081 140.41162109 55.19555664 C137.89855011 55.20491765 135.38761798 55.24605867 132.875 55.29296875 C132.10696045 55.2890361 131.3389209 55.28510345 130.54760742 55.28105164 C124.62714792 55.43817388 120.56863114 57.22477989 116 61 C114.17215055 63.11193964 114.17215055 63.11193964 113.13671875 65.43359375 C112.72486328 66.24763672 112.31300781 67.06167969 111.88867188 67.90039062 C111.49228516 68.73763672 111.09589844 69.57488281 110.6875 70.4375 C110.27177734 71.27087891 109.85605469 72.10425781 109.42773438 72.96289062 C107.68801524 76.46168984 106.0103628 79.97718167 104.39453125 83.53515625 C103 86 103 86 100 87 C94.07100279 87.60294887 90.65498721 86.91988316 85.7578125 83.47265625 C80.62268545 79.17056092 79.44845914 74.53913521 78.58984375 68.171875 C78.15459855 65.62814398 78.15459855 65.62814398 75 64 C72.45792029 63.66656449 72.45792029 63.66656449 70 64 C67.6068876 66.3931124 67.6121653 67.46909084 67.125 70.75 C65.97815587 76.87238329 63.98258889 80.50294309 58.9375 84.3125 C53.97084852 87.16568277 49.62587963 87.80109613 44 87 C38.46323647 84.74644011 34.64812823 81.39810754 32 76 C31.40997356 73.39505334 30.94678254 70.81883684 30.58984375 68.171875 C30.15459855 65.62814398 30.15459855 65.62814398 27 64 C24.45792029 63.66656449 24.45792029 63.66656449 22 64 C19.60675264 66.39324736 19.64452915 67.40793919 19.1875 70.6875 C18.01328093 77.03562186 15.56927556 81.10362994 10.375 84.9375 C8 86 8 86 5 86 C0.77043897 73.04440285 -0.86512214 60.41114451 -1.28588867 46.8269043 C-1.72799195 32.80193498 -4.1935864 20.21763741 -9 7 C-8.43410156 6.57847656 -7.86820312 6.15695313 -7.28515625 5.72265625 C-6.55167969 5.17480469 -5.81820313 4.62695312 -5.0625 4.0625 C-4.33160156 3.51722656 -3.60070312 2.97195312 -2.84765625 2.41015625 C-1.0865547 1.13092062 -1.0865547 1.13092062 0 0 Z " fill="#5EBD7C" transform="translate(279,211)"/>
<path d="M0 0 C4.14689982 1.66077299 7.06716167 4.65980945 10.25 7.6875 C11.41725351 8.78201327 12.58521929 9.87576745 13.75390625 10.96875 C14.31480957 11.4946875 14.87571289 12.020625 15.45361328 12.5625 C17.9318284 14.86621497 20.48461939 17.07932331 23.04296875 19.29296875 C26.25094726 22.09114562 29.39883289 24.95582427 32.5546875 27.8125 C34.7161113 29.74604206 36.91236915 31.62577151 39.125 33.5 C55.4077759 47.85755791 65.74281217 67.71925245 67.23828125 89.46484375 C67.38836097 96.48699478 67.44256924 102.28812526 63 108 C58.71710597 112.17307623 54.62099797 114.06093152 48.6875 114.4375 C43.44487291 114.30643432 39.93715257 112.36577442 36 109 C32.20011332 104.70012824 31.33598017 100.70502149 30.58984375 95.171875 C30.15459855 92.62814398 30.15459855 92.62814398 27 91 C24.45792029 90.66656449 24.45792029 90.66656449 22 91 C19.6068876 93.3931124 19.6121653 94.46909084 19.125 97.75 C17.97815587 103.87238329 15.98258889 107.50294309 10.9375 111.3125 C5.97084852 114.16568277 1.62587963 114.80109613 -4 114 C-9.53676353 111.74644011 -13.35187177 108.39810754 -16 103 C-16.59002644 100.39505334 -17.05321746 97.81883684 -17.41015625 95.171875 C-17.84540145 92.62814398 -17.84540145 92.62814398 -21 91 C-23.54207971 90.66656449 -23.54207971 90.66656449 -26 91 C-28.3931124 93.3931124 -28.3878347 94.46909084 -28.875 97.75 C-30.02184413 103.87238329 -32.01741111 107.50294309 -37.0625 111.3125 C-42.02915148 114.16568277 -46.37412037 114.80109613 -52 114 C-57.62306727 111.71131297 -61.09124297 108.35211293 -64 103 C-68.91145175 88.26564475 -62.40766472 70.38071161 -56 57 C-47.25657214 41.59754797 -34.20205899 30.19805116 -20.9921875 18.7421875 C-18.63979365 16.68499601 -16.31965034 14.59403085 -14 12.5 C-10.19677998 9.06710898 -6.36287677 5.67356693 -2.49609375 2.3125 C-1.64347059 1.56450684 -0.80201622 0.80201622 0 0 Z " fill="#5EBC7C" transform="translate(327,16)"/>
<path d="M0 0 C1.57873398 -0.01268921 1.57873398 -0.01268921 3.18936157 -0.02563477 C4.92150658 -0.01652573 4.92150658 -0.01652573 6.68864441 -0.00723267 C8.51362457 -0.0151181 8.51362457 -0.0151181 10.37547302 -0.02316284 C13.71723344 -0.03412189 17.05843814 -0.03152438 20.4001677 -0.02202559 C23.90768565 -0.01442222 27.41518007 -0.02147822 30.92269897 -0.02618408 C36.82502995 -0.0316476 42.72724848 -0.02444275 48.62956238 -0.01016235 C55.42146032 0.00608228 62.21308691 0.00093821 69.004978 -0.01564157 C74.85321528 -0.02933939 80.70137167 -0.03113346 86.54961985 -0.02332556 C90.03433353 -0.01868352 93.51892067 -0.01792551 97.00362587 -0.02793503 C100.90654796 -0.0383606 104.80917737 -0.02383346 108.71208191 -0.00723267 C109.8445787 -0.01330536 110.9770755 -0.01937805 112.14389038 -0.02563477 C133.73392419 0.1429292 151.89268466 7.93820923 167.03703308 23.31845093 C170.6611453 27.57233065 173.53876396 31.86380379 176.21672058 36.75985718 C176.84272156 37.89590393 176.84272156 37.89590393 177.48136902 39.05490112 C184.67603422 52.2922911 191.22765782 65.88127769 197.91203308 79.38095093 C200.3686447 84.34159103 202.82801103 89.30083014 205.29402161 94.25680542 C206.27115198 96.22397887 207.24342838 98.1935005 208.21549988 100.16317749 C208.80942264 101.35828085 209.40356709 102.55327409 209.99797058 103.74813843 C210.77213318 105.31217407 210.77213318 105.31217407 211.56193542 106.9078064 C212.80584481 109.46265239 212.80584481 109.46265239 214.91203308 111.38095093 C217.33846739 111.70275549 217.33846739 111.70275549 220.20605469 111.67529297 C221.89058495 111.69675888 221.89058495 111.69675888 223.60914612 111.71865845 C224.8470993 111.72403625 226.08505249 111.72941406 227.36051941 111.73495483 C228.65975845 111.74809723 229.9589975 111.76123962 231.29760742 111.77478027 C234.86793404 111.80960915 238.43820709 111.83070587 242.00866151 111.84719133 C244.2389451 111.85748979 246.46921203 111.8696413 248.69948387 111.88221359 C255.67641484 111.92032027 262.65330342 111.94878183 269.63031846 111.96543753 C277.68642595 111.98498635 285.74143489 112.03763021 293.7971552 112.11843932 C300.02228476 112.17874393 306.24709928 112.20837332 312.47251529 112.21499956 C316.19159221 112.21970308 319.90949588 112.23764707 323.62825966 112.28792191 C327.77799818 112.34311632 331.92528113 112.33482927 336.07536316 112.32089233 C337.30724365 112.34651245 338.53912415 112.37213257 339.80833435 112.39852905 C345.75258243 112.50403484 345.75258243 112.50403484 350.71335316 109.72743893 C352.03900154 107.66146781 352.99928867 105.65616806 353.91203308 103.38095093 C354.41477249 102.44817825 354.9175119 101.51540558 355.43548584 100.55436707 C355.85644028 99.69896835 356.27739471 98.84356964 356.71110535 97.96224976 C357.19833572 96.97795486 357.6855661 95.99365997 358.18756104 94.97953796 C358.95029579 93.42446785 358.95029579 93.42446785 359.72843933 91.83798218 C360.8331666 89.60811966 361.93798708 87.37830332 363.04289246 85.14852905 C364.76519768 81.66033776 366.48549993 78.17117505 368.20378113 74.68099976 C369.87351594 71.29325266 371.55060129 67.90922155 373.22843933 64.52548218 C373.7389534 63.48269608 374.24946747 62.43990997 374.77545166 61.36552429 C376.11009787 58.67780907 377.49910771 56.02804995 378.91203308 53.38095093 C379.68438293 51.81703613 379.68438293 51.81703613 380.47233582 50.2215271 C384.88542589 46.89216794 390.28424375 47.71497198 395.63078308 47.78720093 C397.5058252 47.7871405 397.5058252 47.7871405 399.41874695 47.78707886 C402.06239731 47.7924419 404.70383929 47.80739236 407.34709167 47.83895874 C410.73007733 47.87863768 414.11195061 47.88300347 417.49512482 47.87549591 C420.72793785 47.87168324 423.9605403 47.89251131 427.19328308 47.91220093 C429.01370117 47.91250305 429.01370117 47.91250305 430.87089539 47.91281128 C431.99886536 47.92872314 433.12683533 47.94463501 434.28898621 47.96102905 C435.28063782 47.96944824 436.27228943 47.97786743 437.29399109 47.98654175 C440.28724515 48.43747679 441.68014312 49.38571897 443.91203308 51.38095093 C443.59953308 54.75595093 443.59953308 54.75595093 442.91203308 58.38095093 C439.68728523 60.53078283 438.84738393 60.62810846 435.1368866 60.62045288 C434.16900711 60.62418411 433.20112762 60.62791534 432.20391846 60.63175964 C430.63824379 60.62555855 430.63824379 60.62555855 429.04093933 60.61923218 C426.83585503 60.63464859 424.63077678 60.65095198 422.42570496 60.6680603 C418.94501927 60.68453779 415.46477617 60.69343114 411.98405457 60.68637085 C408.62750416 60.68375727 405.27230912 60.71182498 401.91593933 60.74423218 C400.87418045 60.73402542 399.83242157 60.72381866 398.75909424 60.71330261 C397.30254677 60.73308418 397.30254677 60.73308418 395.8165741 60.75326538 C394.53775108 60.75420952 394.53775108 60.75420952 393.23309326 60.75517273 C389.82796301 61.67322573 388.84032766 63.49232883 386.91203308 66.38095093 C385.86596039 68.24391668 384.87600199 70.13917087 383.93522644 72.0574646 C383.38463058 73.17179367 382.83403473 74.28612274 382.26675415 75.43421936 C381.9791818 76.02334295 381.69160946 76.61246655 381.3953228 77.21944237 C380.48869603 79.07590953 379.57408505 80.92824531 378.6572876 82.77970886 C376.38411968 87.37394495 374.1226927 91.97392567 371.86460876 96.57559204 C369.95096486 100.47523405 368.0311396 104.37169192 366.10200691 108.26369667 C365.20113763 110.0876086 364.30970663 111.91593954 363.41836548 113.74452209 C362.59719994 115.40183098 362.59719994 115.40183098 361.75944519 117.09262085 C361.28075485 118.06793259 360.80206451 119.04324432 360.30886841 120.04811096 C358.91203308 122.38095093 358.91203308 122.38095093 355.91203308 124.38095093 C353.22986794 124.64939308 353.22986794 124.64939308 349.92829895 124.67529297 C348.6776918 124.68960358 347.42708466 124.70391418 346.13858032 124.71865845 C344.75007729 124.72433884 343.36157318 124.72976232 341.97306824 124.73495483 C340.51277012 124.74748587 339.05247837 124.76077963 337.5921936 124.77478027 C332.79520601 124.81683668 327.99821728 124.83757914 323.20109558 124.85751343 C321.54972135 124.86560878 319.8983478 124.87384263 318.24697495 124.88221359 C310.49049949 124.92030768 302.73406205 124.94877445 294.97751105 124.96543753 C286.02154576 124.98499496 277.06656748 125.03766755 268.11095011 125.11843932 C261.18941644 125.1787255 254.26816604 125.20837144 247.34637487 125.21499956 C243.21153114 125.21970415 239.07774237 125.23766497 234.94318008 125.28792191 C231.05377379 125.33443655 227.16611861 125.34297393 223.27650642 125.32239914 C221.84981909 125.32140698 220.42304628 125.33409275 218.99662209 125.36151123 C208.28300867 125.55591283 208.28300867 125.55591283 205.06095982 122.79453278 C203.71213593 120.70803062 202.80241808 118.69709346 201.91203308 116.38095093 C201.28513427 115.17021853 200.64745692 113.96499162 199.99789429 112.76626587 C199.38330874 111.53084773 198.77305627 110.29326656 198.16667175 109.05380249 C197.82766342 108.36965271 197.48865509 107.68550293 197.13937378 106.98062134 C196.41143156 105.51055085 195.68530293 104.03958114 194.96085167 102.56778717 C193.80758236 100.22605277 192.6483834 97.88733952 191.48754883 95.54934692 C188.19043767 88.90659627 184.90234994 82.25940984 181.62174988 75.60848999 C179.60646746 71.52385778 177.58307795 67.44332263 175.55491066 63.36507416 C174.79085785 61.82468978 174.0298278 60.2828017 173.27210045 58.73929596 C164.15690646 40.17457441 154.41597888 23.79055662 133.91203308 16.38095093 C125.50135323 13.77160505 117.71333851 12.95262547 108.93913269 13.01205444 C107.08567734 13.00640472 107.08567734 13.00640472 105.19477844 13.00064087 C102.534652 12.99424522 99.87514701 12.99303945 97.21508598 13.00082588 C93.00838372 13.01251436 88.80195183 13.00016326 84.59527588 12.98420715 C74.16051283 12.94820871 63.72575894 12.94179133 53.29093933 12.94430542 C45.15167711 12.94601593 37.01263906 12.93895754 28.87343985 12.90432686 C24.69096632 12.88753211 20.50904082 12.88932449 16.32656944 12.90514958 C13.12445225 12.91229049 9.92246405 12.89372849 6.72038269 12.87924194 C5.56247726 12.88898544 4.40457184 12.89872894 3.21157837 12.9087677 C2.15619873 12.89919037 1.10081909 12.88961304 0.01345825 12.87974548 C-0.90473222 12.87995477 -1.82292269 12.88016405 -2.76893711 12.88037968 C-5.08796692 12.38095093 -5.08796692 12.38095093 -6.88336849 10.50993252 C-8.37738649 7.86943695 -8.54795223 6.37085546 -8.08796692 3.38095093 C-5.72434458 0.18772565 -3.86529896 0.00477499 0 0 Z " fill="#EBF5F5" transform="translate(22.087966918945313,229.61904907226563)"/>
<path d="M0 0 C2.8823842 3.20954676 5.19639856 6.72306891 7.50390625 10.359375 C8.15697754 11.38490479 8.81004883 12.41043457 9.48291016 13.46704102 C10.1691748 14.55041748 10.85543945 15.63379395 11.5625 16.75 C12.2787518 17.87516208 12.9953891 19.00007886 13.71240234 20.12475586 C15.14246643 22.36816586 16.57135226 24.61230857 17.99951172 26.85693359 C20.69887625 31.09803916 23.40543053 35.3343245 26.125 39.5625 C26.53693604 40.20864258 26.94887207 40.85478516 27.37329102 41.52050781 C28.13802688 42.70777467 28.92004492 43.88420019 29.72377205 45.04542637 C31 47 31 47 32.00263786 49.06790829 C33.43266174 51.61419354 34.68803184 53.19265551 37 55 C42.16097093 56.23013787 47.29343017 56.08084922 52.56298828 56.01586914 C54.18083505 56.02508801 55.79866507 56.03779447 57.41646004 56.0536871 C61.86119291 56.08711239 66.30455335 56.0705666 70.74929142 56.04579735 C75.54289657 56.02771552 80.33626373 56.055626 85.12982178 56.07763672 C94.51993952 56.11323757 103.90954615 56.10551416 113.29968405 56.08233559 C120.93015842 56.06427923 128.5604894 56.06181354 136.190979 56.07052612 C137.8190735 56.07236492 137.8190735 56.07236492 139.48005879 56.07424086 C141.68491924 56.07679863 143.88977965 56.07939233 146.09464002 56.08202159 C166.77685413 56.10484207 187.45878473 56.07859208 208.14095235 56.03561866 C225.89293837 55.99987571 243.64450591 56.00608368 261.39648438 56.04296875 C282.00391724 56.08576674 302.61110152 56.10264472 323.21857262 56.07807064 C325.4153887 56.07552221 327.61220483 56.07300724 329.809021 56.07052612 C330.88993802 56.06929192 331.97085505 56.06805771 333.08452713 56.06678611 C340.70714854 56.05987442 348.32961246 56.07154697 355.95220947 56.09036255 C365.2398837 56.11278392 374.52701695 56.1067628 383.81462908 56.0641166 C388.55484069 56.04306926 393.29414993 56.03489401 398.03435516 56.06130981 C402.3724538 56.08511944 406.70881238 56.07210373 411.04675269 56.0294894 C412.61731167 56.02053998 414.18801714 56.02512995 415.75848222 56.0444957 C423.97220386 56.41278959 423.97220386 56.41278959 431.21791172 53.25449085 C432.76729803 51.22705135 433.90048746 49.29564661 435 47 C435.97779419 45.54799194 435.97779419 45.54799194 436.9753418 44.06665039 C437.54422119 43.16938232 438.11310059 42.27211426 438.69921875 41.34765625 C439.66939941 39.82350098 439.66939941 39.82350098 440.65917969 38.26855469 C441.32852539 37.21055664 441.99787109 36.15255859 442.6875 35.0625 C444.10261276 32.83968341 445.51797843 30.61702781 446.93359375 28.39453125 C447.62308105 27.30994629 448.31256836 26.22536133 449.02294922 25.10791016 C451.75404318 20.81464934 454.49585843 16.52850678 457.25 12.25 C457.67885498 11.578479 458.10770996 10.90695801 458.54956055 10.21508789 C463.27027507 2.88997194 463.27027507 2.88997194 466 0 C469.99438174 0.06886865 472.1314229 0.1314229 475 3 C475.0549106 9.97364562 471.38601924 14.73568263 467.625 20.375 C466.99231201 21.34526123 466.35962402 22.31552246 465.70776367 23.31518555 C464.42041085 25.28780767 463.12804095 27.2571651 461.83056641 29.22314453 C459.74560392 32.38590304 457.69026324 35.56680132 455.64013672 38.75219727 C454.32428276 40.79421484 453.0007605 42.83108202 451.67578125 44.8671875 C449.75815115 47.81881286 447.86423167 50.7844633 445.98046875 53.7578125 C445.48184326 54.54051514 444.98321777 55.32321777 444.46948242 56.12963867 C443.51294084 57.63191274 442.56102821 59.13714755 441.61450195 60.64575195 C441.18484131 61.31823975 440.75518066 61.99072754 440.3125 62.68359375 C439.74982422 63.57389282 439.74982422 63.57389282 439.17578125 64.48217773 C438 66 438 66 435 68 C432.03513533 68.25415033 432.03513533 68.25415033 428.31699467 68.26006222 C427.63094018 68.26386789 426.94488569 68.26767356 426.23804167 68.27159455 C423.92221474 68.28196139 421.60663062 68.27799489 419.29078674 68.27415466 C417.62050175 68.2786043 415.95021887 68.28391743 414.27993912 68.29002339 C409.67678606 68.30424651 405.07370037 68.30586587 400.47052848 68.30542648 C395.51134387 68.30707087 390.55218734 68.32013016 385.59301758 68.33161926 C374.7440995 68.3544964 363.89520095 68.36239256 353.04626203 68.36744571 C346.27664157 68.37069911 339.50702682 68.37721935 332.73740959 68.3844471 C314.00645028 68.40401535 295.27549629 68.42041864 276.5445261 68.42332363 C275.34525515 68.4235112 274.14598421 68.42369877 272.91037172 68.42389202 C270.47900577 68.42425828 268.04763983 68.42462198 265.61627389 68.42498314 C264.40928778 68.42516595 263.20230168 68.42534876 261.95874023 68.42553711 C260.14606038 68.42580793 260.14606038 68.42580793 258.29676073 68.42608423 C238.70279601 68.42962806 219.10894105 68.4566625 199.51501442 68.494035 C179.41423364 68.53206857 159.3135074 68.55148074 139.21268982 68.55178314 C127.92026276 68.55236878 116.62796666 68.56092896 105.3355732 68.58978081 C95.72256359 68.6142284 86.10973272 68.62162245 76.49670047 68.60653328 C71.58883249 68.59933755 66.68131791 68.60033586 61.773489 68.62294388 C57.28467853 68.6434243 52.79649561 68.64103693 48.30769276 68.62006903 C46.67985738 68.61655306 45.05197771 68.62157249 43.42420048 68.63577347 C41.21831107 68.65378473 39.01466514 68.64125836 36.80884647 68.62082577 C34.96812332 68.62204745 34.96812332 68.62204745 33.09021384 68.62329382 C30 68 30 68 27.68371528 65.62324673 C27.12808924 64.75757531 26.5724632 63.89190389 26 63 C25.42306396 62.14438477 24.84612793 61.28876953 24.25170898 60.40722656 C23.67235596 59.49424805 23.09300293 58.58126953 22.49609375 57.640625 C21.51672852 56.10293457 21.51672852 56.10293457 20.51757812 54.53417969 C19.83115234 53.45040039 19.14472656 52.36662109 18.4375 51.25 C17.35923072 49.55426132 16.2799592 47.85916355 15.20059204 46.16412354 C14.13044762 44.48344044 13.06107 42.80226919 11.99169922 41.12109375 C9.79558854 37.67967687 7.57938555 34.25197474 5.35302734 30.83007812 C3.62797134 28.17806132 1.91335195 25.51940384 0.20068359 22.859375 C-0.60797096 21.607095 -1.42022236 20.35713119 -2.23583984 19.109375 C-3.39724767 17.32964019 -4.54396998 15.54125663 -5.6875 13.75 C-6.33074219 12.75484375 -6.97398438 11.7596875 -7.63671875 10.734375 C-9.08526828 7.8289748 -9.393143 6.19497907 -9 3 C-6.74221069 -0.63754945 -4.02433879 -0.6570349 0 0 Z " fill="#B97456" transform="translate(23,430)"/>
<path d="M0 0 C22.44 0 44.88 0 68 0 C68 27.72 68 55.44 68 84 C45.56 84 23.12 84 0 84 C0 56.28 0 28.56 0 0 Z " fill="#FFE673" transform="translate(38,134)"/>
<path d="M0 0 C3.3 0 6.6 0 10 0 C10.01458252 1.58232422 10.02916504 3.16464844 10.04418945 4.79492188 C10.1027167 10.73670635 10.17994086 16.67813313 10.26245117 22.61962891 C10.29544682 25.17783752 10.3235552 27.73611451 10.34643555 30.29443359 C10.49990186 50.83468507 10.49990186 50.83468507 14 71 C14.21857666 71.86544434 14.43715332 72.73088867 14.66235352 73.62255859 C15.24945174 75.75825132 15.90466624 77.84340515 16.625 79.9375 C16.87588379 80.67492432 17.12676758 81.41234863 17.38525391 82.17211914 C28.31676369 112.86845124 51.29357308 136.82434607 80.4375 150.8125 C98.72310962 159.21170134 117.15747685 161.30242786 137.06274414 161.29052734 C139.07307177 161.29652134 141.08339711 161.30332888 143.09371948 161.31088257 C148.525942 161.32846361 153.9581014 161.33323468 159.39034963 161.33451414 C162.79369645 161.33594108 166.19702751 161.34022098 169.60037041 161.34550858 C181.50076175 161.36398458 193.40110846 161.37218246 205.30151367 161.37060547 C216.34979194 161.36940558 227.39787439 161.39048433 238.44610316 161.4220928 C247.96759164 161.44835101 257.48901655 161.45896874 267.0105409 161.45769465 C272.68121614 161.45718771 278.35171725 161.46272129 284.02235603 161.48405075 C289.36347081 161.50359404 294.70424827 161.50344895 300.04537582 161.48901749 C301.99021721 161.48694791 303.93508063 161.49151775 305.87988472 161.5037384 C334.52698713 161.67188942 360.33295843 154.11125373 381.234375 133.84375 C386.86319946 128.0559192 391.96770209 122.00941505 396 115 C397 118 397 118 395.8125 120.8203125 C392.04508304 127.6893529 388.09384892 134.02026431 383 140 C382.11054687 141.10601562 382.11054687 141.10601562 381.203125 142.234375 C369.1097367 156.72645189 352.04055012 165.35179704 334 170 C332.80570751 170.34103634 331.61141502 170.68207268 330.38093185 171.03344345 C325.83336096 172.16191266 321.50975693 172.27946173 316.84259033 172.25396729 C315.95400731 172.25708727 315.06542428 172.26020725 314.1499145 172.26342177 C311.1900436 172.27136112 308.23038003 172.26509392 305.27050781 172.25878906 C303.14104086 172.2615008 301.01157484 172.26506277 298.8821106 172.26940918 C293.10921199 172.27851582 287.33638498 172.27499541 281.56348515 172.26865101 C275.51259738 172.26357948 269.46171565 172.26828591 263.41082764 172.27142334 C253.24587914 172.27506073 243.08095971 172.27027098 232.91601562 172.26074219 C221.18268665 172.2498698 209.44942725 172.25337531 197.71609998 172.264395 C187.62835511 172.27348831 177.54063112 172.2747428 167.45288348 172.26951766 C161.43422733 172.26640769 155.4156038 172.26596158 149.39694977 172.27259064 C143.73342023 172.2783928 138.06997979 172.27431484 132.40645981 172.26280212 C130.3345212 172.26017034 128.26257503 172.26089512 126.1906395 172.26532745 C88.8108641 172.33788206 58.24799702 159.12532588 31.68359375 132.6953125 C8.78268357 108.40043387 -0.23954313 76.17171619 -0.09765625 43.45703125 C-0.0962413 42.20742111 -0.09482635 40.95781097 -0.09336853 39.67033386 C-0.08875602 36.38741819 -0.07981038 33.10455398 -0.06866455 29.82165527 C-0.05833788 26.45597963 -0.05384708 23.09029638 -0.04882812 19.72460938 C-0.0378609 13.14971988 -0.02116975 6.57486414 0 0 Z " fill="#F7637D" transform="translate(38,254)"/>
<path d="M0 0 C16.46459858 -0.04686454 32.92917528 -0.08205932 49.39382458 -0.10362434 C57.03983486 -0.11390658 64.68580354 -0.12790803 72.33178711 -0.15087891 C79.00140215 -0.1709068 85.67098703 -0.18373858 92.34063131 -0.18817699 C95.86726927 -0.19076857 99.393821 -0.19679507 102.92043114 -0.21146011 C106.87169298 -0.22775547 110.82287294 -0.22797371 114.77416992 -0.22705078 C115.92432587 -0.23424133 117.07448181 -0.24143188 118.25949097 -0.24884033 C139.43762487 -0.19566051 155.2646144 6.15187161 170.4453125 20.94921875 C178.37724656 30.42145193 183.55169541 41.70109173 188.99609375 52.69921875 C189.74298172 54.19741715 190.4904177 55.69534247 191.23840332 57.19299316 C193.97804545 62.6878715 196.70716395 68.18799166 199.4375 73.6875 C205.563125 86.000625 211.68875 98.31375 218 111 C265.52 111 313.04 111 362 111 C372.23 90.54 382.46 70.08 393 49 C394 48 394 48 396.32215881 47.87974548 C397.35030197 47.88196609 398.37844513 47.88418671 399.43774414 47.88647461 C401.17943626 47.88658791 401.17943626 47.88658791 402.95631409 47.88670349 C404.85159096 47.89444542 404.85159096 47.89444542 406.78515625 47.90234375 C408.71408974 47.90446617 408.71408974 47.90446617 410.68199158 47.90663147 C414.10643443 47.91045582 417.53083509 47.92028538 420.95526123 47.93133545 C424.44738189 47.94155136 427.93950934 47.94612947 431.43164062 47.95117188 C438.28777778 47.96190773 445.14388687 47.97898316 452 48 C450.25 52.875 450.25 52.875 448 54 C446.44835588 54.09320596 444.89281967 54.12513332 443.33837891 54.12597656 C442.37042389 54.12978333 441.40246887 54.13359009 440.40518188 54.13751221 C438.83176529 54.13905304 438.83176529 54.13905304 437.2265625 54.140625 C435.01821883 54.15894979 432.8098852 54.17851979 430.6015625 54.19921875 C427.10985363 54.22822619 423.61879045 54.25000087 420.12695312 54.25048828 C416.76373599 54.25381538 413.40201988 54.28832148 410.0390625 54.328125 C408.99416656 54.3210553 407.94927063 54.3139856 406.87271118 54.30670166 C405.89845184 54.32311707 404.9241925 54.33953247 403.92041016 54.35644531 C402.63706284 54.36191376 402.63706284 54.36191376 401.32778931 54.36749268 C397.92051609 55.29331756 396.93078412 57.10714083 395 60 C393.95392731 61.86296575 392.96396891 63.75821994 392.02319336 65.67651367 C391.4725975 66.79084274 390.92200165 67.90517181 390.35472107 69.05326843 C390.06714872 69.64239202 389.77957638 70.23151562 389.48328972 70.83849144 C388.57666295 72.6949586 387.66205197 74.54729438 386.74525452 76.39875793 C384.4720866 80.99299402 382.21065962 85.59297474 379.95257568 90.19464111 C378.03893178 94.09428313 376.11910652 97.99074099 374.18997383 101.88274574 C373.28910455 103.70665767 372.39767354 105.53498861 371.5063324 107.36357117 C370.68516685 109.02088005 370.68516685 109.02088005 369.84741211 110.71166992 C369.36872177 111.68698166 368.89003143 112.6622934 368.39683533 113.66716003 C367 116 367 116 364 118 C361.31783485 118.26844215 361.31783485 118.26844215 358.01626587 118.29434204 C356.76565872 118.30865265 355.51505157 118.32296326 354.22654724 118.33770752 C352.83804421 118.34338791 351.4495401 118.34881139 350.06103516 118.35400391 C348.60073704 118.36653494 347.14044529 118.3798287 345.68016052 118.39382935 C340.88317293 118.43588575 336.0861842 118.45662821 331.2890625 118.4765625 C329.63768827 118.48465785 327.98631472 118.4928917 326.33494186 118.50126266 C318.57846641 118.53935675 310.82202897 118.56782352 303.06547797 118.5844866 C294.10951268 118.60404403 285.1545344 118.65671663 276.19891703 118.73748839 C269.27738336 118.79777457 262.35613296 118.82742052 255.43434179 118.83404863 C251.29949806 118.83875322 247.16570929 118.85671404 243.031147 118.90697098 C239.14174071 118.95348562 235.25408553 118.962023 231.36447334 118.94144821 C229.937786 118.94045605 228.5110132 118.95314182 227.084589 118.9805603 C216.37097559 119.1749619 216.37097559 119.1749619 213.14892673 116.41358185 C211.80010285 114.3270797 210.890385 112.31614254 210 110 C209.37310119 108.78926761 208.73542384 107.58404069 208.08586121 106.38531494 C207.47127565 105.14989681 206.86102319 103.91231564 206.25463867 102.67285156 C205.91563034 101.98870178 205.57662201 101.304552 205.2273407 100.59967041 C204.49939848 99.12959992 203.77326985 97.65863021 203.04881859 96.18683624 C201.89554927 93.84510185 200.73635032 91.50638859 199.57551575 89.168396 C196.27840459 82.52564534 192.99031686 75.87845892 189.7097168 69.22753906 C187.69443438 65.14290685 185.67104487 61.0623717 183.64287758 56.98412323 C182.87882477 55.44373886 182.11779472 53.90185077 181.36006737 52.35834503 C172.24487338 33.79362349 162.5039458 17.40960569 142 10 C133.58932014 7.39065413 125.80130543 6.57167454 117.02709961 6.63110352 C115.17364426 6.6254538 115.17364426 6.6254538 113.28274536 6.61968994 C110.62261892 6.61329429 107.96311393 6.61208852 105.3030529 6.61987495 C101.09635064 6.63156344 96.88991875 6.61921233 92.6832428 6.60325623 C82.24847975 6.56725778 71.81372586 6.5608404 61.37890625 6.56335449 C53.23964403 6.56506501 45.10060598 6.55800661 36.96140677 6.52337593 C32.77893324 6.50658118 28.59700774 6.50837357 24.41453636 6.52419865 C21.21241916 6.53133956 18.01043097 6.51277756 14.80834961 6.49829102 C13.65044418 6.50803452 12.49253876 6.51777802 11.29954529 6.52781677 C10.24416565 6.51823944 9.18878601 6.50866211 8.10142517 6.49879456 C7.1832347 6.49900384 6.26504423 6.49921312 5.31902981 6.49942875 C3 6 3 6 1.18116093 4.09382534 C0 2 0 2 0 0 Z " fill="#DDEEEE" transform="translate(14,236)"/>
<path d="M0 0 C2.87149427 0.32067449 4.53121404 0.52548316 6.59765625 2.6171875 C7.08105469 3.36226563 7.56445312 4.10734375 8.0625 4.875 C8.65675781 5.77863281 9.25101563 6.68226563 9.86328125 7.61328125 C10.5771369 8.74116628 11.28920479 9.87018377 12 11 C12.91005429 12.43105443 13.82021844 13.86203899 14.73046875 15.29296875 C16.78390434 18.53155894 18.82796525 21.77588146 20.8671875 25.0234375 C23.84496745 29.76089871 26.84704087 34.48195893 29.875 39.1875 C30.30264648 39.85724854 30.73029297 40.52699707 31.17089844 41.21704102 C31.9806572 42.47204146 32.80807419 43.71591323 33.65677071 44.94491673 C35 47 35 47 36.01637077 49.08850765 C37.44183034 51.62835353 38.69238604 53.19978913 41 55 C46.16143712 56.22910066 51.29323954 56.08085157 56.56298828 56.01586914 C58.18083505 56.02508801 59.79866507 56.03779447 61.41646004 56.0536871 C65.86119291 56.08711239 70.30455335 56.0705666 74.74929142 56.04579735 C79.54289657 56.02771552 84.33626373 56.055626 89.12982178 56.07763672 C98.51993952 56.11323757 107.90954615 56.10551416 117.29968405 56.08233559 C124.93015842 56.06427923 132.5604894 56.06181354 140.190979 56.07052612 C141.8190735 56.07236492 141.8190735 56.07236492 143.48005879 56.07424086 C145.68491924 56.07679863 147.88977965 56.07939233 150.09464002 56.08202159 C170.77685413 56.10484207 191.45878473 56.07859208 212.14095235 56.03561866 C229.89293837 55.99987571 247.64450591 56.00608368 265.39648438 56.04296875 C286.00391724 56.08576674 306.61110152 56.10264472 327.21857262 56.07807064 C329.4153887 56.07552221 331.61220483 56.07300724 333.809021 56.07052612 C334.88993802 56.06929192 335.97085505 56.06805771 337.08452713 56.06678611 C344.70714854 56.05987442 352.32961246 56.07154697 359.95220947 56.09036255 C369.2398837 56.11278392 378.52701695 56.1067628 387.81462908 56.0641166 C392.55484069 56.04306926 397.29414993 56.03489401 402.03435516 56.06130981 C406.3724538 56.08511944 410.70881238 56.07210373 415.04675269 56.0294894 C416.61731167 56.02053998 418.18801714 56.02512995 419.75848222 56.0444957 C427.97220386 56.41278959 427.97220386 56.41278959 435.21791172 53.25449085 C436.76729803 51.22705135 437.90048746 49.29564661 439 47 C439.97779419 45.54799194 439.97779419 45.54799194 440.9753418 44.06665039 C441.54422119 43.16938232 442.11310059 42.27211426 442.69921875 41.34765625 C443.66939941 39.82350098 443.66939941 39.82350098 444.65917969 38.26855469 C445.32852539 37.21055664 445.99787109 36.15255859 446.6875 35.0625 C448.10261276 32.83968341 449.51797843 30.61702781 450.93359375 28.39453125 C451.62308105 27.30994629 452.31256836 26.22536133 453.02294922 25.10791016 C455.75404318 20.81464934 458.49585843 16.52850678 461.25 12.25 C461.67885498 11.578479 462.10770996 10.90695801 462.54956055 10.21508789 C464.84746319 6.64944052 467.14210829 3.14963482 470 0 C472.75 -0.3125 472.75 -0.3125 475 0 C475.33 0.66 475.66 1.32 476 2 C475.18652344 3.70141602 475.18652344 3.70141602 473.859375 5.75390625 C473.37170654 6.51670898 472.88403809 7.27951172 472.3815918 8.06542969 C471.8431665 8.88946289 471.30474121 9.71349609 470.75 10.5625 C469.92399292 11.84688965 469.92399292 11.84688965 469.08129883 13.15722656 C467.39472705 15.77621397 465.69775938 18.38825585 464 21 C463.09159896 22.40960951 462.18398445 23.81972637 461.27734375 25.23046875 C459.05877887 28.67762964 456.82812031 32.1167537 454.59228516 35.55273438 C453.41927557 37.35559364 452.24721531 39.15907066 451.07568359 40.96289062 C449.0102531 44.14288155 446.94290669 47.32161885 444.875 50.5 C444.21072998 51.52254883 443.54645996 52.54509766 442.86206055 53.59863281 C442.24500244 54.54577148 441.62794434 55.49291016 440.9921875 56.46875 C440.16243408 57.74395508 440.16243408 57.74395508 439.31591797 59.04492188 C438 61 438 61 437 62 C434.88529495 62.10704259 432.76695124 62.14216641 430.64955711 62.15098095 C429.97515097 62.15513076 429.30074483 62.15928057 428.60590214 62.16355613 C426.317699 62.17635449 424.02953376 62.18192499 421.74130249 62.18754578 C420.09550624 62.19513387 418.44971184 62.20313474 416.80391943 62.21151572 C412.25907418 62.23327342 407.71422642 62.24854137 403.16935182 62.26265609 C399.27655931 62.27553182 395.38378589 62.29209223 391.49100749 62.30863335 C354.60090123 62.46476366 317.71035428 62.53965185 280.81998253 62.60025311 C276.01686962 62.6082823 271.21375697 62.61645054 266.41064453 62.62475586 C265.2168003 62.62681346 264.02295606 62.62887106 262.79293473 62.63099102 C243.4497112 62.6654172 224.10681881 62.7380721 204.76377086 62.82566347 C184.91956568 62.91478248 165.07553237 62.96617145 145.2311312 62.98155528 C134.08312685 62.99122264 122.93571883 63.01806991 111.78791428 63.08786583 C102.2941382 63.14728004 92.80103756 63.17309316 83.30707996 63.15452697 C78.46120415 63.14612174 73.61678619 63.15405904 68.77114487 63.205513 C64.3351724 63.25224993 59.90167451 63.25290175 55.465625 63.21677623 C53.86051943 63.21185137 52.25525433 63.22388145 50.65043347 63.2545106 C38.65006011 63.46990493 38.65006011 63.46990493 34.53486943 59.8040148 C32.73526844 57.27113909 31.33694615 54.79889934 30 52 C29.31067383 50.95706787 28.62134766 49.91413574 27.91113281 48.83959961 C27.34749023 47.95280518 26.78384766 47.06601074 26.203125 46.15234375 C25.55956055 45.14276611 24.91599609 44.13318848 24.25292969 43.09301758 C23.59196289 42.05169678 22.93099609 41.01037598 22.25 39.9375 C20.84407313 37.73156486 19.43782175 35.5258365 18.03125 33.3203125 C17.34804688 32.24813477 16.66484375 31.17595703 15.9609375 30.07128906 C13.23922296 25.80844433 10.49884586 21.5578865 7.75 17.3125 C7.32106445 16.64919678 6.89212891 15.98589355 6.45019531 15.30249023 C6.04897461 14.68317627 5.64775391 14.0638623 5.234375 13.42578125 C4.86151367 12.84860352 4.48865234 12.27142578 4.10449219 11.67675781 C3.3558291 10.54019325 2.59017189 9.41467535 1.80957031 8.29980469 C-1.02492444 4.23678218 -1.02492444 4.23678218 -0.75 1.625 C-0.5025 1.08875 -0.255 0.5525 0 0 Z " fill="#C78360" transform="translate(19,430)"/>
<path d="M0 0 C4.928491 2.36567568 8.42451232 6.28203458 12.16796875 10.1953125 C14.07148137 12.18396504 14.07148137 12.18396504 17 14 C21.08843721 13.94931689 22.71583108 13.24251676 25.8515625 10.56640625 C26.78919715 9.57741239 27.71353752 8.57566521 28.625 7.5625 C35.29328767 0.32926018 35.29328767 0.32926018 40.18359375 -0.265625 C44.56259274 -0.23526799 48.01653112 -0.05598394 52 2 C50.63487971 9.53115751 48.73757164 16.83447586 46.625 24.1875 C43.98760745 33.43587875 41.47864483 42.7050819 39 52 C25.8 52 12.6 52 -1 52 C-2.03125 48.143125 -3.0625 44.28625 -4.125 40.3125 C-6.71419617 30.64665764 -9.3825175 21.00910908 -12.22119141 11.41333008 C-12.45628418 10.60790771 -12.69137695 9.80248535 -12.93359375 8.97265625 C-13.14040771 8.27406494 -13.34722168 7.57547363 -13.56030273 6.85571289 C-14 5 -14 5 -14 2 C-9.4210143 -0.63766457 -5.16655529 -0.64170591 0 0 Z " fill="#B97456" transform="translate(165,94)"/>
<path d="M0 0 C3.00234705 1.40967988 5.61142589 3.08094201 8.3125 5 C15.49406931 9.78771287 22.4805098 10.93749548 31 10 C37.98606485 8.21026577 42.83568648 4.93977815 48 0 C50.95653215 1.38546013 53.48533196 3.02349716 56.125 4.9375 C60.81960915 8.13233385 65.50934897 9.69324798 71 11 C70 16 70 16 62 31 C39.23 31 16.46 31 -7 31 C-14 14 -14 14 -15 9 C-13.824375 8.62875 -12.64875 8.2575 -11.4375 7.875 C-6.77817643 6.15578435 -3.5386448 3.41700389 0 0 Z " fill="#5EBD7C" transform="translate(303,299)"/>
<path d="M0 0 C22.44 0 44.88 0 68 0 C68 3.3 68 6.6 68 10 C48.86 10 29.72 10 10 10 C10 34.42 10 58.84 10 84 C6.7 84 3.4 84 0 84 C0 56.28 0 28.56 0 0 Z " fill="#FFF3A0" transform="translate(38,134)"/>
<path d="M0 0 C4.8404001 2.60960701 8.06650639 6.09014417 9.796875 11.28125 C10.46163179 18.73524418 10.44121145 24.25616487 5.796875 30.28125 C0.39692227 35.28608423 -4.05234248 35.63143872 -11.1875 35.5625 C-16.73027207 35.04555753 -19.78938645 32.80659949 -23.578125 28.71875 C-27.13749657 23.37969265 -26.78151279 17.4828524 -26.203125 11.28125 C-24.60392 6.37933903 -21.45575292 3.11633528 -17.203125 0.28125 C-11.84906913 -1.50343529 -5.40672306 -1.76389547 0 0 Z " fill="#000000" transform="translate(476.203125,154.71875)"/>
<path d="M0 0 C4.8404001 2.60960701 8.06650639 6.09014417 9.796875 11.28125 C10.46163179 18.73524418 10.44121145 24.25616487 5.796875 30.28125 C0.39692227 35.28608423 -4.05234248 35.63143872 -11.1875 35.5625 C-16.73027207 35.04555753 -19.78938645 32.80659949 -23.578125 28.71875 C-27.13749657 23.37969265 -26.78151279 17.4828524 -26.203125 11.28125 C-24.60392 6.37933903 -21.45575292 3.11633528 -17.203125 0.28125 C-11.84906913 -1.50343529 -5.40672306 -1.76389547 0 0 Z " fill="#000000" transform="translate(28.203125,66.71875)"/>
<path d="M0 0 C4.8404001 2.60960701 8.06650639 6.09014417 9.796875 11.28125 C10.46163179 18.73524418 10.44121145 24.25616487 5.796875 30.28125 C0.39692227 35.28608423 -4.05234248 35.63143872 -11.1875 35.5625 C-16.73027207 35.04555753 -19.78938645 32.80659949 -23.578125 28.71875 C-27.13749657 23.37969265 -26.78151279 17.4828524 -26.203125 11.28125 C-24.60392 6.37933903 -21.45575292 3.11633528 -17.203125 0.28125 C-11.84906913 -1.50343529 -5.40672306 -1.76389547 0 0 Z " fill="#000000" transform="translate(500.203125,58.71875)"/>
<path d="M0 0 C4.8404001 2.60960701 8.06650639 6.09014417 9.796875 11.28125 C10.46163179 18.73524418 10.44121145 24.25616487 5.796875 30.28125 C0.39692227 35.28608423 -4.05234248 35.63143872 -11.1875 35.5625 C-16.73027207 35.04555753 -19.78938645 32.80659949 -23.578125 28.71875 C-27.13749657 23.37969265 -26.78151279 17.4828524 -26.203125 11.28125 C-24.60392 6.37933903 -21.45575292 3.11633528 -17.203125 0.28125 C-11.84906913 -1.50343529 -5.40672306 -1.76389547 0 0 Z " fill="#000000" transform="translate(92.203125,18.71875)"/>
<path d="M0 0 C4.8404001 2.60960701 8.06650639 6.09014417 9.796875 11.28125 C10.46163179 18.73524418 10.44121145 24.25616487 5.796875 30.28125 C0.39692227 35.28608423 -4.05234248 35.63143872 -11.1875 35.5625 C-16.73027207 35.04555753 -19.78938645 32.80659949 -23.578125 28.71875 C-27.13749657 23.37969265 -26.78151279 17.4828524 -26.203125 11.28125 C-24.60392 6.37933903 -21.45575292 3.11633528 -17.203125 0.28125 C-11.84906913 -1.50343529 -5.40672306 -1.76389547 0 0 Z " fill="#000000" transform="translate(444.203125,2.71875)"/>
<path d="M0 0 C4.8404001 2.60960701 8.06650639 6.09014417 9.796875 11.28125 C10.46163179 18.73524418 10.44121145 24.25616487 5.796875 30.28125 C0.39692227 35.28608423 -4.05234248 35.63143872 -11.1875 35.5625 C-16.73027207 35.04555753 -19.78938645 32.80659949 -23.578125 28.71875 C-27.13749657 23.37969265 -26.78151279 17.4828524 -26.203125 11.28125 C-24.60392 6.37933903 -21.45575292 3.11633528 -17.203125 0.28125 C-11.84906913 -1.50343529 -5.40672306 -1.76389547 0 0 Z " fill="#000000" transform="translate(196.203125,2.71875)"/>
<path d="M0 0 C1.47821843 -0.00031115 2.95643842 -0.0033084 4.43464661 -0.00881958 C7.50690369 -0.01156306 10.57726527 0.01310631 13.64916992 0.05908203 C17.55646213 0.11600663 21.46063303 0.110308 25.36815929 0.08490181 C28.41158534 0.07089535 31.45430832 0.08666643 34.49764442 0.11141586 C35.93709924 0.12034511 37.37663083 0.12120729 38.81609154 0.11328506 C48.47691445 0.08497346 55.13546103 1.50375534 63.14453125 6.9921875 C64.13453125 7.6521875 65.12453125 8.3121875 66.14453125 8.9921875 C66.14453125 9.6521875 66.14453125 10.3121875 66.14453125 10.9921875 C65.57347656 10.81042969 65.00242187 10.62867188 64.4140625 10.44140625 C61.66723681 9.58984662 58.90636568 8.79366102 56.14453125 7.9921875 C55.27183594 7.70601562 54.39914063 7.41984375 53.5 7.125 C32.19799374 1.0054086 8.18873173 4.08587434 -11.08984375 14.66015625 C-19.21313364 19.45934303 -25.50605691 25.9086965 -30.79296875 33.6796875 C-33.22552146 36.94891439 -34.16836388 37.8658873 -38.234375 38.61328125 C-41.50364233 38.61680797 -44.61871665 38.4362541 -47.85546875 37.9921875 C-48.63144845 32.95310947 -48.96153578 28.74602065 -46.16796875 24.31640625 C-43.84431178 21.72246279 -41.41960219 19.34788678 -38.85546875 16.9921875 C-38.159375 16.29222656 -37.46328125 15.59226563 -36.74609375 14.87109375 C-25.68075632 4.20094694 -15.1869178 -0.26560631 0 0 Z " fill="#C98461" transform="translate(165.85546875,180.0078125)"/>
<path d="M0 0 C3.84534619 1.81367802 7.20137355 4.14008594 10.68359375 6.5625 C17.24928596 10.63699365 23.43330508 10.70469801 31 10 C38.00729963 8.29421199 42.84328063 4.93251418 48 0 C51.84534619 1.81367802 55.20137355 4.14008594 58.68359375 6.5625 C65.24928596 10.63699365 71.43330508 10.70469801 79 10 C86.00729963 8.29421199 90.84328063 4.93251418 96 0 C99.00234705 1.40967988 101.61142589 3.08094201 104.3125 5 C111.59419331 9.85446221 118.39977513 10.65477554 127 10 C129.45751208 9.5076487 131.63136069 8.84218286 134 8 C135.98 10.475 135.98 10.475 138 13 C128.29254749 17.35765403 118.76611399 19.11082692 108.5625 15.25 C105.68595263 13.95601914 103.21051876 12.50765867 100.6875 10.625 C98.15787474 8.68024117 98.15787474 8.68024117 95.5625 9.5 C93.6106716 10.6425337 91.67614487 11.81468008 89.75 13 C82.66287216 17.09342729 74.04123838 18.07791399 66 17 C60.93683241 15.40626686 56.0209631 13.56230481 51.796875 10.296875 C51.20390625 9.86890625 50.6109375 9.4409375 50 9 C46.83176636 9.77065143 44.52982398 11.28933909 41.75 13 C34.66287216 17.09342729 26.04123838 18.07791399 18 17 C12.13787455 15.15477891 6.80390649 12.87265275 2 9 C1.443125 9.28875 0.88625 9.5775 0.3125 9.875 C-2.08494645 11.0413253 -4.51596939 12.0339881 -7 13 C-7.66 11.02 -8.32 9.04 -9 7 C-8.43410156 6.57847656 -7.86820312 6.15695313 -7.28515625 5.72265625 C-6.55167969 5.17480469 -5.81820313 4.62695312 -5.0625 4.0625 C-4.33160156 3.51722656 -3.60070312 2.97195312 -2.84765625 2.41015625 C-1.0865547 1.13092062 -1.0865547 1.13092062 0 0 Z " fill="#45A86C" transform="translate(279,211)"/>
<path d="M0 0 C3.00234705 1.40967988 5.61142589 3.08094201 8.3125 5 C15.49406931 9.78771287 22.4805098 10.93749548 31 10 C37.98606485 8.21026577 42.83568648 4.93977815 48 0 C51.00234705 1.40967988 53.61142589 3.08094201 56.3125 5 C63.20365153 9.60158327 69.81821407 10.83691551 78 10 C81.10848774 9.23642536 84.03434314 8.19677098 87 7 C88.5159375 6.4121875 88.5159375 6.4121875 90.0625 5.8125 C90.701875 5.544375 91.34125 5.27625 92 5 C93.98 7.475 93.98 7.475 96 10 C85.22773582 15.67873886 74.86833434 19.67490363 62.6328125 15.984375 C58.73373088 14.40186265 55.1420796 12.88602617 51.8046875 10.296875 C50.91136719 9.65492188 50.91136719 9.65492188 50 9 C46.83176636 9.77065143 44.52982398 11.28933909 41.75 13 C34.60111192 17.12909915 26.11034511 17.93668775 18 17 C13.08167443 15.62513666 8.77303146 13.68914859 4.6875 10.625 C2.17864384 8.69973896 2.17864384 8.69973896 -0.3125 9.4375 C-1.90079246 10.36092585 -3.48653846 11.28879599 -5.06640625 12.2265625 C-9.80470221 14.96852057 -13.41280514 16.69524392 -19 17 C-20.2375 17.0825 -21.475 17.165 -22.75 17.25 C-29.03976585 17.16417473 -35.55642839 15.54051254 -40.875 12.1875 C-41.57625 11.795625 -42.2775 11.40375 -43 11 C-45.78223378 11.69485264 -45.78223378 11.69485264 -48 13 C-46.55746343 9.63408134 -44.66735273 7.48952921 -42 5 C-41.34 5.268125 -40.68 5.53625 -40 5.8125 C-39.01 6.204375 -38.02 6.59625 -37 7 C-35.824375 7.53625 -34.64875 8.0725 -33.4375 8.625 C-25.36572553 11.58921097 -17.01589031 10.7680412 -9.26953125 7.2890625 C-5.71888014 5.27234156 -2.94741305 2.81926466 0 0 Z " fill="#45A86D" transform="translate(303,131)"/>
<path d="M0 0 C1.81219276 -0.01418472 1.81219276 -0.01418472 3.66099548 -0.02865601 C4.96726395 -0.02258331 6.27353241 -0.01651062 7.61938477 -0.01025391 C8.97315121 -0.01227513 10.3269166 -0.01518698 11.68067932 -0.01895142 C14.51785652 -0.02337405 17.35475029 -0.01694706 20.19189453 -0.00292969 C23.82481471 0.01414632 27.45706922 0.00433145 31.08996487 -0.01364708 C33.88585909 -0.02450078 36.68159618 -0.02103112 39.47749519 -0.0132637 C41.46721453 -0.01029445 43.45694003 -0.01939176 45.44664001 -0.02865601 C47.26356102 -0.01447128 47.26356102 -0.01447128 49.1171875 0 C50.18291489 0.00238678 51.24864227 0.00477356 52.34666443 0.00723267 C55.4531452 0.43343932 56.82927087 1.3043874 59.12329102 3.38818359 C58.81079102 6.76318359 58.81079102 6.76318359 58.12329102 10.38818359 C54.66315782 12.69493905 53.31283202 12.64957054 49.23071289 12.67871094 C48.01935669 12.69147064 46.80800049 12.70423035 45.55993652 12.71737671 C44.25053101 12.71960236 42.94112549 12.721828 41.59204102 12.72412109 C40.23587909 12.73054786 38.87971857 12.73727612 37.52355957 12.74429321 C34.68225895 12.75626468 31.84107992 12.75997406 28.99975586 12.75878906 C25.3576784 12.75858558 21.71637869 12.7859173 18.07448578 12.82033348 C15.27435722 12.84255944 12.47441735 12.846628 9.67420959 12.84556961 C7.67829624 12.84907932 5.68244175 12.87076535 3.68664551 12.89266968 C2.47528931 12.88651642 1.26393311 12.88036316 0.01586914 12.87402344 C-1.05207886 12.87687347 -2.12002686 12.87972351 -3.22033691 12.88265991 C-5.87670898 12.38818359 -5.87670898 12.38818359 -7.72155762 10.51797485 C-9.15357659 7.87771351 -9.33246634 6.35060641 -8.87670898 3.38818359 C-6.40860117 -0.08740889 -4.09353734 0.00917465 0 0 Z " fill="#F7627D" transform="translate(158.876708984375,157.61181640625)"/>
<path d="M0 0 C3.63 0.99 7.26 1.98 11 3 C9.51095248 11.24126931 6.66641991 18.89199061 3.77709961 26.72314453 C2.93008767 29.02010102 2.09235965 31.32029084 1.25585938 33.62109375 C0.72188828 35.08092464 0.18740213 36.54056727 -0.34765625 38 C-0.59870621 38.68843994 -0.84975616 39.37687988 -1.1084137 40.08618164 C-2.8838684 44.8838684 -2.8838684 44.8838684 -4 46 C-6.01964199 46.07244053 -8.04167124 46.08377188 -10.0625 46.0625 C-11.16722656 46.05347656 -12.27195312 46.04445313 -13.41015625 46.03515625 C-14.69212891 46.01775391 -14.69212891 46.01775391 -16 46 C-14.78085678 39.89413884 -13.14075053 34.12279772 -10.99609375 28.28125 C-10.71274673 27.49729858 -10.42939972 26.71334717 -10.13746643 25.90563965 C-9.54422816 24.26784282 -8.94833008 22.63100712 -8.34985352 20.99511719 C-7.4304919 18.48083416 -6.52030021 15.96336794 -5.61132812 13.4453125 C-5.03177923 11.84876612 -4.45171985 10.25240494 -3.87109375 8.65625 C-3.59817001 7.90218872 -3.32524628 7.14812744 -3.04405212 6.37121582 C-1.1160717 1.1160717 -1.1160717 1.1160717 0 0 Z " fill="#B67254" transform="translate(108,428)"/>
<path d="M0 0 C3.00234705 1.40967988 5.61142589 3.08094201 8.3125 5 C15.49406931 9.78771287 22.4805098 10.93749548 31 10 C37.98606485 8.21026577 42.83568648 4.93977815 48 0 C50.95653215 1.38546013 53.48533196 3.02349716 56.125 4.9375 C60.81960915 8.13233385 65.50934897 9.69324798 71 11 C70.25 15.75 70.25 15.75 68 18 C68 17.34 68 16.68 68 16 C66.88625 15.95875 65.7725 15.9175 64.625 15.875 C59.68906825 15.32266661 56.36827446 12.92592179 52.39453125 10.08203125 C50.01431522 8.70154407 50.01431522 8.70154407 47.40234375 9.69921875 C45.48369903 10.73809467 43.60818901 11.85649907 41.75 13 C33.64571402 17.71138534 24.42991891 17.97732883 15.5 15.8125 C10.96913842 14.5197611 7.54612646 12.69816552 3.8515625 9.79296875 C1.942491 8.7466836 1.942491 8.7466836 -0.39453125 9.66796875 C-3.10760534 11.05501263 -5.71497853 12.5318535 -8.3125 14.125 C-9.19550781 14.66382813 -10.07851563 15.20265625 -10.98828125 15.7578125 C-11.65214844 16.16773438 -12.31601562 16.57765625 -13 17 C-14.76462683 13.91190305 -15 12.76687864 -15 9 C-13.824375 8.62875 -12.64875 8.2575 -11.4375 7.875 C-6.77817643 6.15578435 -3.5386448 3.41700389 0 0 Z " fill="#45A76C" transform="translate(303,299)"/>
<path d="M0 0 C3.11068509 1.32157363 5.45144508 2.90289016 7 6 C5.865625 6.28875 4.73125 6.5775 3.5625 6.875 C2.386875 7.24625 1.21125 7.6175 0 8 C-3.26467525 14.52935049 0.03048196 21.97293056 2.15039062 28.36328125 C2.57513672 29.60464844 2.99988281 30.84601563 3.4375 32.125 C4.27329481 34.6055059 5.10546064 37.08723819 5.93359375 39.5703125 C6.30540771 40.66102051 6.67722168 41.75172852 7.06030273 42.87548828 C7.97405503 45.91373246 8.55215092 48.86240296 9 52 C5.7 52 2.4 52 -1 52 C-1.27094482 50.98353394 -1.27094482 50.98353394 -1.54736328 49.9465332 C-2.40468769 46.73468075 -3.26440186 43.52347687 -4.125 40.3125 C-4.43832275 39.14323975 -4.75164551 37.97397949 -5.07446289 36.76928711 C-7.3578616 28.28784522 -9.72954801 19.8360162 -12.22119141 11.41333008 C-12.45628418 10.60790771 -12.69137695 9.80248535 -12.93359375 8.97265625 C-13.14040771 8.27406494 -13.34722168 7.57547363 -13.56030273 6.85571289 C-14 5 -14 5 -14 2 C-9.44071465 -0.62631645 -5.14683616 -0.68084132 0 0 Z " fill="#C6825F" transform="translate(165,94)"/>
<path d="M0 0 C1.53816117 3.9621281 3.06772592 7.92744161 4.58984375 11.89575195 C5.10742258 13.24168223 5.62722874 14.58675841 6.14941406 15.9309082 C8.97239782 23.20198418 11.59595413 30.29466394 13 38 C9.04 38 5.08 38 1 38 C-2.35939522 30.23139856 -5.3971615 22.38218578 -8.3125 14.4375 C-8.67408203 13.46151855 -9.03566406 12.48553711 -9.40820312 11.47998047 C-9.74400391 10.55717285 -10.07980469 9.63436523 -10.42578125 8.68359375 C-10.88078003 7.43920532 -10.88078003 7.43920532 -11.3449707 6.16967773 C-12 4 -12 4 -12 1 C-7.92855518 0.2244867 -4.13880432 -0.04637316 0 0 Z " fill="#B67254" transform="translate(375,436)"/>
<path d="M0 0 C3.96 0 7.92 0 12 0 C12 11.88 12 23.76 12 36 C8.04 36 4.08 36 0 36 C0 24.12 0 12.24 0 0 Z " fill="#BB7557" transform="translate(234,438)"/>
<path d="M0 0 C1.00088654 0.00007553 2.00177307 0.00015106 3.0329895 0.00022888 C4.1163559 0.00539017 5.19972229 0.01055145 6.31591797 0.01586914 C7.42289032 0.01728409 8.52986267 0.01869904 9.67037964 0.02015686 C13.2163154 0.02576767 16.7621887 0.03832203 20.30810547 0.05102539 C22.70784414 0.056039 25.1075838 0.06060215 27.50732422 0.06469727 C33.39927272 0.07574061 39.29118463 0.09248929 45.18310547 0.11352539 C43.43310547 4.98852539 43.43310547 4.98852539 41.18310547 6.11352539 C39.51829907 6.20392445 37.84987125 6.23107796 36.18261719 6.22705078 C34.62122513 6.22693748 34.62122513 6.22693748 33.02828979 6.2268219 C31.90117584 6.22166061 30.77406189 6.21649933 29.61279297 6.21118164 C28.46142853 6.20976669 27.31006409 6.20835175 26.12380981 6.20689392 C22.43521561 6.20128255 18.74668142 6.18872809 15.05810547 6.17602539 C12.56201259 6.17101186 10.06591877 6.1664487 7.56982422 6.16235352 C1.44089738 6.15130942 -4.68799429 6.13456019 -10.81689453 6.11352539 C-7.23150396 1.45251765 -5.86484215 -0.01473578 0 0 Z " fill="#EA4A6D" transform="translate(172.81689453125,163.886474609375)"/>
<path d="M0 0 C0.66 0.66 1.32 1.32 2 2 C1.8125 5.5 1.8125 5.5 1 9 C-2.22143276 11.14762184 -3.2595467 11.561068 -7 11 C-9.2855347 8.87208838 -9.92303658 7.52591672 -10.375 4.4375 C-10 2 -10 2 -8.9375 0.125 C-5.82785011 -1.68060316 -3.38260527 -0.79952488 0 0 Z " fill="#E2ECEC" transform="translate(472,167)"/>
<path d="M0 0 C0.66 0.66 1.32 1.32 2 2 C1.8125 5.5 1.8125 5.5 1 9 C-2.22143276 11.14762184 -3.2595467 11.561068 -7 11 C-9.2855347 8.87208838 -9.92303658 7.52591672 -10.375 4.4375 C-10 2 -10 2 -8.9375 0.125 C-5.82785011 -1.68060316 -3.38260527 -0.79952488 0 0 Z " fill="#E2ECEC" transform="translate(24,79)"/>
<path d="M0 0 C0.66 0.66 1.32 1.32 2 2 C1.8125 5.5 1.8125 5.5 1 9 C-2.22143276 11.14762184 -3.2595467 11.561068 -7 11 C-9.2855347 8.87208838 -9.92303658 7.52591672 -10.375 4.4375 C-10 2 -10 2 -8.9375 0.125 C-5.82785011 -1.68060316 -3.38260527 -0.79952488 0 0 Z " fill="#E2ECEC" transform="translate(496,71)"/>
<path d="M0 0 C0.66 0.66 1.32 1.32 2 2 C1.8125 5.5 1.8125 5.5 1 9 C-2.22143276 11.14762184 -3.2595467 11.561068 -7 11 C-9.2855347 8.87208838 -9.92303658 7.52591672 -10.375 4.4375 C-10 2 -10 2 -8.9375 0.125 C-5.82785011 -1.68060316 -3.38260527 -0.79952488 0 0 Z " fill="#E2ECEC" transform="translate(88,31)"/>
<path d="M0 0 C0.66 0.66 1.32 1.32 2 2 C1.8125 5.5 1.8125 5.5 1 9 C-2.22143276 11.14762184 -3.2595467 11.561068 -7 11 C-9.2855347 8.87208838 -9.92303658 7.52591672 -10.375 4.4375 C-10 2 -10 2 -8.9375 0.125 C-5.82785011 -1.68060316 -3.38260527 -0.79952488 0 0 Z " fill="#E2ECEC" transform="translate(440,15)"/>
<path d="M0 0 C0.66 0.66 1.32 1.32 2 2 C1.8125 5.5 1.8125 5.5 1 9 C-2.22143276 11.14762184 -3.2595467 11.561068 -7 11 C-9.2855347 8.87208838 -9.92303658 7.52591672 -10.375 4.4375 C-10 2 -10 2 -8.9375 0.125 C-5.82785011 -1.68060316 -3.38260527 -0.79952488 0 0 Z " fill="#E2ECEC" transform="translate(192,15)"/>
<path d="M0 0 C1 3 1 3 -0.4375 6.1875 C-1.2109375 7.5796875 -1.2109375 7.5796875 -2 9 C-2.99 9 -3.98 9 -5 9 C-3.50163895 5.88801935 -1.80066242 2.9465385 0 0 Z " fill="#EC5C77" transform="translate(434,369)"/>
</svg>
