<?xml version="1.0" encoding="UTF-8"?>
<svg version="1.1" xmlns="http://www.w3.org/2000/svg" width="512" height="512">
<path d="M0 0 C1.23694667 0.73006521 2.47492113 1.45839159 3.71386719 2.18505859 C6.23377666 3.66642285 8.74770229 5.15719639 11.25683594 6.65673828 C15.54579109 9.21779872 19.86565514 11.72469279 24.18652344 14.23144531 C28.11277517 16.51099392 32.03033015 18.80527844 35.94824219 21.09912109 C40.88008063 23.9863118 45.8145733 26.8689482 50.75 29.75 C52.2201355 30.60827393 52.2201355 30.60827393 53.7199707 31.48388672 C61.23689095 35.86768451 68.77218939 40.21908389 76.3125 44.5625 C83.86708269 48.91554152 91.41705425 53.27567881 98.9375 57.6875 C99.6399585 58.09838867 100.34241699 58.50927734 101.06616211 58.93261719 C105.75436946 61.69186946 105.75436946 61.69186946 106.875 62.8125 C107.35807612 67.71327223 106.46795731 70.1404334 103.5625 74.0625 C102.64017578 75.33867187 102.64017578 75.33867187 101.69921875 76.640625 C99.875 78.8125 99.875 78.8125 96.875 80.8125 C95.76125 80.791875 94.6475 80.77125 93.5 80.75 C89.41548631 80.82042265 88.09126916 81.39132131 84.875 83.8125 C80.76104304 90.4862524 78.31956095 98.03530477 79.875 105.8125 C81.18357018 110.05192359 82.78959423 114.16754225 84.46484375 118.2734375 C90.86428785 134.33409222 86.45358005 153.27471881 79.890625 168.59765625 C77.71597492 173.42216866 75.33265501 178.12698656 72.875 182.8125 C72.26881836 183.97942383 72.26881836 183.97942383 71.65039062 185.16992188 C64.01718491 199.74461196 55.31106899 212.90484054 43.875 224.8125 C43.08351563 225.65554688 42.29203125 226.49859375 41.4765625 227.3671875 C34.39809767 234.71360684 26.66748855 240.65066202 17.875 245.8125 C20.89343094 247.42121674 23.91516561 249.02363049 26.9375 250.625 C27.78505859 251.07681641 28.63261719 251.52863281 29.50585938 251.99414062 C34.22397682 254.48982437 38.93318897 256.79420269 43.875 258.8125 C44.25785156 257.77029297 44.25785156 257.77029297 44.6484375 256.70703125 C46.02465828 253.45932551 47.70039313 250.53267084 49.5 247.5 C50.13164062 246.43136719 50.76328125 245.36273438 51.4140625 244.26171875 C51.89617187 243.45347656 52.37828125 242.64523437 52.875 241.8125 C52.48828125 242.40417969 52.1015625 242.99585938 51.703125 243.60546875 C43.87848432 255.47800523 43.87848432 255.47800523 39.875 256.8125 C36.6875 255.375 36.6875 255.375 33.875 253.8125 C34.28868024 247.77120748 36.1332979 244.11353631 39.5625 239.1875 C40.19575195 238.22457031 40.19575195 238.22457031 40.84179688 237.2421875 C44.07435855 232.48354467 47.63638526 228.43180737 52.875 225.8125 C58.14383876 225.21376832 60.7596468 226.55849979 64.875 229.8125 C66.07357963 232.20965925 66.07584509 233.82515376 66.125 236.5 C66.15078125 237.32886719 66.1765625 238.15773438 66.203125 239.01171875 C65.76989486 242.70964743 64.45292676 245.4448721 62.875 248.8125 C82.91451174 238.5120787 98.63614697 229.57520939 106.7578125 207.40234375 C108.53326812 200.71312714 108.05066436 193.67316899 107.875 186.8125 C101.25480372 190.26157173 96.7389011 192.77207646 93.875 199.8125 C93.27867092 202.16683819 92.77113741 204.49968533 92.3671875 206.89453125 C91.875 208.8125 91.875 208.8125 89.875 210.8125 C86.81827525 210.61738991 84.6485618 210.4056236 82.18359375 208.515625 C80.52352365 206.35505616 80.56387992 205.42854947 80.875 202.75 C82.19248613 193.95721215 87.03764141 185.50215488 94.09765625 180.1171875 C98.93718366 176.90080916 102.94824305 174.90817041 108.8359375 175.35546875 C113.13489386 176.31902793 115.8582766 178.5052842 118.515625 181.921875 C120.35077129 185.82419758 120.32801474 189.11494953 120.25 193.375 C120.2336853 194.57817871 120.2336853 194.57817871 120.21704102 195.80566406 C119.76233535 212.90259723 112.38335436 228.40257712 100.2590332 240.41333008 C94.71834464 245.56361782 88.57079671 249.05392313 81.9375 252.625 C79.68673353 253.86058397 77.43673396 255.09756597 75.1875 256.3359375 C74.09953125 256.93245117 73.0115625 257.52896484 71.890625 258.14355469 C68.03197403 260.27905809 64.22655609 262.49392808 60.4375 264.75 C53.46790995 268.88668906 46.4599738 272.95371994 39.4375 277 C38.33027588 277.63800537 37.22305176 278.27601074 36.08227539 278.93334961 C33.81162932 280.24139477 31.54087642 281.54925448 29.27001953 282.85693359 C23.8033002 286.00582054 18.33925113 289.15933264 12.875 292.3125 C10.70834689 293.5625235 8.54168021 294.81252347 6.375 296.0625 C5.3025 296.68125 4.23 297.3 3.125 297.9375 C-6.62499999 303.5625 -6.62499999 303.5625 -9.87548828 305.43774414 C-12.04057071 306.68685518 -14.20560982 307.93604129 -16.37060547 309.18530273 C-21.81115706 312.32452309 -27.25247216 315.46240563 -32.6953125 318.59765625 C-43.14706199 324.61997329 -53.58799548 330.65919337 -64 336.75 C-73.26999777 342.17171178 -82.58331752 347.51454915 -91.91345215 352.83172607 C-101.03411906 358.03083683 -110.11880592 363.28872388 -119.1809082 368.58935547 C-128.70694651 374.15959226 -138.25879782 379.68416579 -147.828125 385.1796875 C-151.91879176 387.53100576 -155.99010911 389.91101257 -160.046875 392.3203125 C-161.44643433 393.14281494 -161.44643433 393.14281494 -162.87426758 393.98193359 C-164.59369103 394.9928815 -166.30767253 396.01317987 -168.0144043 397.04541016 C-176.19755546 401.82491977 -185.72882798 405.42914962 -195.26953125 403.34375 C-203.63715942 400.94892626 -209.60702872 396.46272543 -214.1171875 389.03515625 C-218.12483388 380.1965873 -218.69166269 369.82037164 -216.25 360.45703125 C-212.03925046 349.75009246 -206.30795242 341.38394901 -196.125 335.8125 C-195.45339844 335.43996094 -194.78179687 335.06742187 -194.08984375 334.68359375 C-190.78773422 333.21963664 -187.61375633 333.1879306 -184.125 333.8125 C-178.95950708 336.12362072 -174.55907175 339.16213554 -172.4375 344.5625 C-170.94578751 355.30282996 -174.08910768 364.92158407 -180.125 373.8125 C-183.92513059 378.66094248 -187.52741814 383.0357468 -193.125 385.8125 C-199.44642857 385.49107143 -199.44642857 385.49107143 -202.125 382.8125 C-202.0245082 379.10435269 -201.7054701 377.37792087 -199.015625 374.7578125 C-197.70851562 373.85675781 -197.70851562 373.85675781 -196.375 372.9375 C-190.74148464 368.73855651 -187.34763584 364.48040753 -185.125 357.8125 C-185.05562938 355.58431559 -185.04042916 353.35415476 -185.0625 351.125 C-185.07152344 349.94550781 -185.08054688 348.76601563 -185.08984375 347.55078125 C-185.10144531 346.64714844 -185.11304688 345.74351562 -185.125 344.8125 C-185.81207031 345.16183594 -186.49914062 345.51117188 -187.20703125 345.87109375 C-188.10808594 346.32613281 -189.00914062 346.78117187 -189.9375 347.25 C-191.27748047 347.92869141 -191.27748047 347.92869141 -192.64453125 348.62109375 C-195.125 349.8125 -195.125 349.8125 -198.125 350.8125 C-199.24653356 352.64324675 -199.24653356 352.64324675 -200.125 354.8125 C-200.63740234 355.81990234 -200.63740234 355.81990234 -201.16015625 356.84765625 C-201.49917969 357.51667969 -201.83820313 358.18570312 -202.1875 358.875 C-202.69990234 359.88240234 -202.69990234 359.88240234 -203.22265625 360.91015625 C-206.20677255 367.20134515 -205.89891063 374.05828995 -203.875 380.625 C-202.28821865 384.87396429 -200.32232812 388.71383594 -196.125 390.8125 C-193.79600924 391.08889405 -193.79600924 391.08889405 -191.125 391.125 C-190.238125 391.16238281 -189.35125 391.19976562 -188.4375 391.23828125 C-178.9648479 390.020688 -170.7361633 384.49193286 -162.6875 379.6875 C-161.07584961 378.73810547 -161.07584961 378.73810547 -159.43164062 377.76953125 C-153.71427626 374.39355037 -153.71427626 374.39355037 -148.125 370.8125 C-148.84816406 370.23242188 -148.84816406 370.23242188 -149.5859375 369.640625 C-150.21757812 369.11984375 -150.84921875 368.5990625 -151.5 368.0625 C-152.12648437 367.55203125 -152.75296875 367.0415625 -153.3984375 366.515625 C-156.52985782 363.42671264 -157.42841152 360.59542075 -157.5 356.25 C-157.27413878 346.66501437 -153.27368903 338.96547491 -147.125 331.8125 C-148.14078125 331.73773438 -149.1565625 331.66296875 -150.203125 331.5859375 C-151.59386935 331.4543806 -152.98448842 331.32149475 -154.375 331.1875 C-155.36886719 331.11982422 -155.36886719 331.11982422 -156.3828125 331.05078125 C-167.30389209 329.91746167 -177.00255024 322.85784024 -186.25 317.375 C-188.33426871 316.14911588 -190.4189186 314.92387969 -192.50390625 313.69921875 C-193.57914551 313.06677246 -194.65438477 312.43432617 -195.76220703 311.78271484 C-201.55424599 308.38923768 -207.37090634 305.03865955 -213.1875 301.6875 C-214.27498535 301.06045166 -215.3624707 300.43340332 -216.48291016 299.78735352 C-218.4909702 298.63001965 -220.50184081 297.47754205 -222.51611328 296.33105469 C-224.1149966 295.40039268 -225.69692813 294.43876479 -227.24560547 293.42675781 C-230.6453768 291.19044072 -230.6453768 291.19044072 -234.57421875 291.296875 C-235.41597656 291.79703125 -236.25773437 292.2971875 -237.125 292.8125 C-238.31822795 293.44418859 -239.5123257 294.07423545 -240.70703125 294.703125 C-242.11934073 295.48571001 -243.52934671 296.27246097 -244.9375 297.0625 C-245.71230713 297.49506104 -246.48711426 297.92762207 -247.28540039 298.37329102 C-253.91848317 302.09565392 -260.49474716 305.91383289 -267.0625 309.75 C-268.07618652 310.34176025 -269.08987305 310.93352051 -270.13427734 311.54321289 C-274.9539588 314.36079574 -279.76564421 317.19059744 -284.5625 320.046875 C-285.40949463 320.54711182 -286.25648926 321.04734863 -287.12915039 321.56274414 C-288.68982232 322.48455368 -290.24668056 323.41286887 -291.79858398 324.34936523 C-301.27101212 329.92233753 -310.07576288 332.11831893 -321.125 330.8125 C-329.21208136 328.43911743 -335.04207654 323.22752424 -339.18359375 315.953125 C-343.42027718 306.79053691 -343.38128641 295.73879871 -340.16015625 286.28515625 C-336.01681156 276.38803479 -329.29751277 266.85170322 -319.19140625 262.44140625 C-314.53600787 261.02454587 -310.42510786 260.87081821 -305.8828125 262.73046875 C-301.36452628 265.28752084 -298.61352135 267.69570786 -297.125 272.8125 C-295.75717158 284.62084153 -299.1841706 294.09322797 -306.19921875 303.51171875 C-310.01162045 308.06649482 -313.68771771 311.96882536 -319.375 313.9375 C-322.125 313.8125 -322.125 313.8125 -324.5 312.75 C-326.125 310.8125 -326.125 310.8125 -326.51953125 307.93359375 C-326.125 304.8125 -326.125 304.8125 -324.11328125 302.7578125 C-322.78876953 301.85675781 -322.78876953 301.85675781 -321.4375 300.9375 C-314.9597195 296.13642931 -310.98561273 290.76239076 -309.125 282.8125 C-308.78183985 278.15034084 -308.78183985 278.15034084 -310.125 273.8125 C-315.94159045 273.8125 -319.05081765 276.76735609 -323.0703125 280.5703125 C-328.18605055 286.15288596 -330.22505623 292.27076176 -330.125 299.8125 C-329.5362602 306.57249444 -327.67759872 312.63847831 -323.125 317.8125 C-320.3562945 318.73540183 -318.44260906 319.03716361 -315.5625 319.125 C-314.77746094 319.16238281 -313.99242187 319.19976562 -313.18359375 319.23828125 C-303.86093829 317.94049141 -295.63914545 312.46226742 -287.6875 307.75 C-286.61306641 307.12544922 -285.53863281 306.50089844 -284.43164062 305.85742188 C-278.33683719 302.40902073 -278.33683719 302.40902073 -273.125 297.8125 C-273.84816406 297.26722656 -273.84816406 297.26722656 -274.5859375 296.7109375 C-278.67264075 293.45825532 -281.29778413 291.18940315 -282.125 285.8125 C-282.33353044 277.93004922 -279.68780795 271.72776561 -276.125 264.8125 C-277.21039063 264.24402344 -278.29578125 263.67554688 -279.4140625 263.08984375 C-296.48679192 253.96716296 -296.48679192 253.96716296 -298.83813477 246.56860352 C-300.55601586 238.42127128 -299.64462067 231.26123286 -298.1875 223.125 C-298.07274323 222.46397278 -297.95798645 221.80294556 -297.8397522 221.12188721 C-294.44434411 201.77581452 -286.9405314 186.91085097 -273.44140625 172.47265625 C-268.83522503 167.18292705 -264.26834127 161.09918253 -261.125 154.8125 C-261.93324219 154.58175781 -262.74148438 154.35101563 -263.57421875 154.11328125 C-267.98462476 152.49758796 -271.88097775 150.34814886 -275.9375 148 C-276.71287109 147.57396484 -277.48824219 147.14792969 -278.28710938 146.70898438 C-283.75641365 143.54607088 -283.75641365 143.54607088 -285.32421875 140.42578125 C-284.73247523 132.66349858 -279.9761171 127.96926843 -274.8125 122.625 C-274.16087891 121.92697266 -273.50925781 121.22894531 -272.83789062 120.50976562 C-267.29796608 114.68147664 -262.12913555 109.85779006 -253.734375 109.33203125 C-246.61708652 109.42093293 -241.35001985 112.94761119 -235.375 116.5 C-234.18177529 117.18912351 -232.98750255 117.87643526 -231.79223633 118.56201172 C-228.22066861 120.61917419 -224.67274418 122.7145236 -221.125 124.8125 C-219.16581281 125.95779834 -217.20620889 127.10238426 -215.24609375 128.24609375 C-210.78075229 130.86228831 -206.33321596 133.50718004 -201.89111328 136.16259766 C-196.8541121 139.16701548 -191.80083725 142.14392355 -186.75 145.125 C-184.88795582 146.22515038 -183.02597029 147.32540006 -181.1640625 148.42578125 C-180.38240723 148.88766846 -179.60075195 149.34955566 -178.79541016 149.82543945 C-178.2441748 150.15116943 -177.69293945 150.47689941 -177.125 150.8125 C-177.66876829 145.09396844 -177.66876829 145.09396844 -180.625 140.375 C-183.9278084 136.0765624 -184.35698708 131.98893853 -183.97265625 126.7265625 C-182.32995371 116.50120062 -175.8915029 107.40968107 -168.125 100.8125 C-164.9607032 98.61566497 -161.66411147 96.70790453 -158.3125 94.8125 C-157.36036621 94.26198975 -156.40823242 93.71147949 -155.42724609 93.14428711 C-153.38674139 91.96618377 -151.34335761 90.7930553 -149.29736328 89.62451172 C-146.10773932 87.80264093 -142.92594235 85.9677789 -139.74609375 84.12890625 C-135.39012854 81.61090659 -131.03205226 79.09663653 -126.671875 76.5859375 C-106.71195873 65.12721052 -106.71195873 65.12721052 -87 53.25 C-86.37915527 52.8686792 -85.75831055 52.4873584 -85.11865234 52.09448242 C-73.69822488 44.93243849 -67.42822428 35.40103445 -61.1875 23.75 C-57.29930382 16.53034189 -53.10816209 10.50214848 -47.125 4.8125 C-46.56554687 4.2453125 -46.00609375 3.678125 -45.4296875 3.09375 C-30.62517633 -10.92404802 -16.33537914 -9.88165368 0 0 Z M-0.6875 262 C-6.98265298 269.26363806 -12.29646681 276.97406415 -17.375 285.125 C-18.5870984 287.05949881 -19.80058673 288.99312759 -21.015625 290.92578125 C-21.54188477 291.76923096 -22.06814453 292.61268066 -22.61035156 293.48168945 C-24.03126663 295.66825879 -25.53393472 297.74750671 -27.125 299.8125 C-26.795 300.4725 -26.465 301.1325 -26.125 301.8125 C-25.23868896 301.29417603 -25.23868896 301.29417603 -24.33447266 300.76538086 C-14.59945385 295.07432584 -4.86397916 289.38434511 4.90625 283.75390625 C5.48098053 283.42269272 6.05571106 283.09147919 6.64785767 282.75022888 C9.4197483 281.15340282 12.1925751 279.55822257 14.96630859 277.96459961 C21.31053994 274.3140336 27.61370968 270.60364445 33.875 266.8125 C30.08728967 263.86853986 26.14972651 261.76623529 21.875 259.625 C20.80765625 259.07295898 20.80765625 259.07295898 19.71875 258.50976562 C19.0278125 258.16236328 18.336875 257.81496094 17.625 257.45703125 C17.00109375 257.14096924 16.3771875 256.82490723 15.734375 256.49926758 C9.54154107 254.21191965 3.88514431 258.09652315 -0.6875 262 Z M-20.125 266.8125 C-22.46280945 267.85850259 -22.46280945 267.85850259 -25.09375 269.46875 C-26.12822266 270.07243408 -27.16269531 270.67611816 -28.22851562 271.2980957 C-29.34935547 271.96284912 -30.47019531 272.62760254 -31.625 273.3125 C-32.78273225 273.99193255 -33.94094199 274.67055208 -35.09960938 275.34838867 C-36.90919139 276.40743715 -38.71825486 277.46730845 -40.5255127 278.53031921 C-44.85493023 281.07635961 -49.20255091 283.58867722 -53.5625 286.08203125 C-54.15905396 286.42366302 -54.75560791 286.7652948 -55.37023926 287.11727905 C-58.2526932 288.76797462 -61.1362608 290.41664504 -64.02148438 292.0625 C-65.05595703 292.65675781 -66.09042969 293.25101562 -67.15625 293.86328125 C-68.06955078 294.38575439 -68.98285156 294.90822754 -69.92382812 295.4465332 C-72.22024595 296.75576382 -72.22024595 296.75576382 -74.125 298.8125 C-70.37866605 300.79866441 -66.6273371 302.77520371 -62.875 304.75 C-61.27978516 305.59594727 -61.27978516 305.59594727 -59.65234375 306.45898438 C-58.62753906 306.99716797 -57.60273438 307.53535156 -56.546875 308.08984375 C-55.13293457 308.83609009 -55.13293457 308.83609009 -53.69042969 309.59741211 C-51.47140307 310.64842995 -49.52194074 311.33656423 -47.125 311.8125 C-46.53074219 310.9059668 -45.93648438 309.99943359 -45.32421875 309.06542969 C-43.0807066 305.64324918 -40.83658021 302.2214718 -38.59228516 298.79980469 C-37.62825512 297.32985939 -36.66438307 295.85981047 -35.70068359 294.38964844 C-29.87761231 285.50658652 -24.03438927 276.63848613 -18.125 267.8125 C-18.785 267.4825 -19.445 267.1525 -20.125 266.8125 Z M-266.125 270.8125 C-269.60021671 274.84375138 -270.52963839 278.46877071 -270.48046875 283.80859375 C-269.87221215 287.2375568 -267.78775346 288.76899153 -265.125 290.8125 C-264.135 291.1425 -263.145 291.4725 -262.125 291.8125 C-260.78621428 289.6907637 -259.45384524 287.56544812 -258.125 285.4375 C-257.7434375 284.83421875 -257.361875 284.2309375 -256.96875 283.609375 C-254.82815431 280.45133287 -254.82815431 280.45133287 -254.125 276.8125 C-256.30251179 275.21472476 -256.30251179 275.21472476 -259 273.6875 C-259.90492188 273.14867187 -260.80984375 272.60984375 -261.7421875 272.0546875 C-263.97272022 270.6584107 -263.97272022 270.6584107 -266.125 270.8125 Z M-95.9375 319 C-100.79650523 325.40726541 -104.96866853 332.29591441 -109.1953125 339.12890625 C-112.06676852 343.76163892 -115.07394219 348.29653033 -118.125 352.8125 C-114.59900087 352.8125 -113.25346975 351.96633374 -110.20703125 350.2421875 C-109.21123047 349.68200928 -108.21542969 349.12183105 -107.18945312 348.54467773 C-105.57973633 347.62537476 -105.57973633 347.62537476 -103.9375 346.6875 C-102.83212891 346.06238525 -101.72675781 345.43727051 -100.58789062 344.79321289 C-91.74368572 339.77602036 -82.94933584 334.67278204 -74.18286133 329.52099609 C-68.53923347 326.20479428 -62.86476193 322.95962564 -57.125 319.8125 C-60.10515831 316.65244155 -63.52739441 314.68722994 -67.3125 312.625 C-68.26479492 312.07295898 -68.26479492 312.07295898 -69.23632812 311.50976562 C-80.15270134 305.56039741 -88.40080743 310.09016262 -95.9375 319 Z M-119.75 323.3125 C-120.45640625 323.64636719 -121.1628125 323.98023438 -121.890625 324.32421875 C-123.63703864 325.1502252 -125.38123234 325.98092223 -127.125 326.8125 C-122.51264553 329.97073682 -122.51264553 329.97073682 -117.13671875 330.609375 C-114.48868842 329.56044648 -113.80116924 328.30917157 -112.375 325.875 C-111.94703125 325.16472656 -111.5190625 324.45445312 -111.078125 323.72265625 C-109.97617283 321.87002686 -109.97617283 321.87002686 -110.125 319.8125 C-113.61314833 319.8125 -116.64779472 321.83008087 -119.75 323.3125 Z M-136.9375 338.125 C-141.94820618 341.73792053 -145.03573929 346.96751072 -146.1875 353 C-146.43758436 356.81996817 -146.43758436 356.81996817 -144.4375 359.6875 C-142.33815256 361.61663008 -140.66783407 362.62405966 -138.125 363.8125 C-128.39202016 352.66701321 -128.39202016 352.66701321 -123.125 339.8125 C-129.96709377 336.82117649 -129.96709377 336.82117649 -136.9375 338.125 Z " fill="#EF8500" transform="translate(367.125,58.1875)"/>
<path d="M0 0 C1.23694667 0.73006521 2.47492113 1.45839159 3.71386719 2.18505859 C6.23377666 3.66642285 8.74770229 5.15719639 11.25683594 6.65673828 C15.54579109 9.21779872 19.86565514 11.72469279 24.18652344 14.23144531 C28.11277517 16.51099392 32.03033015 18.80527844 35.94824219 21.09912109 C55.87034026 32.76189088 75.82105814 44.37748634 95.875 55.8125 C95.875 56.1425 95.875 56.4725 95.875 56.8125 C94.81925781 56.79896484 94.81925781 56.79896484 93.7421875 56.78515625 C81.40539949 57.155582 70.97789436 62.68010201 62.17578125 71.1796875 C56.8138076 77.3154604 52.75894295 84.35359968 48.8515625 91.47265625 C40.00616633 107.58609223 28.62033898 116.27867958 12.875 125.3125 C11.85768799 125.9005542 10.84037598 126.4886084 9.79223633 127.09448242 C7.62509175 128.34657744 5.45685104 129.59677689 3.28759766 130.84521484 C0.3403204 132.54425334 -2.60270082 134.2502042 -5.54324341 135.96084595 C-7.92841722 137.34826131 -10.31502385 138.73319897 -12.7019043 140.11767578 C-14.4133613 141.11099011 -16.12368136 142.10626253 -17.83398438 143.1015625 C-18.87490234 143.70355469 -19.91582031 144.30554688 -20.98828125 144.92578125 C-21.90907471 145.45985596 -22.82986816 145.99393066 -23.77856445 146.54418945 C-26.125 147.8125 -26.125 147.8125 -29.125 148.8125 C-31.01245117 148.04663086 -31.01245117 148.04663086 -33.16796875 146.77734375 C-34.38963745 146.06831909 -34.38963745 146.06831909 -35.63598633 145.3449707 C-36.51923584 144.81863037 -37.40248535 144.29229004 -38.3125 143.75 C-39.23506592 143.21141357 -40.15763184 142.67282715 -41.1081543 142.11791992 C-43.08997483 140.95963121 -45.06913451 139.79678029 -47.04589844 138.62988281 C-50.12170603 136.8144442 -53.20408851 135.0107498 -56.2890625 133.2109375 C-57.81478882 132.32075928 -57.81478882 132.32075928 -59.37133789 131.41259766 C-63.36936451 129.08171535 -67.36828341 126.75236624 -71.36767578 124.42382812 C-73.93709363 122.92230893 -76.49828926 121.40760934 -79.05859375 119.890625 C-80.49702547 119.05144818 -81.93580029 118.21285902 -83.375 117.375 C-84.01219971 116.99126221 -84.64939941 116.60752441 -85.3059082 116.2121582 C-88.44224471 114.30348036 -88.44224471 114.30348036 -91.98657227 114.05078125 C-94.63066917 114.99262191 -96.94062674 116.24212199 -99.38671875 117.62109375 C-100.41595459 118.19907715 -101.44519043 118.77706055 -102.50561523 119.37255859 C-103.59688721 119.99211426 -104.68815918 120.61166992 -105.8125 121.25 C-106.92633057 121.87729004 -108.04016113 122.50458008 -109.18774414 123.15087891 C-116.57448685 127.32430609 -123.91701884 131.56853948 -131.17260742 135.96655273 C-135.91464516 138.8125 -135.91464516 138.8125 -138.125 138.8125 C-138.125 139.4725 -138.125 140.1325 -138.125 140.8125 C-137.04702148 141.21843384 -137.04702148 141.21843384 -135.94726562 141.63256836 C-133.13648008 142.80770041 -130.60268466 144.16307678 -127.96875 145.69140625 C-126.95997803 146.27486816 -125.95120605 146.85833008 -124.91186523 147.45947266 C-123.82719971 148.09159668 -122.74253418 148.7237207 -121.625 149.375 C-120.49457275 150.03032715 -119.36414551 150.6856543 -118.19946289 151.36083984 C-108.0804153 157.23102439 -97.99019419 163.15125281 -87.91015625 169.08813477 C-81.69324631 172.7463596 -75.45669575 176.35584247 -69.125 179.8125 C-69.455 180.699375 -69.785 181.58625 -70.125 182.5 C-71.90541672 188.96710193 -72.75735621 196.43390225 -69.78125 202.59375 C-68.69273963 204.25732246 -67.59531525 205.91510256 -66.48828125 207.56640625 C-64.906962 210.17173165 -64.21287401 212.40019679 -64.4765625 215.4765625 C-67.08164124 224.86112328 -71.45099536 231.91273061 -79.125 237.8125 C-80.60303446 236.98207311 -82.08084987 236.15125636 -83.55859375 235.3203125 C-84.51032471 234.78631836 -85.46205566 234.25232422 -86.44262695 233.70214844 C-88.53791729 232.51701982 -90.62626405 231.31953756 -92.70776367 230.11035156 C-97.51297489 227.33031241 -102.21484403 224.68289333 -107.3671875 222.6015625 C-116.30132511 218.76986979 -116.30132511 218.76986979 -119.125 214.8125 C-120.99842471 208.54841046 -120.89071763 202.19154091 -120.796875 195.7109375 C-120.85147694 189.88981517 -122.06553305 186.04908382 -126.125 181.8125 C-128.37041431 180.04542698 -130.35832628 179.06108101 -133 177.8125 C-134.17304688 177.235 -135.34609375 176.6575 -136.5546875 176.0625 C-141.30873996 174.3980615 -145.11614621 174.33694296 -150.00439453 175.49414062 C-153.82925072 175.88434658 -155.22271078 175.12337865 -158.484375 173.15625 C-159.50418457 172.55353271 -160.52399414 171.95081543 -161.57470703 171.32983398 C-162.66380371 170.66411377 -163.75290039 169.99839355 -164.875 169.3125 C-166.03003617 168.62331679 -167.18614448 167.93592756 -168.34326172 167.25024414 C-170.74767646 165.82360323 -173.14728913 164.38934033 -175.54394531 162.94970703 C-181.06860136 159.64054967 -186.66340801 156.45301883 -192.25 153.25 C-203.54078787 146.74285602 -214.80056438 140.18321039 -226.05175781 133.60791016 C-231.57446075 130.38150744 -237.09992772 127.15984302 -242.625 123.9375 C-244.65626128 122.75262351 -246.68751238 121.56772956 -248.71875 120.3828125 C-249.57146484 119.88539551 -250.42417969 119.38797852 -251.30273438 118.87548828 C-252.20475586 118.34930908 -252.20475586 118.34930908 -253.125 117.8125 C-251.42609078 115.7125517 -250.48182516 114.88786183 -247.80151367 114.32177734 C-239.94842592 114.18097218 -235.03090919 116.34576268 -228.4375 120.4375 C-227.4578125 121.01854492 -226.478125 121.59958984 -225.46875 122.19824219 C-223.39886742 123.42715278 -221.33464515 124.66564186 -219.27587891 125.91308594 C-215.11512775 128.42127158 -210.90986048 130.84901214 -206.70385742 133.28027344 C-196.78372047 139.02264119 -186.9286787 144.87373309 -177.125 150.8125 C-177.66876829 145.09396844 -177.66876829 145.09396844 -180.625 140.375 C-183.9278084 136.0765624 -184.35698708 131.98893853 -183.97265625 126.7265625 C-182.32995371 116.50120062 -175.8915029 107.40968107 -168.125 100.8125 C-164.9607032 98.61566497 -161.66411147 96.70790453 -158.3125 94.8125 C-157.36036621 94.26198975 -156.40823242 93.71147949 -155.42724609 93.14428711 C-153.38674139 91.96618377 -151.34335761 90.7930553 -149.29736328 89.62451172 C-146.10773932 87.80264093 -142.92594235 85.9677789 -139.74609375 84.12890625 C-135.39012854 81.61090659 -131.03205226 79.09663653 -126.671875 76.5859375 C-106.71195873 65.12721052 -106.71195873 65.12721052 -87 53.25 C-86.37915527 52.8686792 -85.75831055 52.4873584 -85.11865234 52.09448242 C-73.69822488 44.93243849 -67.42822428 35.40103445 -61.1875 23.75 C-57.29930382 16.53034189 -53.10816209 10.50214848 -47.125 4.8125 C-46.56554687 4.2453125 -46.00609375 3.678125 -45.4296875 3.09375 C-30.62517633 -10.92404802 -16.33537914 -9.88165368 0 0 Z " fill="#EC474D" transform="translate(367.125,58.1875)"/>
<path d="M0 0 C0.66 0 1.32 0 2 0 C8.46195448 13.38547713 10.35296588 25.33439052 6.08203125 39.921875 C-0.91414482 59.82435422 -11.10176027 80.05920747 -25 96 C-25.84820312 97.00804687 -26.69640625 98.01609375 -27.5703125 99.0546875 C-40.15753361 113.69217908 -55.8260499 122.64364784 -72.50108337 131.92680359 C-78.7473686 135.40593868 -84.93832614 138.97856077 -91.125 142.5625 C-93.27331842 143.80359156 -95.42175586 145.04447713 -97.5703125 146.28515625 C-98.63024414 146.89762207 -99.69017578 147.51008789 -100.78222656 148.14111328 C-106.18670649 151.26324607 -111.59350107 154.38136526 -117 157.5 C-118.07121094 158.11810547 -119.14242187 158.73621094 -120.24609375 159.37304688 C-125.68646075 162.51222374 -131.12762955 165.64999629 -136.5703125 168.78515625 C-138.7552286 170.04423567 -140.94012452 171.3033501 -143.125 172.5625 C-144.72625732 173.48470337 -144.72625732 173.48470337 -146.35986328 174.42553711 C-151.76803966 177.54399779 -157.16577138 180.67877333 -162.546875 183.84375 C-163.61019043 184.46822021 -164.67350586 185.09269043 -165.76904297 185.73608398 C-167.75967033 186.90664547 -169.74845299 188.08035309 -171.73486328 189.25805664 C-184.73171539 196.89805143 -197.49465152 204.282026 -212.875 204.4375 C-213.58873779 204.44765137 -214.30247559 204.45780273 -215.0378418 204.46826172 C-219.73466251 204.3899538 -223.03536726 203.51487898 -227 201 C-231.26622529 194.60066207 -229.30491427 185.73107552 -227.97241211 178.46533203 C-224.85415048 163.42999303 -218.28069272 151.38614355 -208 140 C-207.32195312 139.20335937 -206.64390625 138.40671875 -205.9453125 137.5859375 C-200.45900376 131.14350857 -200.45900376 131.14350857 -195.1875 130.625 C-191.90764418 130.38392743 -191.0623873 130.94905991 -188.4453125 133.0859375 C-185.78453017 136.25677395 -184.33277489 139.21137694 -182.6875 143 C-179.95920431 148.89010163 -177.22794962 152.70143715 -171 155 C-159.76462974 158.34574406 -150.2227037 154.45684948 -140 150 C-138.88625 149.52046875 -137.7725 149.0409375 -136.625 148.546875 C-125.18960422 143.2375841 -118.01486253 136.03244215 -112 125 C-111.34644531 123.84757812 -111.34644531 123.84757812 -110.6796875 122.671875 C-107.00584187 115.11865391 -106.7419324 106.22165266 -108 98 C-109.09090808 94.9139748 -110.40443153 92.17442684 -111.9296875 89.28515625 C-113.59206497 85.73591968 -113.3073381 83.64678523 -112 80 C-106.14171095 69.2883109 -94.23069236 63.8025988 -84 58 C-82.28106585 57.0164506 -80.56213572 56.03289408 -78.84344482 55.04891968 C-77.07161557 54.03533876 -75.29863487 53.02379836 -73.52539062 52.01269531 C-64.70192025 46.97895588 -55.90815019 41.89332245 -47.11767578 36.80224609 C-45.0581157 35.61166876 -42.99662282 34.42442796 -40.93310547 33.24072266 C-17.0634937 20.38093248 -17.0634937 20.38093248 0 0 Z " fill="#B70000" transform="translate(431,170)"/>
<path d="M0 0 C4.96021708 1.78367402 9.46299933 4.33169971 14.0625 6.875 C15.39087891 7.60746948 15.39087891 7.60746948 16.74609375 8.35473633 C23.56553814 12.14298115 30.25972267 16.1131373 36.92724609 20.16113281 C44.27703204 24.60703692 51.72190445 28.87797572 59.1875 33.125 C72.8891611 40.92230428 86.50771912 48.84496045 100 57 C97.70001012 59.5138022 95.31694089 61.12931764 92.37109375 62.828125 C91.43031982 63.37380127 90.4895459 63.91947754 89.52026367 64.48168945 C88.50295166 65.06523193 87.48563965 65.64877441 86.4375 66.25 C85.38860596 66.85610107 84.33971191 67.46220215 83.2590332 68.08666992 C81.01558496 69.38243897 78.77099785 70.67623785 76.52539062 71.96826172 C73.5289888 73.69310496 70.53851942 75.42795721 67.55003357 77.16647339 C65.17307323 78.5491699 62.7946905 79.92940705 60.41604614 81.3092041 C58.70752439 82.30087729 57.00011752 83.29447045 55.29272461 84.28808594 C54.25124268 84.89040039 53.20976074 85.49271484 52.13671875 86.11328125 C51.21592529 86.64735596 50.29513184 87.18143066 49.34643555 87.73168945 C47 89 47 89 44 90 C42.11254883 89.23413086 42.11254883 89.23413086 39.95703125 87.96484375 C38.73536255 87.25581909 38.73536255 87.25581909 37.48901367 86.5324707 C36.60576416 86.00613037 35.72251465 85.47979004 34.8125 84.9375 C33.88993408 84.39891357 32.96736816 83.86032715 32.0168457 83.30541992 C30.03502517 82.14713121 28.05586549 80.98428029 26.07910156 79.81738281 C23.00329397 78.0019442 19.92091149 76.1982498 16.8359375 74.3984375 C15.81878662 73.80498535 14.80163574 73.2115332 13.75366211 72.60009766 C9.75563549 70.26921535 5.75671659 67.93986624 1.75732422 65.61132812 C-0.81209363 64.10980893 -3.37328926 62.59510934 -5.93359375 61.078125 C-7.37202547 60.23894818 -8.81080029 59.40035902 -10.25 58.5625 C-10.88719971 58.17876221 -11.52439941 57.79502441 -12.1809082 57.3996582 C-15.31724471 55.49098036 -15.31724471 55.49098036 -18.86157227 55.23828125 C-21.50566917 56.18012191 -23.81562674 57.42962199 -26.26171875 58.80859375 C-27.29095459 59.38657715 -28.32019043 59.96456055 -29.38061523 60.56005859 C-30.47188721 61.17961426 -31.56315918 61.79916992 -32.6875 62.4375 C-33.80133057 63.06479004 -34.91516113 63.69208008 -36.06274414 64.33837891 C-43.44948685 68.51180609 -50.79201884 72.75603948 -58.04760742 77.15405273 C-62.78964516 80 -62.78964516 80 -65 80 C-65 80.66 -65 81.32 -65 82 C-64.28134766 82.27062256 -63.56269531 82.54124512 -62.82226562 82.82006836 C-60.01148008 83.99520041 -57.47768466 85.35057678 -54.84375 86.87890625 C-53.83497803 87.46236816 -52.82620605 88.04583008 -51.78686523 88.64697266 C-50.70219971 89.27909668 -49.61753418 89.9112207 -48.5 90.5625 C-47.36957275 91.21782715 -46.23914551 91.8731543 -45.07446289 92.54833984 C-34.9554153 98.41852439 -24.86519419 104.33875281 -14.78515625 110.27563477 C-8.56824631 113.9338596 -2.33169575 117.54334247 4 121 C3.67 121.886875 3.34 122.77375 3 123.6875 C1.21958328 130.15460193 0.36764379 137.62140225 3.34375 143.78125 C4.43226037 145.44482246 5.52968475 147.10260256 6.63671875 148.75390625 C8.218038 151.35923165 8.91212599 153.58769679 8.6484375 156.6640625 C6.04335876 166.04862328 1.67400464 173.10023061 -6 179 C-7.47803446 178.16957311 -8.95584987 177.33875636 -10.43359375 176.5078125 C-11.38532471 175.97381836 -12.33705566 175.43982422 -13.31762695 174.88964844 C-15.41291729 173.70451982 -17.50126405 172.50703756 -19.58276367 171.29785156 C-24.38797489 168.51781241 -29.08984403 165.87039333 -34.2421875 163.7890625 C-43.17632511 159.95736979 -43.17632511 159.95736979 -46 156 C-47.87342471 149.73591046 -47.76571763 143.37904091 -47.671875 136.8984375 C-47.72647694 131.07731517 -48.94053305 127.23658382 -53 123 C-55.24541431 121.23292698 -57.23332628 120.24858101 -59.875 119 C-61.63457031 118.13375 -61.63457031 118.13375 -63.4296875 117.25 C-68.18373996 115.5855615 -71.99114621 115.52444296 -76.87939453 116.68164062 C-80.70425072 117.07184658 -82.09771078 116.31087865 -85.359375 114.34375 C-86.37918457 113.74103271 -87.39899414 113.13831543 -88.44970703 112.51733398 C-89.53880371 111.85161377 -90.62790039 111.18589355 -91.75 110.5 C-92.90503617 109.81081679 -94.06114448 109.12342756 -95.21826172 108.43774414 C-97.62267646 107.01110323 -100.02228913 105.57684033 -102.41894531 104.13720703 C-107.94360136 100.82804967 -113.53840801 97.64051883 -119.125 94.4375 C-130.41578787 87.93035602 -141.67556438 81.37071039 -152.92675781 74.79541016 C-158.44946075 71.56900744 -163.97492772 68.34734302 -169.5 65.125 C-171.53126128 63.94012351 -173.56251238 62.75522956 -175.59375 61.5703125 C-176.44646484 61.07289551 -177.29917969 60.57547852 -178.17773438 60.06298828 C-179.07975586 59.53680908 -179.07975586 59.53680908 -180 59 C-178.30109078 56.9000517 -177.35682516 56.07536183 -174.67651367 55.50927734 C-166.82342592 55.36847218 -161.90590919 57.53326268 -155.3125 61.625 C-154.3328125 62.20604492 -153.353125 62.78708984 -152.34375 63.38574219 C-150.27386742 64.61465278 -148.20964515 65.85314186 -146.15087891 67.10058594 C-141.99087833 69.60831912 -137.78641304 72.03568259 -133.58105469 74.46630859 C-107.15416366 89.76542633 -107.15416366 89.76542633 -99.4375 95.125 C-93.66455069 99.07724991 -87.29090033 101.9753566 -81 105 C-80.47577552 95.71540199 -80.4646613 88.81845727 -84.86328125 80.38671875 C-86.72620606 76.47521684 -86.77443584 74.29459877 -86 70 C-80.59035496 59.9616798 -70.79767317 54.46105492 -61.1875 49.0625 C-59.45256039 48.07441152 -57.71762686 47.08631218 -55.98306274 46.0975647 C-54.18716585 45.0751696 -52.38945955 44.0560224 -50.59130859 43.03759766 C-42.71574049 38.57391455 -34.87348352 34.05334713 -27.05859375 29.484375 C-23.24407226 27.26119874 -19.40308025 25.15110852 -15.47265625 23.140625 C-6.58236724 18.82342617 -6.58236724 18.82342617 -1.23828125 10.98828125 C-0.33356748 7.34392931 -0.03042494 3.75748067 0 0 Z " fill="#E40000" transform="translate(294,117)"/>
<path d="M0 0 C1.9140625 1.10546875 1.9140625 1.10546875 4.7890625 3.10546875 C4.7890625 3.43546875 4.7890625 3.76546875 4.7890625 4.10546875 C4.16257812 4.16605469 3.53609375 4.22664062 2.890625 4.2890625 C2.07335937 4.37285156 1.25609375 4.45664063 0.4140625 4.54296875 C-0.80410156 4.66478516 -0.80410156 4.66478516 -2.046875 4.7890625 C-4.25366555 4.99636989 -4.25366555 4.99636989 -6.2109375 6.10546875 C4.90626921 13.09714954 16.26557928 19.66776991 27.62060547 26.26318359 C30.66991018 28.03618817 33.71643224 29.81385422 36.76171875 31.59375 C56.04588895 42.8647758 75.37600751 54.05767564 94.7890625 65.10546875 C92.06322884 67.84151153 89.32527347 70.56296677 86.5625 73.26171875 C85.42962421 74.37623776 84.29681258 75.49082198 83.1640625 76.60546875 C82.59171875 77.16105469 82.019375 77.71664062 81.4296875 78.2890625 C76.13360885 83.52355884 73.53515368 87.49533873 72.7890625 95.10546875 C64.1411934 91.10993429 56.01706943 86.36058385 47.84448242 81.48632812 C39.33197934 76.41086832 30.75554163 71.45247735 22.16333008 66.51342773 C15.00067158 62.39235006 7.86258737 58.23331465 0.77416992 53.9855957 C-1.87230567 52.41195086 -4.27891004 51.08281124 -7.2109375 50.10546875 C-7.4790625 50.84667969 -7.7471875 51.58789062 -8.0234375 52.3515625 C-9.17750069 55.02792615 -10.39660914 56.90441967 -12.2109375 59.16796875 C-12.8296875 59.94527344 -13.4484375 60.72257812 -14.0859375 61.5234375 C-15.59072564 63.35186574 -17.11343428 65.16561321 -18.6484375 66.96875 C-34.59462187 85.71037828 -41.40369706 103.95208314 -44.2109375 128.10546875 C-43.34984375 128.35941406 -42.48875 128.61335937 -41.6015625 128.875 C-38.034872 130.16936349 -35.18170996 131.78952617 -31.9609375 133.79296875 C-24.96802631 138.08311483 -17.88663569 142.20568253 -10.7734375 146.29296875 C0.75864475 152.92811603 12.25962775 159.61472824 23.74658203 166.32763672 C29.11376378 169.46387629 34.48260272 172.59727433 39.8515625 175.73046875 C40.84494629 176.31062744 41.83833008 176.89078613 42.86181641 177.48852539 C44.26633057 178.30824829 44.26633057 178.30824829 45.69921875 179.14453125 C46.57433105 179.66160645 47.44944336 180.17868164 48.35107422 180.71142578 C49.87376439 181.58210081 51.42032976 182.41363218 52.99658203 183.18310547 C54.92578125 184.13671875 54.92578125 184.13671875 57.7890625 186.10546875 C58.5859375 188.91015625 58.5859375 188.91015625 58.5390625 191.98046875 C58.74664142 199.40818413 60.98852148 203.47724825 65.7890625 209.10546875 C62.08937497 207.71975848 58.76332295 206.03880602 55.3515625 204.05078125 C54.30121826 203.44097412 53.25087402 202.83116699 52.16870117 202.20288086 C51.05342041 201.55198486 49.93813965 200.90108887 48.7890625 200.23046875 C47.62966566 199.5600183 46.46991236 198.89018392 45.30981445 198.22094727 C39.70590877 194.98467172 34.12434722 191.71617608 28.58203125 188.375 C27.63263672 187.81087402 26.68324219 187.24674805 25.70507812 186.66552734 C23.9200359 185.60402138 22.14351243 184.52802364 20.37695312 183.43603516 C16.06849478 180.709123 16.06849478 180.709123 11.203125 180.53125 C10.40648437 181.05074219 9.60984375 181.57023438 8.7890625 182.10546875 C7.59824602 182.74169161 6.40384365 183.37122297 5.20703125 183.99609375 C3.79472177 184.77867876 2.38471579 185.56542972 0.9765625 186.35546875 C0.20175537 186.78802979 -0.57305176 187.22059082 -1.37133789 187.66625977 C-8.00442067 191.38862267 -14.58068466 195.20680164 -21.1484375 199.04296875 C-22.66896729 199.93060913 -22.66896729 199.93060913 -24.22021484 200.83618164 C-29.0398963 203.65376449 -33.85158171 206.48356619 -38.6484375 209.33984375 C-39.49543213 209.84008057 -40.34242676 210.34031738 -41.21508789 210.85571289 C-42.77575982 211.77752243 -44.33261806 212.70583762 -45.88452148 213.64233398 C-55.35694962 219.21530628 -64.16170038 221.41128768 -75.2109375 220.10546875 C-83.29801886 217.73208618 -89.12801404 212.52049299 -93.26953125 205.24609375 C-97.50621468 196.08350566 -97.46722391 185.03176746 -94.24609375 175.578125 C-90.10274906 165.68100354 -83.38345027 156.14467197 -73.27734375 151.734375 C-68.62194537 150.31751462 -64.51104536 150.16378696 -59.96875 152.0234375 C-55.45046378 154.58048959 -52.69945885 156.98867661 -51.2109375 162.10546875 C-49.84310908 173.91381028 -53.2701081 183.38619672 -60.28515625 192.8046875 C-64.09755795 197.35946357 -67.77365521 201.26179411 -73.4609375 203.23046875 C-76.2109375 203.10546875 -76.2109375 203.10546875 -78.5859375 202.04296875 C-80.2109375 200.10546875 -80.2109375 200.10546875 -80.60546875 197.2265625 C-80.2109375 194.10546875 -80.2109375 194.10546875 -78.19921875 192.05078125 C-76.87470703 191.14972656 -76.87470703 191.14972656 -75.5234375 190.23046875 C-69.045657 185.42939806 -65.07155023 180.05535951 -63.2109375 172.10546875 C-62.86777735 167.44330959 -62.86777735 167.44330959 -64.2109375 163.10546875 C-70.02752795 163.10546875 -73.13675515 166.06032484 -77.15625 169.86328125 C-82.27198805 175.44585471 -84.31099373 181.56373051 -84.2109375 189.10546875 C-83.6221977 195.86546319 -81.76353622 201.93144706 -77.2109375 207.10546875 C-74.442232 208.02837058 -72.52854656 208.33013236 -69.6484375 208.41796875 C-68.86339844 208.45535156 -68.07835938 208.49273437 -67.26953125 208.53125 C-57.94687579 207.23346016 -49.72508295 201.75523617 -41.7734375 197.04296875 C-40.69900391 196.41841797 -39.62457031 195.79386719 -38.51757812 195.15039062 C-32.42277469 191.70198948 -32.42277469 191.70198948 -27.2109375 187.10546875 C-27.69304687 186.74195313 -28.17515625 186.3784375 -28.671875 186.00390625 C-32.75857825 182.75122407 -35.38372163 180.4823719 -36.2109375 175.10546875 C-36.41946794 167.22301797 -33.77374545 161.02073436 -30.2109375 154.10546875 C-31.29632813 153.53699219 -32.38171875 152.96851563 -33.5 152.3828125 C-50.57272942 143.26013171 -50.57272942 143.26013171 -52.92407227 135.86157227 C-54.64195336 127.71424003 -53.73055817 120.55420161 -52.2734375 112.41796875 C-52.15868073 111.75694153 -52.04392395 111.09591431 -51.9256897 110.41485596 C-48.53028161 91.06878327 -41.0264689 76.20381972 -27.52734375 61.765625 C-22.92116253 56.4758958 -18.35427877 50.39215128 -15.2109375 44.10546875 C-16.01917969 43.87472656 -16.82742187 43.64398438 -17.66015625 43.40625 C-22.07056226 41.79055671 -25.96691525 39.64111761 -30.0234375 37.29296875 C-30.79880859 36.86693359 -31.57417969 36.44089844 -32.37304688 36.00195312 C-37.84235115 32.83903963 -37.84235115 32.83903963 -39.41015625 29.71875 C-38.81841273 21.95646733 -34.0620546 17.26223718 -28.8984375 11.91796875 C-28.24681641 11.21994141 -27.59519531 10.52191406 -26.92382812 9.80273438 C-19.71277346 2.21632952 -10.97286544 -4.43955157 0 0 Z M-20.2109375 160.10546875 C-23.68615421 164.13672013 -24.61557589 167.76173946 -24.56640625 173.1015625 C-23.95814965 176.53052555 -21.87369096 178.06196028 -19.2109375 180.10546875 C-18.2209375 180.43546875 -17.2309375 180.76546875 -16.2109375 181.10546875 C-14.87215178 178.98373245 -13.53978274 176.85841687 -12.2109375 174.73046875 C-11.829375 174.1271875 -11.4478125 173.52390625 -11.0546875 172.90234375 C-8.91409181 169.74430162 -8.91409181 169.74430162 -8.2109375 166.10546875 C-10.38844929 164.50769351 -10.38844929 164.50769351 -13.0859375 162.98046875 C-13.99085937 162.44164062 -14.89578125 161.9028125 -15.828125 161.34765625 C-18.05865772 159.95137945 -18.05865772 159.95137945 -20.2109375 160.10546875 Z " fill="#EC484E" transform="translate(121.2109375,168.89453125)"/>
<path d="M0 0 C3.80560234 0.58066603 6.526577 1.66421734 9.82421875 3.6328125 C10.75685547 4.18388672 11.68949219 4.73496094 12.65039062 5.30273438 C13.65263672 5.90408203 14.65488281 6.50542969 15.6875 7.125 C17.85764035 8.40958522 20.02822863 9.69341395 22.19921875 10.9765625 C23.32118652 11.64204102 24.4431543 12.30751953 25.59912109 12.99316406 C31.04157341 16.20471884 36.52113539 19.35110857 42 22.5 C50.67923922 27.49935137 59.34710521 32.51767869 68 37.5625 C68.96035156 38.12195313 69.92070312 38.68140625 70.91015625 39.2578125 C72.28494141 40.06025391 72.28494141 40.06025391 73.6875 40.87890625 C75.01587891 41.64678467 75.01587891 41.64678467 76.37109375 42.43017578 C78.16115726 43.49909372 79.92407111 44.61452086 81.66015625 45.76904297 C85.5054408 48.28689238 88.06770302 49.92132515 92.703125 50.3125 C97.25885342 48.49884509 99.64782896 45.70800679 102.75 42 C103.86482678 40.70404576 104.9844251 39.41217671 106.109375 38.125 C106.59374023 37.55007813 107.07810547 36.97515625 107.57714844 36.3828125 C109 35 109 35 112 34 C112 51.04456229 100.62048961 65.94223115 89.5 77.875 C74.1107936 94.63632095 68.90414556 114.18108722 65 136 C61.60997279 134.70891809 58.47839169 133.24218459 55.32421875 131.453125 C54.42687012 130.94555664 53.52952148 130.43798828 52.60498047 129.91503906 C51.64221191 129.36557617 50.67944336 128.81611328 49.6875 128.25 C48.16213623 127.3832666 48.16213623 127.3832666 46.60595703 126.49902344 C33.54768959 119.06064294 20.58626822 111.45658013 7.62843323 103.84510803 C4.52339827 102.02126825 1.41802474 100.19800565 -1.6875 98.375 C-2.29719635 98.01701324 -2.9068927 97.65902649 -3.5350647 97.29019165 C-14.63999227 90.77215834 -25.79774537 84.34937307 -37 78 C-37.608487 55.86628535 -29.15912905 36.57082082 -15 20 C-14.52030762 19.43764648 -14.04061523 18.87529297 -13.54638672 18.29589844 C-13.05541504 17.72129883 -12.56444336 17.14669922 -12.05859375 16.5546875 C-11.56915283 15.98073242 -11.07971191 15.40677734 -10.57543945 14.81542969 C-9.6429399 13.72863843 -8.70321458 12.64798346 -7.75463867 11.57519531 C-4.58302084 7.9298751 -2.27954807 4.23041712 0 0 Z " fill="#E40100" transform="translate(114,219)"/>
<path d="M0 0 C4.50003371 2.25001685 6.87162456 4.47414417 9 9 C9.43102462 11.86355071 9.42794673 14.67130602 9.375 17.5625 C9.3586853 18.76567871 9.3586853 18.76567871 9.34204102 19.99316406 C8.88733535 37.09009723 1.50835436 52.59007712 -10.6159668 64.60083008 C-16.15665536 69.75111782 -22.30420329 73.24142313 -28.9375 76.8125 C-31.18826647 78.04808397 -33.43826604 79.28506597 -35.6875 80.5234375 C-36.77546875 81.11995117 -37.8634375 81.71646484 -38.984375 82.33105469 C-42.84302597 84.46655809 -46.64844391 86.68142808 -50.4375 88.9375 C-57.40709005 93.07418906 -64.4150262 97.14121994 -71.4375 101.1875 C-72.54472412 101.82550537 -73.65194824 102.46351074 -74.79272461 103.12084961 C-77.06337068 104.42889477 -79.33412358 105.73675448 -81.60498047 107.04443359 C-87.0716998 110.19332054 -92.53574887 113.34683264 -98 116.5 C-100.16665311 117.7500235 -102.33331979 119.00002347 -104.5 120.25 C-105.5725 120.86875 -106.645 121.4875 -107.75 122.125 C-117.5 127.75 -117.5 127.75 -120.75048828 129.62524414 C-122.91557071 130.87435518 -125.08060982 132.12354129 -127.24560547 133.37280273 C-132.68615706 136.51202309 -138.12747216 139.64990563 -143.5703125 142.78515625 C-154.02206199 148.80747329 -164.46299548 154.84669337 -174.875 160.9375 C-184.14499777 166.35921178 -193.45831752 171.70204915 -202.78845215 177.01922607 C-211.90911906 182.21833683 -220.99380592 187.47622388 -230.0559082 192.77685547 C-239.58194651 198.34709226 -249.13379782 203.87166579 -258.703125 209.3671875 C-262.79379176 211.71850576 -266.86510911 214.09851257 -270.921875 216.5078125 C-271.85491455 217.05614746 -272.7879541 217.60448242 -273.74926758 218.16943359 C-275.46869103 219.1803815 -277.18267253 220.20067987 -278.8894043 221.23291016 C-287.07255546 226.01241977 -296.60382798 229.61664962 -306.14453125 227.53125 C-314.51215942 225.13642626 -320.48202872 220.65022543 -324.9921875 213.22265625 C-328.99983388 204.3840873 -329.56666269 194.00787164 -327.125 184.64453125 C-322.91425046 173.93759246 -317.18295242 165.57144901 -307 160 C-306.32839844 159.62746094 -305.65679687 159.25492188 -304.96484375 158.87109375 C-301.66273422 157.40713664 -298.48875633 157.3754306 -295 158 C-289.83450708 160.31112072 -285.43407175 163.34963554 -283.3125 168.75 C-281.82078751 179.49032996 -284.96410768 189.10908407 -291 198 C-294.80013059 202.84844248 -298.40241814 207.2232468 -304 210 C-310.32142857 209.67857143 -310.32142857 209.67857143 -313 207 C-312.8995082 203.29185269 -312.5804701 201.56542087 -309.890625 198.9453125 C-308.58351563 198.04425781 -308.58351563 198.04425781 -307.25 197.125 C-301.61648464 192.92605651 -298.22263584 188.66790753 -296 182 C-295.93062938 179.77181559 -295.91542916 177.54165476 -295.9375 175.3125 C-295.94652344 174.13300781 -295.95554687 172.95351563 -295.96484375 171.73828125 C-295.97644531 170.83464844 -295.98804688 169.93101562 -296 169 C-297.03060547 169.52400391 -297.03060547 169.52400391 -298.08203125 170.05859375 C-298.98308594 170.51363281 -299.88414062 170.96867188 -300.8125 171.4375 C-301.70582031 171.88996094 -302.59914063 172.34242188 -303.51953125 172.80859375 C-306 174 -306 174 -309 175 C-310.12153356 176.83074675 -310.12153356 176.83074675 -311 179 C-311.34160156 179.67160156 -311.68320312 180.34320313 -312.03515625 181.03515625 C-312.37417969 181.70417969 -312.71320313 182.37320313 -313.0625 183.0625 C-313.40410156 183.73410156 -313.74570312 184.40570313 -314.09765625 185.09765625 C-317.08177255 191.38884515 -316.77391063 198.24578995 -314.75 204.8125 C-313.16321865 209.06146429 -311.19732812 212.90133594 -307 215 C-304.67100924 215.27639405 -304.67100924 215.27639405 -302 215.3125 C-301.113125 215.34988281 -300.22625 215.38726562 -299.3125 215.42578125 C-289.8398479 214.208188 -281.6111633 208.67943286 -273.5625 203.875 C-271.95084961 202.92560547 -271.95084961 202.92560547 -270.30664062 201.95703125 C-264.58927626 198.58105037 -264.58927626 198.58105037 -259 195 C-259.48210937 194.61328125 -259.96421875 194.2265625 -260.4609375 193.828125 C-261.09257812 193.30734375 -261.72421875 192.7865625 -262.375 192.25 C-263.00148438 191.73953125 -263.62796875 191.2290625 -264.2734375 190.703125 C-267.40485782 187.61421264 -268.30341152 184.78292075 -268.375 180.4375 C-268.16000238 171.31353836 -264.4933388 162.47710545 -258 156 C-251.43631954 152.034725 -242.51582915 151.22609284 -235 152 C-232.125 153 -232.125 153 -230 154 C-229.01 154 -228.02 154 -227 154 C-225.24732837 151.6739198 -225.24732837 151.6739198 -223.625 148.75 C-219.86236668 142.2555918 -215.32382994 139.0405684 -208.859375 135.36328125 C-208.29172424 135.03837204 -207.72407349 134.71346283 -207.13922119 134.37870789 C-205.34508632 133.35259412 -203.54776128 132.33224462 -201.75 131.3125 C-199.93851371 130.28110601 -198.12773701 129.24849867 -196.31793213 128.2141571 C-194.68700423 127.28262071 -193.05400158 126.35471958 -191.42089844 125.42700195 C-189.12813046 124.21149311 -189.12813046 124.21149311 -188 123 C-184.18756605 122.67500029 -181.88690516 123.27356284 -178.56640625 125.1171875 C-177.75236328 125.55933594 -176.93832031 126.00148438 -176.09960938 126.45703125 C-174.84374023 127.15892578 -174.84374023 127.15892578 -173.5625 127.875 C-166.05228818 132.04713178 -166.05228818 132.04713178 -158 135 C-157.39414062 134.01902344 -156.78828125 133.03804687 -156.1640625 132.02734375 C-151.47529693 124.46387332 -146.76440045 116.91961556 -141.72607422 109.58227539 C-139.6270891 106.51592141 -137.67254484 103.46317075 -135.921875 100.18359375 C-129.51612959 88.66738234 -120.19932995 83.46005994 -108.703125 77.47998047 C-105.11344629 75.51460544 -101.7485336 73.2396718 -98.38671875 70.90844727 C-94.22245614 69.32342055 -91.07627733 71.52330644 -87.20751953 73.23681641 C-85.80928955 73.91236572 -85.80928955 73.91236572 -84.3828125 74.6015625 C-83.36445313 75.09140625 -82.34609375 75.58125 -81.296875 76.0859375 C-79.72679687 76.84777344 -79.72679687 76.84777344 -78.125 77.625 C-77.05507813 78.140625 -75.98515625 78.65625 -74.8828125 79.1875 C-72.25364318 80.45513521 -69.62611698 81.7260566 -67 83 C-66.70561035 82.23921143 -66.4112207 81.47842285 -66.10791016 80.69458008 C-64.79578625 77.50332589 -63.13529282 74.65391939 -61.375 71.6875 C-60.74335938 70.61886719 -60.11171875 69.55023438 -59.4609375 68.44921875 C-58.97882813 67.64097656 -58.49671875 66.83273437 -58 66 C-58.38671875 66.59167969 -58.7734375 67.18335938 -59.171875 67.79296875 C-66.99651568 79.66550523 -66.99651568 79.66550523 -71 81 C-74.1875 79.5625 -74.1875 79.5625 -77 78 C-76.58631976 71.95870748 -74.7417021 68.30103631 -71.3125 63.375 C-70.89033203 62.73304688 -70.46816406 62.09109375 -70.03320312 61.4296875 C-66.80064145 56.67104467 -63.23861474 52.61930737 -58 50 C-52.73116124 49.40126832 -50.1153532 50.74599979 -46 54 C-44.80142037 56.39715925 -44.79915491 58.01265376 -44.75 60.6875 C-44.72421875 61.51636719 -44.6984375 62.34523438 -44.671875 63.19921875 C-45.10510514 66.89714743 -46.42207324 69.6323721 -48 73 C-27.96048826 62.6995787 -12.23885303 53.76270939 -4.1171875 31.58984375 C-2.34173188 24.90062714 -2.82433564 17.86066899 -3 11 C-9.62019628 14.44907173 -14.1360989 16.95957646 -17 24 C-17.59632908 26.35433819 -18.10386259 28.68718533 -18.5078125 31.08203125 C-19 33 -19 33 -21 35 C-24.05672475 34.80488991 -26.2264382 34.5931236 -28.69140625 32.703125 C-30.35147635 30.54255616 -30.31112008 29.61604947 -30 26.9375 C-28.68251387 18.14471215 -23.83735859 9.68965488 -16.77734375 4.3046875 C-11.29520504 0.66122591 -6.6065861 -1.48078654 0 0 Z M-111.5625 86.1875 C-117.85765298 93.45113806 -123.17146681 101.16156415 -128.25 109.3125 C-129.4620984 111.24699881 -130.67558673 113.18062759 -131.890625 115.11328125 C-132.41688477 115.95673096 -132.94314453 116.80018066 -133.48535156 117.66918945 C-134.90626663 119.85575879 -136.40893472 121.93500671 -138 124 C-137.67 124.66 -137.34 125.32 -137 126 C-136.11368896 125.48167603 -136.11368896 125.48167603 -135.20947266 124.95288086 C-125.47445385 119.26182584 -115.73897916 113.57184511 -105.96875 107.94140625 C-105.39401947 107.61019272 -104.81928894 107.27897919 -104.22714233 106.93772888 C-101.4552517 105.34090282 -98.6824249 103.74572257 -95.90869141 102.15209961 C-89.56446006 98.5015336 -83.26129032 94.79114445 -77 91 C-80.78771033 88.05603986 -84.72527349 85.95373529 -89 83.8125 C-90.06734375 83.26045898 -90.06734375 83.26045898 -91.15625 82.69726562 C-91.8471875 82.34986328 -92.538125 82.00246094 -93.25 81.64453125 C-93.87390625 81.32846924 -94.4978125 81.01240723 -95.140625 80.68676758 C-101.33345893 78.39941965 -106.98985569 82.28402315 -111.5625 86.1875 Z M-206.8125 143.1875 C-211.67150523 149.59476541 -215.84366853 156.48341441 -220.0703125 163.31640625 C-222.94176852 167.94913892 -225.94894219 172.48403033 -229 177 C-225.47400087 177 -224.12846975 176.15383374 -221.08203125 174.4296875 C-220.08623047 173.86950928 -219.09042969 173.30933105 -218.06445312 172.73217773 C-216.45473633 171.81287476 -216.45473633 171.81287476 -214.8125 170.875 C-213.70712891 170.24988525 -212.60175781 169.62477051 -211.46289062 168.98071289 C-202.61868572 163.96352036 -193.82433584 158.86028204 -185.05786133 153.70849609 C-179.41423347 150.39229428 -173.73976193 147.14712564 -168 144 C-170.98015831 140.83994155 -174.40239441 138.87472994 -178.1875 136.8125 C-179.13979492 136.26045898 -179.13979492 136.26045898 -180.11132812 135.69726562 C-191.02770134 129.74789741 -199.27580743 134.27766262 -206.8125 143.1875 Z M-247.8125 162.3125 C-252.82320618 165.92542053 -255.91073929 171.15501072 -257.0625 177.1875 C-257.31258436 181.00746817 -257.31258436 181.00746817 -255.3125 183.875 C-253.21315256 185.80413008 -251.54283407 186.81155966 -249 188 C-239.26702016 176.85451321 -239.26702016 176.85451321 -234 164 C-240.84209377 161.00867649 -240.84209377 161.00867649 -247.8125 162.3125 Z " fill="#2C363C" transform="translate(478,234)"/>
<path d="M0 0 C-0.87241333 0.43107056 -0.87241333 0.43107056 -1.76245117 0.87084961 C-5.3319274 2.67214012 -8.81621847 4.62384021 -12.3125 6.5625 C-13.10414551 7.00070068 -13.89579102 7.43890137 -14.71142578 7.89038086 C-20.63857005 11.1918678 -26.47226272 14.62643906 -32.2277832 18.21899414 C-36.63673132 20.93118972 -36.63673132 20.93118972 -39.2890625 21.43359375 C-39.85367188 21.62050781 -40.41828125 21.80742188 -41 22 C-42.11534281 24.18352139 -42.11534281 24.18352139 -43 27 C-44.17406935 29.56024247 -45.46010912 32.05902857 -46.75 34.5625 C-47.07226562 35.22185547 -47.39453125 35.88121094 -47.7265625 36.56054688 C-50.10213322 41.141347 -52.46998027 43.32179925 -57 46 C-63.12951043 51.48851587 -65.38477672 57.68432262 -66.52734375 65.69921875 C-66.62764893 66.35599609 -66.7279541 67.01277344 -66.83129883 67.68945312 C-67.11280457 69.60453455 -67.34275778 71.52698016 -67.5703125 73.44921875 C-69.68160802 78.69284614 -73.20162652 80.29666027 -78 83 C-78.91942383 83.54358154 -79.83884766 84.08716309 -80.78613281 84.6472168 C-83.86366021 86.4579635 -86.96045819 88.23160514 -90.0625 90 C-91.78587263 90.98847177 -93.50923962 91.97695363 -95.23219299 92.96615601 C-96.40765364 93.64098372 -97.58330342 94.3154821 -98.75914001 94.98965454 C-106.73432348 99.5636822 -114.67695798 104.19325656 -122.60546875 108.84765625 C-125.90358266 110.78346798 -129.21381324 112.69063735 -132.55078125 114.55859375 C-140.3356587 118.96813153 -147.85689411 123.71378822 -152 132 C-152.58492803 137.36184026 -151.98165639 140.39243512 -149.5 145.1875 C-146.10815857 152.03825318 -145.56788929 159.70366786 -148 167 C-153.16528352 166.42264296 -157.23693958 164.00650731 -161.6875 161.5 C-162.45900391 161.10296875 -163.23050781 160.7059375 -164.02539062 160.296875 C-169.5383637 157.17686928 -169.5383637 157.17686928 -170.87329102 153.77368164 C-171.359375 151.37890625 -171.359375 151.37890625 -171.60449219 149.12329102 C-172.06744621 146.63791379 -172.97312226 145.37512206 -174.5625 143.4375 C-177.85174534 139.20429964 -178.22706618 135.10905994 -177.84765625 129.9140625 C-176.20495371 119.68870062 -169.7665029 110.59718107 -162 104 C-158.8357032 101.80316497 -155.53911147 99.89540453 -152.1875 98 C-151.23536621 97.44948975 -150.28323242 96.89897949 -149.30224609 96.33178711 C-147.26174139 95.15368377 -145.21835761 93.9805553 -143.17236328 92.81201172 C-139.98273932 90.99014093 -136.80094235 89.1552789 -133.62109375 87.31640625 C-129.26512854 84.79840659 -124.90705226 82.28413653 -120.546875 79.7734375 C-100.58695873 68.31471052 -100.58695873 68.31471052 -80.875 56.4375 C-80.25415527 56.0561792 -79.63331055 55.6748584 -78.99365234 55.28198242 C-67.57322488 48.11993849 -61.30322428 38.58853445 -55.0625 26.9375 C-51.17430382 19.71784189 -46.98316209 13.68964848 -41 8 C-40.44054687 7.4328125 -39.88109375 6.865625 -39.3046875 6.28125 C-28.256103 -4.18021165 -13.1548799 -8.86524515 0 0 Z " fill="#F6CF38" transform="translate(361,55)"/>
<path d="M0 0 C0.80856445 0.49105225 1.61712891 0.98210449 2.45019531 1.48803711 C3.37960937 2.04233398 4.30902344 2.59663086 5.26660156 3.16772461 C6.26046875 3.77745117 7.25433594 4.38717773 8.27832031 5.01538086 C10.43922607 6.3092729 12.60070413 7.60220954 14.76269531 8.89428711 C15.87837891 9.5660498 16.9940625 10.2378125 18.14355469 10.92993164 C23.56670625 14.17114874 29.04827089 17.30917155 34.52832031 20.45288086 C44.87779322 26.41264879 55.20294591 32.4129728 65.51269531 38.44116211 C69.76716066 40.92809561 74.02859969 43.40262491 78.29394531 45.87084961 C79.3997998 46.51207764 80.5056543 47.15330566 81.64501953 47.81396484 C83.77542833 49.04901451 85.90721019 50.28169954 88.04052734 51.51171875 C88.9929834 52.064646 89.94543945 52.61757324 90.92675781 53.18725586 C91.76899902 53.67419922 92.61124023 54.16114258 93.47900391 54.6628418 C95.52832031 55.95288086 95.52832031 55.95288086 97.52832031 57.95288086 C96.82449219 57.94385742 96.12066406 57.93483398 95.39550781 57.92553711 C82.51035688 58.31242806 72.62331527 64.22053464 63.41894531 72.93725586 C61.3727001 75.0079368 61.3727001 75.0079368 59.52832031 77.95288086 C55.69540545 77.37071453 52.95678425 76.26367979 49.63378906 74.28491211 C48.69100098 73.72876221 47.74821289 73.1726123 46.77685547 72.59960938 C45.76671387 71.99431396 44.75657227 71.38901855 43.71582031 70.76538086 C41.54013599 69.47875861 39.36435202 68.19230485 37.18847656 66.90600586 C36.07875488 66.24665039 34.9690332 65.58729492 33.82568359 64.90795898 C28.7831485 61.91813068 23.71866789 58.96633882 18.65332031 56.01538086 C17.18052612 55.15565674 17.18052612 55.15565674 15.67797852 54.27856445 C9.36527028 50.5959379 3.03933647 46.9369285 -3.29492188 43.29150391 C-7.62129666 40.80041544 -11.94296467 38.30121743 -16.26464844 35.80200195 C-19.50572239 33.9332524 -22.75424682 32.07789479 -26.00292969 30.22241211 C-28.03452067 29.0498256 -30.06578581 27.87667432 -32.09667969 26.70288086 C-33.52004639 25.89741821 -33.52004639 25.89741821 -34.97216797 25.07568359 C-35.83052246 24.57625244 -36.68887695 24.07682129 -37.57324219 23.56225586 C-38.32943848 23.12880859 -39.08563477 22.69536133 -39.86474609 22.2487793 C-40.39503418 21.82113281 -40.92532227 21.39348633 -41.47167969 20.95288086 C-41.47167969 19.96288086 -41.47167969 18.97288086 -41.47167969 17.95288086 C-39.41137695 16.40649414 -39.41137695 16.40649414 -36.53808594 14.77319336 C-35.49587891 14.1737793 -34.45367187 13.57436523 -33.37988281 12.95678711 C-32.27580078 12.33674805 -31.17171875 11.71670898 -30.03417969 11.07788086 C-28.43026367 10.15942383 -28.43026367 10.15942383 -26.79394531 9.22241211 C-24.6814781 8.01565714 -22.56384323 6.81789942 -20.44091797 5.62963867 C-18.57571365 4.57633961 -16.72280415 3.50063876 -14.88916016 2.39331055 C-14.12104004 1.93601563 -13.35291992 1.4787207 -12.56152344 1.00756836 C-11.90917725 0.60779785 -11.25683105 0.20802734 -10.5847168 -0.20385742 C-6.83979111 -1.69836618 -3.69320178 -1.56461304 0 0 Z " fill="#ED484E" transform="translate(365.4716796875,57.047119140625)"/>
<path d="M0 0 C1.84831679 0.91675549 3.65924906 1.910829 5.4375 2.95703125 C7.01217041 3.87548828 7.01217041 3.87548828 8.61865234 4.8125 C9.73449707 5.4725 10.8503418 6.1325 12 6.8125 C13.16441919 7.4942709 14.32930096 8.17525232 15.49462891 8.85546875 C17.86017044 10.23664333 20.22402188 11.6206463 22.58691406 13.00634766 C27.49580499 15.87372987 32.4339909 18.68846163 37.375 21.5 C39.06395924 22.46587107 40.75276812 23.43200514 42.44140625 24.3984375 C45.27616384 26.01947792 48.11666014 27.6292457 50.96484375 29.2265625 C52.06957031 29.85304687 53.17429687 30.47953125 54.3125 31.125 C55.23675781 31.64320313 56.16101563 32.16140625 57.11328125 32.6953125 C57.73589844 33.12585938 58.35851562 33.55640625 59 34 C59 34.66 59 35.32 59 36 C58.25951416 36.40726318 57.51902832 36.81452637 56.75610352 37.23413086 C53.95911833 38.78209151 51.17030556 40.34369389 48.38598633 41.91430664 C47.18944789 42.58570744 45.98997574 43.25191196 44.78735352 43.91235352 C34.5817844 49.52435123 25.98969583 55.84355924 20 66 C16.16708514 65.41783367 13.42846394 64.31079893 10.10546875 62.33203125 C9.16195557 61.77547852 8.21844238 61.21892578 7.24633789 60.64550781 C6.23692139 60.04061523 5.22750488 59.43572266 4.1875 58.8125 C2.02356057 57.53234403 -0.14050557 56.25240222 -2.3046875 54.97265625 C-3.41295898 54.31410645 -4.52123047 53.65555664 -5.66308594 52.97705078 C-9.89734526 50.46834198 -14.14884464 47.99002492 -18.40307617 45.51538086 C-21.39485248 43.77481167 -24.38319992 42.02847352 -27.37109375 40.28125 C-31.00013182 38.16105263 -34.63780834 36.05727858 -38.28515625 33.96875 C-39.08703369 33.50629883 -39.88891113 33.04384766 -40.71508789 32.56738281 C-42.19910539 31.71176165 -43.68641179 30.86181062 -45.17749023 30.01855469 C-46.81856204 29.06810317 -48.41547573 28.04199694 -50 27 C-50 26.34 -50 25.68 -50 25 C-49.34741211 24.63874023 -48.69482422 24.27748047 -48.02246094 23.90527344 C-44.92964708 22.19041378 -41.83955813 20.47071844 -38.75 18.75 C-37.62368164 18.12407959 -36.49736328 17.49815918 -35.33691406 16.85327148 C-29.84979063 13.78582244 -24.40685829 10.67623805 -19.0625 7.36328125 C-17.71140137 6.52748535 -17.71140137 6.52748535 -16.33300781 5.67480469 C-14.64198825 4.61927603 -12.95864167 3.55132953 -11.28417969 2.46972656 C-10.14577637 1.75961426 -10.14577637 1.75961426 -8.984375 1.03515625 C-8.33178711 0.6162915 -7.67919922 0.19742676 -7.00683594 -0.23413086 C-4.25240404 -1.28530518 -2.79793729 -0.87692607 0 0 Z " fill="#EC474E" transform="translate(279,172)"/>
<path d="M0 0 C4.51828622 2.55705209 7.26929115 4.96523911 8.7578125 10.08203125 C10.12564092 21.89037278 6.6986419 31.36275922 -0.31640625 40.78125 C-4.12880795 45.33602607 -7.80490521 49.23835661 -13.4921875 51.20703125 C-16.2421875 51.08203125 -16.2421875 51.08203125 -18.6171875 50.01953125 C-20.2421875 48.08203125 -20.2421875 48.08203125 -20.63671875 45.203125 C-20.2421875 42.08203125 -20.2421875 42.08203125 -18.23046875 40.02734375 C-17.34746094 39.42664063 -16.46445312 38.8259375 -15.5546875 38.20703125 C-9.076907 33.40596056 -5.10280023 28.03192201 -3.2421875 20.08203125 C-2.89902735 15.41987209 -2.89902735 15.41987209 -4.2421875 11.08203125 C-10.05877795 11.08203125 -13.16800515 14.03688734 -17.1875 17.83984375 C-22.30323805 23.42241721 -24.34224373 29.54029301 -24.2421875 37.08203125 C-23.6534477 43.84202569 -21.79478622 49.90800956 -17.2421875 55.08203125 C-14.473482 56.00493308 -12.55979656 56.30669486 -9.6796875 56.39453125 C-8.89464844 56.43191406 -8.10960938 56.46929687 -7.30078125 56.5078125 C2.02187421 55.21002266 10.24366705 49.73179867 18.1953125 45.01953125 C19.26974609 44.39498047 20.34417969 43.77042969 21.45117188 43.12695312 C27.54597531 39.67855198 27.54597531 39.67855198 32.7578125 35.08203125 C32.27570313 34.71851563 31.79359375 34.355 31.296875 33.98046875 C27.21017175 30.72778657 24.58502837 28.4589344 23.7578125 23.08203125 C23.55774036 15.39926117 25.9653566 9.65935329 29.7578125 3.08203125 C34.08876208 3.08203125 36.02816111 4.04767594 39.7578125 6.08203125 C39.26471443 8.30097257 38.71636567 10.16492492 37.6953125 12.20703125 C36.3053483 16.46958812 36.60242107 20.63610983 36.7578125 25.08203125 C39.40520166 26.54265975 40.65229584 27.08203125 43.7578125 27.08203125 C45.91278461 24.39900734 45.91278461 24.39900734 47.9453125 21.08203125 C48.31333984 20.5096875 48.68136719 19.93734375 49.06054688 19.34765625 C49.96906321 17.93178663 50.86467727 16.50765328 51.7578125 15.08203125 C56.72850427 15.64183731 60.37599667 17.92037326 64.5703125 20.45703125 C65.60961914 21.05644531 65.60961914 21.05644531 66.66992188 21.66796875 C68.42202359 22.71750357 70.09796476 23.89195174 71.7578125 25.08203125 C71.7578125 26.07203125 71.7578125 27.06203125 71.7578125 28.08203125 C69.11605089 29.60612449 66.47428796 31.13021545 63.83251953 32.65429688 C61.50795363 33.99540524 59.18340615 35.33654547 56.85888672 36.67773438 C51.37537711 39.84152254 45.89174506 43.00509672 40.40713501 46.16697693 C38.67680562 47.16452847 36.94655681 48.16221977 35.21630859 49.15991211 C33.05791867 50.40445611 30.89939847 51.64877421 28.74072266 52.89282227 C27.73831543 53.47088623 26.7359082 54.0489502 25.703125 54.64453125 C24.72843262 55.20648193 23.75374023 55.76843262 22.74951172 56.34741211 C20.65844194 57.55983669 18.57187369 58.78004348 16.48876953 60.00610352 C15.42770996 60.63057373 14.36665039 61.25504395 13.2734375 61.8984375 C12.31985352 62.46248291 11.36626953 63.02652832 10.38378906 63.60766602 C2.1660456 68.22155155 -5.86410347 69.19035027 -15.2421875 68.08203125 C-23.32926886 65.70864868 -29.15926404 60.49705549 -33.30078125 53.22265625 C-37.53746468 44.06006816 -37.49847391 33.00832996 -34.27734375 23.5546875 C-30.13399906 13.65756604 -23.41470027 4.12123447 -13.30859375 -0.2890625 C-8.65319537 -1.70592288 -4.54229536 -1.85965054 0 0 Z " fill="#2C353B" transform="translate(61.2421875,320.91796875)"/>
<path d="M0 0 C3.86935194 0.59138567 6.71555664 1.74230778 10.11328125 3.66796875 C11.59550171 4.50231445 11.59550171 4.50231445 13.10766602 5.35351562 C14.16526123 5.95873047 15.22285645 6.56394531 16.3125 7.1875 C17.41972412 7.81462891 18.52694824 8.44175781 19.66772461 9.08789062 C30.17153582 15.05472897 40.60714099 21.13884279 51.02490234 27.25439453 C55.97058285 30.15621758 60.92246172 33.04740088 65.875 35.9375 C66.84252197 36.50227051 67.81004395 37.06704102 68.80688477 37.64892578 C80.51310059 44.47554461 92.25589134 51.23884689 104 58 C103.06012158 59.72538341 102.11996171 61.4506135 101.1796875 63.17578125 C100.65616699 64.13653564 100.13264648 65.09729004 99.59326172 66.0871582 C97.41521753 70.06911426 95.21165513 74.03663571 93 78 C92.19820313 77.53851563 91.39640625 77.07703125 90.5703125 76.6015625 C84.66932269 73.21618739 78.75782373 69.85628823 72.79907227 66.57348633 C61.88084918 60.55467026 51.11651136 54.28366007 40.36425781 47.97412109 C36.78305565 45.87269869 33.20025055 43.77402826 29.6171875 41.67578125 C16.73641297 34.13144649 3.86224883 26.57588318 -9 19 C-7.6077541 14.37324343 -5.70479016 10.35313769 -3.375 6.125 C-2.74335938 4.97257812 -2.11171875 3.82015625 -1.4609375 2.6328125 C-0.97882813 1.76398438 -0.49671875 0.89515625 0 0 Z " fill="#E50100" transform="translate(320,77)"/>
<path d="M0 0 C1.93359375 1.08984375 1.93359375 1.08984375 4.62109375 3.08984375 C1.84202118 4.01620127 0.05626212 4.17828622 -2.81640625 4.27734375 C-15.09395591 5.47471759 -24.77347604 13.48122769 -32.49609375 22.5859375 C-36.36679901 27.654001 -39.41912995 32.9369864 -42.31640625 38.58984375 C-50.63673283 54.71212816 -62.82963365 63.34998083 -78.37890625 72.08984375 C-80.68183832 73.40088616 -82.98399116 74.71321087 -85.28515625 76.02734375 C-85.87107544 76.36121094 -86.45699463 76.69507813 -87.06066895 77.0390625 C-94.50776192 81.29016463 -101.86383674 85.69461784 -109.2277832 90.08764648 C-114.98047004 93.51081928 -120.75295793 96.88968329 -126.578125 100.1875 C-127.16759918 100.52244476 -127.75707336 100.85738953 -128.3644104 101.20248413 C-131.17188381 102.79770238 -133.98335881 104.38445908 -136.8046875 105.95507812 C-148.86635121 112.79567641 -157.79583665 120.79772728 -162.37890625 134.27734375 C-163.71488841 139.56282318 -164.07124151 144.22545197 -161.22265625 149.046875 C-160.77921875 149.70042969 -160.33578125 150.35398437 -159.87890625 151.02734375 C-157.01591418 155.3385745 -155.85484196 158.89014336 -156.37890625 164.08984375 C-158.95270275 173.99627923 -164.54138253 182.43942461 -173.27734375 187.90234375 C-176.26720556 189.43954776 -179.27872296 190.79133766 -182.37890625 192.08984375 C-183.260625 192.50234375 -184.14234375 192.91484375 -185.05078125 193.33984375 C-190.22326939 195.65300615 -195.70441741 197.59126492 -201.37890625 196.08984375 C-202.74149201 194.78641919 -204.07798083 193.45481577 -205.37890625 192.08984375 C-204.73453613 191.86433838 -204.09016602 191.63883301 -203.42626953 191.40649414 C-182.13032332 183.97332133 -182.13032332 183.97332133 -168.25390625 167.02734375 C-164.95132679 159.7760435 -164.95132679 159.7760435 -165.37890625 152.08984375 C-166.3414481 150.503994 -167.34590123 148.94322236 -168.37890625 147.40234375 C-172.25831381 141.40354488 -172.49581927 136.05766264 -171.37890625 129.08984375 C-166.59092785 113.33511484 -151.68887483 104.16780561 -138.18331909 96.60107422 C-135.69388021 95.20594092 -133.21180256 93.79793439 -130.72923279 92.390625 C-129.45560288 91.66869472 -128.1816458 90.94734132 -126.90736389 90.2265625 C-118.05717507 85.21798898 -109.28550541 80.0759605 -100.51806641 74.92431641 C-97.70672152 73.28141351 -94.88777105 71.65299799 -92.06465149 70.03048706 C-89.63104443 68.62914783 -87.20330372 67.21783757 -84.77639771 65.80493164 C-83.06774559 64.8143541 -81.35222761 63.83564862 -79.63647461 62.85742188 C-65.62799316 54.67101961 -56.81977893 44.85220791 -49.44140625 30.58984375 C-42.48444068 17.21939949 -32.518135 5.77820031 -18.27734375 -0.09765625 C-12.32096775 -1.76736812 -5.85783485 -2.24117491 0 0 Z " fill="#F5CC39" transform="translate(466.37890625,115.91015625)"/>
<path d="M0 0 C0.99 0.495 0.99 0.495 2 1 C1.32565824 4.81930882 0.60436471 8.62834831 -0.125 12.4375 C-0.40730469 14.04141602 -0.40730469 14.04141602 -0.6953125 15.67773438 C-2.59045463 25.36072618 -5.98764835 32.07324798 -14 38 C-15.7546897 39.09699318 -17.5337616 40.15569715 -19.33203125 41.1796875 C-20.36682617 41.77201172 -21.40162109 42.36433594 -22.46777344 42.97460938 C-23.5715332 43.60173828 -24.67529297 44.22886719 -25.8125 44.875 C-27.55324063 45.8749058 -29.29397774 46.87481782 -31.03445435 47.87518311 C-36.28892604 50.89247063 -41.55943173 53.87984909 -46.83984375 56.8515625 C-48.97665951 58.06753788 -51.11338217 59.28367688 -53.25 60.5 C-54.73850464 61.32540283 -54.73850464 61.32540283 -56.25708008 62.16748047 C-66.40974203 67.97527757 -71.5595181 74.55054701 -74.6875 85.875 C-75.13124751 87.58172118 -75.57086481 89.28954625 -76 91 C-76.33 91 -76.66 91 -77 91 C-76.94199219 89.82824219 -76.88398438 88.65648437 -76.82421875 87.44921875 C-76.52583006 78.69710552 -76.65555768 72.21342326 -80.86328125 64.31640625 C-82.75887067 60.45357282 -82.76838475 58.26104271 -82 54 C-76.59043534 43.96182896 -66.79770749 38.46076006 -57.1875 33.0625 C-55.45360313 32.07548225 -53.71971285 31.08845272 -51.98622131 30.10072327 C-50.19067431 29.07885163 -48.39333877 28.06018431 -46.59570312 27.04199219 C-40.85825119 23.7885459 -35.1494324 20.48548857 -29.4375 17.1875 C-28.36072998 16.56818604 -27.28395996 15.94887207 -26.17456055 15.31079102 C-21.31324122 12.51139698 -16.46620206 9.69420773 -11.66015625 6.80078125 C-10.86359619 6.32294189 -10.06703613 5.84510254 -9.24633789 5.3527832 C-7.79198292 4.4769457 -6.34164751 3.59438396 -4.89624023 2.70385742 C-3.29887159 1.74239245 -1.65356598 0.86123228 0 0 Z " fill="#B70000" transform="translate(290,133)"/>
<path d="M0 0 C-0.2564082 2.39817079 -0.5295484 4.79243728 -0.8125 7.1875 C-0.91788086 8.19780273 -0.91788086 8.19780273 -1.02539062 9.22851562 C-1.55476313 13.56937017 -2.45886894 16.46014208 -5 20 C-7.31469727 21.70654297 -7.31469727 21.70654297 -10.06640625 23.2421875 C-11.09620605 23.82572998 -12.12600586 24.40927246 -13.18701172 25.01049805 C-14.30092285 25.62578369 -15.41483398 26.24106934 -16.5625 26.875 C-17.73008178 27.53227534 -18.89689951 28.19090958 -20.06298828 28.85083008 C-22.49001564 30.22284122 -24.92023071 31.58892988 -27.35302734 32.95068359 C-36.27413951 37.95253695 -45.10964618 43.10667042 -53.95507812 48.24072266 C-56.89446346 49.93902371 -59.84480141 51.61685147 -62.796875 53.29296875 C-76.48016725 60.88676162 -76.48016725 60.88676162 -86 73 C-86.58492803 78.36184026 -85.98165639 81.39243512 -83.5 86.1875 C-80.10815857 93.03825318 -79.56788929 100.70366786 -82 108 C-87.30324151 107.08953199 -91.91076826 105.61297583 -96 102 C-96.96203235 99.44593181 -97.30320649 97.1446742 -97.609375 94.4375 C-98.18615375 90.83840058 -99.82452468 88.87724156 -102 86 C-104.2846357 79.14609289 -103.20272084 72.99497349 -100.32421875 66.48046875 C-94.14193536 54.90008541 -84.31553144 47.81128257 -73.125 41.5 C-72.0834375 40.90251953 -71.041875 40.30503906 -69.96875 39.68945312 C-67.76540978 38.42608203 -65.55996134 37.16638137 -63.35253906 35.91015625 C-57.88822622 32.79678721 -52.44574878 29.64568606 -47 26.5 C-44.83595903 25.25256681 -42.67189652 24.005171 -40.5078125 22.7578125 C-33.95553352 18.9772719 -27.41216802 15.18160588 -20.875 11.375 C-19.40933594 10.52325195 -19.40933594 10.52325195 -17.9140625 9.65429688 C-13.06099423 6.82447005 -8.26419086 3.94644709 -3.56298828 0.86962891 C-2 0 -2 0 0 0 Z " fill="#EF8500" transform="translate(295,114)"/>
<path d="M0 0 C0.33 0.66 0.66 1.32 1 2 C2.99912146 2.66929651 4.99929664 3.33544712 7 4 C9.11569528 5.17258773 11.1960382 6.40985788 13.25 7.6875 C20.24291119 11.97764608 27.32430181 16.10021378 34.4375 20.1875 C45.96958225 26.82264728 57.47056525 33.50925949 68.95751953 40.22216797 C74.32470128 43.35840754 79.69354022 46.49180558 85.0625 49.625 C86.05588379 50.20515869 87.04926758 50.78531738 88.07275391 51.38305664 C89.00909668 51.92953857 89.94543945 52.47602051 90.91015625 53.0390625 C91.78526855 53.5561377 92.66038086 54.07321289 93.56201172 54.60595703 C95.08470189 55.47663206 96.63126726 56.30816343 98.20751953 57.07763672 C100.13671875 58.03125 100.13671875 58.03125 103 60 C103.796875 62.8046875 103.796875 62.8046875 103.75 65.875 C103.95757892 73.30271538 106.19945898 77.3717795 111 83 C107.31842978 81.61873571 103.9977555 79.95191497 100.59765625 77.98046875 C99.55279053 77.3764624 98.5079248 76.77245605 97.43139648 76.15014648 C96.31966064 75.50247314 95.2079248 74.8547998 94.0625 74.1875 C92.90251523 73.51424904 91.74243923 72.84115523 90.58227539 72.16821289 C87.05143684 70.11797477 83.5253882 68.05959134 80 66 C78.93620117 65.37931641 77.87240234 64.75863281 76.77636719 64.11914062 C73.82752159 62.39624071 70.88171675 60.66829617 67.9375 58.9375 C67.06552979 58.42662842 66.19355957 57.91575684 65.29516602 57.3894043 C61.29915079 55.02930261 57.38825285 52.61058101 53.55859375 49.98828125 C48.62396761 46.65677137 43.4237039 43.95174027 38.125 41.25 C36.27268895 40.29833055 34.42109362 39.34526641 32.5703125 38.390625 C31.76352051 37.97844727 30.95672852 37.56626953 30.12548828 37.14160156 C28 36 28 36 25 34 C25 33.34 25 32.68 25 32 C24.14535156 31.73445313 23.29070312 31.46890625 22.41015625 31.1953125 C14.13439979 28.29453189 5.92632092 24.85830946 1.734375 16.796875 C0.15632808 12.93569636 -0.10712422 9.96255263 -0.0625 5.8125 C-0.05347656 4.72582031 -0.04445313 3.63914062 -0.03515625 2.51953125 C-0.02355469 1.68808594 -0.01195313 0.85664063 0 0 Z " fill="#EC484D" transform="translate(76,295)"/>
<path d="M0 0 C2.875 -0.1875 2.875 -0.1875 6 0 C8.24535466 3.368032 8.15693241 4.69838885 7.52734375 8.58203125 C4.01490659 24.68720607 -4.62079987 37.54793632 -15.41015625 49.71875 C-28.26714568 64.50329425 -34.8993626 79.89129279 -38.3125 99.125 C-38.49659424 100.13884766 -38.68068848 101.15269531 -38.87036133 102.19726562 C-40.22215139 110.4191487 -39.89355824 117.88475039 -38 126 C-42.21228561 124.43989422 -44.34546845 121.5154607 -47 118 C-51.78737823 103.6378653 -46.55489632 81.72602967 -40.34375 68.52734375 C-35.57919433 59.56610096 -30.10424308 51.65720997 -23.390625 44.0390625 C-11.94164781 31.03412697 -4.16915601 16.89771563 0 0 Z " fill="#F4CB38" transform="translate(227,252)"/>
<path d="M0 0 C3.47153381 0.76403415 5.99770818 2.08186911 9 4 C6.28976007 9.96515277 3.23369932 14.39022088 -1.1875 19.1875 C-16.40076306 36.29121903 -24.33916474 52.56144755 -28 75 C-28.28810547 76.59521484 -28.28810547 76.59521484 -28.58203125 78.22265625 C-29.88369096 86.87200254 -29.59384407 93.48280062 -25 101 C-24.67 101.66 -24.34 102.32 -24 103 C-29.59894253 101.30335075 -34.43607106 97.70133181 -37.375 92.625 C-39.47239792 83.81592873 -38.50318359 76.38480029 -37 67.5 C-36.88774078 66.8314801 -36.77548157 66.16296021 -36.65982056 65.47418213 C-33.34345516 46.07264491 -25.93540905 31.20522746 -12.38671875 16.734375 C-7.81484787 11.49655238 -3.94533906 5.7162115 0 0 Z " fill="#F5CF39" transform="translate(106,214)"/>
<path d="M0 0 C4.0336213 1.49258042 7.64180789 3.41072908 11.3671875 5.5546875 C11.96500031 5.89750763 12.56281311 6.24032776 13.17874146 6.59353638 C15.07926201 7.68431491 16.97716509 8.77955675 18.875 9.875 C20.14175442 10.60316505 21.40868001 11.33103239 22.67578125 12.05859375 C25.02304636 13.40685023 27.369088 14.7571505 29.71435547 16.10888672 C33.13879273 18.07988471 36.56854019 20.0412604 40 22 C39 25 39 25 37.171875 26.2109375 C18.64253584 35.11697471 18.64253584 35.11697471 13.99243164 34.91113281 C10.89924468 33.49662801 10.48065759 31.34108646 9.23828125 28.2421875 C8.75939453 27.05882812 8.28050781 25.87546875 7.78710938 24.65625 C7.54500732 24.03492188 7.30290527 23.41359375 7.0534668 22.7734375 C6.32073772 20.89610593 5.56405589 19.02995462 4.80273438 17.1640625 C2.49594764 11.37988085 0.70900875 6.21942671 0 0 Z " fill="#EC484D" transform="translate(248,273)"/>
<path d="M0 0 C1.9140625 1.10546875 1.9140625 1.10546875 4.7890625 3.10546875 C4.7890625 3.43546875 4.7890625 3.76546875 4.7890625 4.10546875 C3.95375 4.12673828 3.95375 4.12673828 3.1015625 4.1484375 C2.3384375 4.19613281 1.5753125 4.24382812 0.7890625 4.29296875 C-0.3246875 4.34517578 -0.3246875 4.34517578 -1.4609375 4.3984375 C-8.87237906 6.30393597 -14.32562424 11.76501517 -19.5234375 17.10546875 C-20.12994141 17.70875 -20.73644531 18.31203125 -21.36132812 18.93359375 C-26.87838915 24.31502201 -26.87838915 24.31502201 -29.50390625 31.34375 C-29.46910156 32.02824219 -29.43429688 32.71273437 -29.3984375 33.41796875 C-29.3365625 34.63484375 -29.2746875 35.85171875 -29.2109375 37.10546875 C-30.70070209 36.39820677 -32.17756746 35.66372969 -33.6484375 34.91796875 C-34.47214844 34.51191406 -35.29585938 34.10585937 -36.14453125 33.6875 C-38.2109375 32.10546875 -38.2109375 32.10546875 -39.18359375 29.8671875 C-39.26058106 22.09146917 -33.9668359 17.16368721 -28.8984375 11.91796875 C-28.24681641 11.21994141 -27.59519531 10.52191406 -26.92382812 9.80273438 C-19.71277346 2.21632952 -10.97286544 -4.43955157 0 0 Z " fill="#F6CF39" transform="translate(121.2109375,168.89453125)"/>
<path d="M0 0 C3.875 0.875 3.875 0.875 5 2 C6.10526137 17.58237339 3.5701509 30.26037977 -6 43 C-6.46535156 43.62261719 -6.93070312 44.24523437 -7.41015625 44.88671875 C-12.7755455 51.02472406 -20.5115777 54.59946574 -27.50585938 58.56298828 C-32.92352004 61.68440084 -38.24379683 64.97456759 -43.57495117 68.2409668 C-44.7888855 68.97633667 -44.7888855 68.97633667 -46.02734375 69.7265625 C-47.10616821 70.38519287 -47.10616821 70.38519287 -48.20678711 71.05712891 C-50 72 -50 72 -52 72 C-50.3685636 65.83679583 -45.65215427 62.61570612 -40.41674805 59.42626953 C-36.51318033 57.24276318 -32.57486325 55.12961485 -28.625 53.03125 C-15.36202598 45.78735654 -7.19582428 37.09499843 -1.8359375 22.921875 C0.33629764 15.32920263 0.31335097 7.84537977 0 0 Z " fill="#5B707E" transform="translate(475,245)"/>
<path d="M0 0 C1.9661624 0.97441205 3.88099001 1.99432317 5.77734375 3.09765625 C5.77734375 3.42765625 5.77734375 3.75765625 5.77734375 4.09765625 C5.15988281 4.16082031 4.54242188 4.22398437 3.90625 4.2890625 C-6.42170167 5.78244973 -12.22281483 11.82259605 -19.09765625 19.16015625 C-19.56228271 19.65435059 -20.02690918 20.14854492 -20.50561523 20.65771484 C-24.58397546 25.1666723 -27.22265625 28.92804497 -27.22265625 35.09765625 C-32.97265625 33.34765625 -32.97265625 33.34765625 -35.22265625 31.09765625 C-35.90477017 26.83444422 -35.54479295 24.025704 -33.09765625 20.53515625 C-29.70501833 16.41204605 -25.95515597 12.59930746 -22.22265625 8.78515625 C-21.62952637 8.17406006 -21.03639648 7.56296387 -20.42529297 6.93334961 C-14.67205151 1.19204433 -8.39172403 -3.40683348 0 0 Z " fill="#F4CA38" transform="translate(229.22265625,232.90234375)"/>
<path d="M0 0 C-2.9433916 3.1975539 -5.88779138 5.27698333 -9.671875 7.3984375 C-10.79956299 8.03579834 -11.92725098 8.67315918 -13.08911133 9.32983398 C-13.68575592 9.66312714 -14.28240051 9.99642029 -14.89712524 10.33981323 C-17.41756785 11.74796499 -19.92973889 13.17058096 -22.44245911 14.592453 C-23.732572 15.32234487 -25.02309229 16.05151712 -26.31401062 16.77998352 C-32.51134696 20.27913917 -38.66752376 23.84722696 -44.8125 27.4375 C-45.7926709 28.00847412 -46.7728418 28.57944824 -47.78271484 29.16772461 C-52.13157913 31.70770702 -56.46339131 34.26873541 -60.75390625 36.90625 C-61.45990967 37.33881104 -62.16591309 37.77137207 -62.89331055 38.21704102 C-64.17157204 39.00428128 -65.44554451 39.79854947 -66.71411133 40.60131836 C-68.10746823 41.46087408 -69.54971355 42.24042861 -71 43 C-71.66 42.67 -72.32 42.34 -73 42 C-68.52315327 34.52522143 -62.78843472 31.02298213 -55.25 26.9375 C-53.51760758 25.96954682 -51.78523122 25.00156352 -50.05381775 24.03186035 C-48.25434567 23.02667357 -46.45089392 22.02891432 -44.64697266 21.03173828 C-38.69564932 17.7304036 -32.8227262 14.29221443 -26.9375 10.875 C-23.87721883 9.10375901 -20.81538564 7.33559506 -17.74731445 5.57788086 C-15.9533208 4.5475262 -14.16507287 3.50708371 -12.38354492 2.45532227 C-11.19208862 1.76394165 -11.19208862 1.76394165 -9.9765625 1.05859375 C-8.94716553 0.45229126 -8.94716553 0.45229126 -7.89697266 -0.16625977 C-5.04603136 -1.41927965 -2.88398102 -0.96132701 0 0 Z " fill="#5B6F7D" transform="translate(406,326)"/>
<path d="M0 0 C0.639375 0.433125 1.27875 0.86625 1.9375 1.3125 C-0.55634792 4.10813775 -3.31465081 5.74503404 -6.56640625 7.578125 C-8.24730347 8.53126587 -8.24730347 8.53126587 -9.9621582 9.50366211 C-10.85700424 10.00662308 -10.85700424 10.00662308 -11.76992798 10.51974487 C-13.64885981 11.57591185 -15.52444649 12.63779889 -17.39916992 13.70141602 C-19.34284358 14.80409705 -21.28669216 15.90645383 -23.23152161 17.00709534 C-29.79759148 20.72323187 -36.33980822 24.47982697 -42.875 28.25 C-43.94741943 28.8685083 -45.01983887 29.4870166 -46.12475586 30.12426758 C-54.15692442 34.76703479 -62.13852669 39.48750635 -70.0625 44.3125 C-70.0625 40.50334278 -68.60810021 38.96554417 -66.12304688 36.19921875 C-62.0317065 32.45302462 -57.14921637 29.97102839 -52.3125 27.3125 C-50.58017872 26.33769225 -48.8478701 25.36286117 -47.11631775 24.38668823 C-45.31623771 23.37392674 -43.51302128 22.36692068 -41.70947266 21.36035156 C-35.76843945 18.03550392 -29.88910105 14.60314466 -24 11.1875 C-20.9403832 9.41687553 -17.87945228 7.6489453 -14.81176758 5.89233398 C-13.01028875 4.85713556 -11.21551927 3.81015227 -9.4284668 2.75024414 C-8.62965088 2.28481201 -7.83083496 1.81937988 -7.0078125 1.33984375 C-5.96971436 0.72484009 -5.96971436 0.72484009 -4.91064453 0.09741211 C-3.0625 -0.6875 -3.0625 -0.6875 0 0 Z " fill="#5B6F7D" transform="translate(313.0625,377.6875)"/>
<path d="M0 0 C2.265625 1.52734375 2.265625 1.52734375 4 3 C3.23816406 3.06316406 2.47632813 3.12632812 1.69140625 3.19140625 C-8.29409097 4.37570367 -14.11672184 8.1039351 -20.3125 15.9375 C-27.60478957 26.36952535 -28.68420918 35.51318253 -28 48 C-26.87327463 53.94844719 -24.15421281 58.88799994 -21 64 C-26.45804083 61.9785034 -29.26277669 57.47444661 -31.75 52.5 C-35.32932404 42.47789269 -35.11013438 31.81779268 -31 22 C-26.6379568 13.07207981 -20.38005805 4.747437 -11.08203125 0.62109375 C-7.41896749 -0.47164009 -3.75171979 -0.78278364 0 0 Z " fill="#5B707E" transform="translate(59,320)"/>
<path d="M0 0 C0.99 -0.02513672 0.99 -0.02513672 2 -0.05078125 C4.59270848 0.42015994 6.01256918 1.63116901 8 3.3125 C7.3709375 3.39886719 6.741875 3.48523438 6.09375 3.57421875 C-3.27584967 5.11230062 -9.34257277 8.75235958 -15.3984375 16.06640625 C-18.13639547 19.90622536 -20.12474422 23.99794666 -22 28.3125 C-22.6496875 29.7665625 -22.6496875 29.7665625 -23.3125 31.25 C-25.32422676 40.2113283 -24.32262524 50.06189083 -19.98046875 58.23046875 C-19.05314998 59.63707587 -18.03204486 60.98082921 -17 62.3125 C-16.34 63.3025 -15.68 64.2925 -15 65.3125 C-19.76028012 63.95241997 -22.43687967 61.43180053 -25 57.3125 C-29.93073822 47.97931694 -30.80325694 37.13455612 -28.1171875 26.97265625 C-23.95079367 16.25315954 -18.17192069 7.87791317 -8 2.3125 C-7.33355469 1.93738281 -6.66710937 1.56226563 -5.98046875 1.17578125 C-3.84093312 0.24316316 -2.3238377 0.01361624 0 0 Z " fill="#5B6F7D" transform="translate(179,391.6875)"/>
<path d="M0 0 C0.66 0.33 1.32 0.66 2 1 C1.49738647 1.74999268 1.49738647 1.74999268 0.98461914 2.51513672 C-4.89590679 11.29680135 -10.76281416 20.08680559 -16.5390625 28.9375 C-16.91646072 29.51573517 -17.29385895 30.09397034 -17.68269348 30.68972778 C-19.53259198 33.52563848 -21.37973117 36.36329598 -23.22436523 39.20263672 C-26.70911636 44.55382072 -30.23202181 49.84381932 -34 55 C-35.98 54.34 -37.96 53.68 -40 53 C-37.38867188 49.08300781 -34.77734375 45.16601562 -32.16601562 41.24902344 C-30.87408603 39.31112904 -29.58242932 37.37305269 -28.29101562 35.43481445 C-26.90117958 33.35122412 -25.50916524 31.26908553 -24.11523438 29.18823242 C-21.03226675 24.58108912 -17.96018387 19.97446957 -15.015625 15.27734375 C-7.36893441 3.15811475 -7.36893441 3.15811475 0 0 Z " fill="#5C707D" transform="translate(358,318)"/>
<path d="M0 0 C1.32 0.66 2.64 1.32 4 2 C4 2.99 4 3.98 4 5 C0.04385828 7.23307245 -3.91530822 9.46072951 -7.875 11.6875 C-8.98359375 12.31333984 -10.0921875 12.93917969 -11.234375 13.58398438 C-33.48914655 26.08592957 -33.48914655 26.08592957 -45 25 C-48.625 23.5 -48.625 23.5 -51 22 C-47.89083696 20.44541848 -44.73109541 21.14180654 -41.3125 21.35546875 C-31.88618862 20.34391883 -23.60322641 14.68597468 -15.625 9.9375 C-14.55894531 9.31294922 -13.49289063 8.68839844 -12.39453125 8.04492188 C-6.02002466 4.28867495 -6.02002466 4.28867495 0 0 Z " fill="#5B6F7D" transform="translate(220,428)"/>
<path d="M0 0 C2.3125 0.8125 2.3125 0.8125 4 2 C4 2.66 4 3.32 4 4 C0.48255473 6.04856691 -3.03723674 8.09303955 -6.55908203 10.1340332 C-7.75241354 10.8263195 -8.94514119 11.51964792 -10.13720703 12.21411133 C-34.24910292 26.25741486 -34.24910292 26.25741486 -45 25 C-48.5 23.5 -48.5 23.5 -51 22 C-48.06352899 20.5317645 -45.32307726 21.13004493 -42.09375 21.35546875 C-32.78548465 20.28595846 -24.56159688 14.64436238 -16.6875 9.9375 C-15.62982422 9.31294922 -14.57214844 8.68839844 -13.48242188 8.04492188 C-7.84589148 4.72630962 -7.84589148 4.72630962 -2.30786133 1.24829102 C-1.54626709 0.83635498 -0.78467285 0.42441895 0 0 Z " fill="#5B6F7D" transform="translate(96,356)"/>
<path d="M0 0 C3.16115776 1.36983503 3.9927092 1.9890638 6 5 C6.64363088 12.46611817 5.52684515 18.66437298 0.9375 24.72265625 C-5.01595963 31.52800896 -5.01595963 31.52800896 -8.20703125 33.05859375 C-10.4557986 33.97801178 -10.4557986 33.97801178 -11.25 37.625 C-11.4975 38.73875 -11.745 39.8525 -12 41 C-13.65 40.01 -15.3 39.02 -17 38 C-16.73244185 34.36738362 -16.54885002 32.53462058 -13.890625 29.9453125 C-13.01921875 29.34460938 -12.1478125 28.74390625 -11.25 28.125 C-5.61648464 23.92605651 -2.22263584 19.66790753 0 13 C0.06937062 10.77181559 0.08457084 8.54165476 0.0625 6.3125 C0.05347656 5.13300781 0.04445312 3.95351563 0.03515625 2.73828125 C0.02355469 1.83464844 0.01195312 0.93101562 0 0 Z " fill="#5A6F7D" transform="translate(182,403)"/>
<path d="M0 0 C0.66 0.66 1.32 1.32 2 2 C1.443125 2.14695313 0.88625 2.29390625 0.3125 2.4453125 C-9.20471943 5.24260335 -15.86879116 10.48540034 -21 19 C-23.38485623 23.87218675 -24.44058031 28.62957094 -25 34 C-26.9375 33.25 -26.9375 33.25 -29 32 C-30.78085371 27.11300609 -29.0328313 22.52996291 -27.1484375 17.9140625 C-22.25617792 7.53292632 -12.61499401 -2.82749866 0 0 Z " fill="#5C707F" transform="translate(478,234)"/>
<path d="M0 0 C1.875 0.3125 1.875 0.3125 4 1 C7.01419812 5.52129718 6.66652515 9.70251363 6 15 C3.75700303 21.91924512 -0.29436061 27.50696853 -6 32 C-6.70511719 32.32742188 -7.41023438 32.65484375 -8.13671875 32.9921875 C-10.36228131 33.93906335 -10.36228131 33.93906335 -11.25 37.125 C-11.62125 38.548125 -11.62125 38.548125 -12 40 C-13.32 39.34 -14.64 38.68 -16 38 C-16.29296875 35.2421875 -16.29296875 35.2421875 -16 32 C-13.98828125 29.9453125 -13.98828125 29.9453125 -11.3125 28.125 C-4.8347195 23.32392931 -0.86061273 17.94989076 1 10 C1.19047978 6.25389773 1.18684691 3.56054073 0 0 Z " fill="#5B717F" transform="translate(57,331)"/>
<path d="M0 0 C-0.50789063 0.27972656 -1.01578125 0.55945313 -1.5390625 0.84765625 C-9.59777322 5.54102523 -15.5533025 11.7937823 -18 21 C-18.72156184 27.82646141 -19.03462779 33.22095754 -15 39 C-18.34170288 38.0717492 -19.93461942 37.07068171 -22.3125 34.5 C-25.44992695 27.99274411 -24.59726981 22.1071703 -22.375 15.375 C-20.16825617 9.85814042 -17.2953352 3.96540867 -12.03515625 0.828125 C-7.93682947 -0.83952429 -4.19748487 -1.39916162 0 0 Z " fill="#5C6F7D" transform="translate(234,388)"/>
<path d="M0 0 C1.69140625 1.515625 1.69140625 1.515625 3 3 C2.443125 3.08894531 1.88625 3.17789062 1.3125 3.26953125 C-6.75408792 5.16354429 -9.76237521 10.25119015 -14 17 C-14.51949219 17.76699219 -15.03898437 18.53398437 -15.57421875 19.32421875 C-17.90162872 22.82533691 -19.59831838 25.71539602 -20 30 C-22.475 29.01 -22.475 29.01 -25 28 C-24.58631976 21.95870748 -22.7417021 18.30103631 -19.3125 13.375 C-18.89033203 12.73304688 -18.46816406 12.09109375 -18.03320312 11.4296875 C-13.48560864 4.73518943 -8.61527026 -0.70328737 0 0 Z " fill="#5A6E7C" transform="translate(426,284)"/>
<path d="M0 0 C5.7725343 2.15233539 10.94354615 5.26722266 16.26586914 8.33984375 C18.05674475 9.37168402 19.85331925 10.39306064 21.65039062 11.4140625 C22.78798828 12.06890625 23.92558594 12.72375 25.09765625 13.3984375 C26.13414307 13.99317871 27.17062988 14.58791992 28.23852539 15.20068359 C30.92741901 16.95270781 33.03239244 18.46002535 35 21 C34.75 23.25 34.75 23.25 34 25 C30.42261803 22.96011316 26.84813349 20.91524578 23.27612305 18.8659668 C22.06367015 18.17127363 20.85046941 17.47788381 19.63647461 16.78588867 C1.47719523 6.43158569 1.47719523 6.43158569 0.0625 2.1875 C0.0315625 1.1046875 0.0315625 1.1046875 0 0 Z " fill="#F2A100" transform="translate(112,302)"/>
<path d="M0 0 C2.97 0.495 2.97 0.495 6 1 C1.24020317 10.02720088 -4.4059896 18.47614317 -10 27 C-11.32 26.67 -12.64 26.34 -14 26 C-14 21.54098019 -13.30553647 20.43350244 -10.9375 16.796875 C-10.30585938 15.8171875 -9.67421875 14.8375 -9.0234375 13.828125 C-8.35570312 12.81234375 -7.68796875 11.7965625 -7 10.75 C-5.99839844 9.203125 -5.99839844 9.203125 -4.9765625 7.625 C-3.32571175 5.07797313 -1.66665151 2.53670439 0 0 Z " fill="#5B6F7D" transform="translate(244,398)"/>
<path d="M0 0 C1.18529297 0.02707031 1.18529297 0.02707031 2.39453125 0.0546875 C2.98621094 0.07789063 3.57789063 0.10109375 4.1875 0.125 C1.03386394 2.6093392 -2.26280641 4.60876527 -5.75 6.59375 C-7.46316406 7.57408203 -7.46316406 7.57408203 -9.2109375 8.57421875 C-11.01429753 9.60169173 -12.8181848 10.62823509 -14.62207031 11.65478516 C-16.37427881 12.65311431 -18.12466167 13.65464556 -19.875 14.65625 C-21.43927734 15.54666992 -21.43927734 15.54666992 -23.03515625 16.45507812 C-25.42600199 17.89261196 -27.62365096 19.40069086 -29.8125 21.125 C-30.4725 20.795 -31.1325 20.465 -31.8125 20.125 C-12.5082012 -0.37337914 -12.5082012 -0.37337914 0 0 Z " fill="#EF8503" transform="translate(352.8125,55.875)"/>
<path d="M0 0 C0.66 0.33 1.32 0.66 2 1 C1.59910156 1.48726563 1.19820313 1.97453125 0.78515625 2.4765625 C-4.6963455 9.31290255 -9.35041636 16.58807869 -14 24 C-14.57105469 23.53851563 -15.14210937 23.07703125 -15.73046875 22.6015625 C-21.0547869 18.8442984 -27.62237268 17.67847099 -34 17 C-34 16.67 -34 16.34 -34 16 C-28.8259364 15.79709555 -24.77407572 15.75337613 -20 18 C-19.01 18 -18.02 18 -17 18 C-15.24732837 15.6739198 -15.24732837 15.6739198 -13.625 12.75 C-10.1993087 6.83716296 -6.09026451 3.12743313 0 0 Z " fill="#5C6F7C" transform="translate(268,370)"/>
<path d="M0 0 C2.475 0.99 2.475 0.99 5 2 C4.65066406 2.68707031 4.30132812 3.37414062 3.94140625 4.08203125 C3.48636719 4.98308594 3.03132813 5.88414062 2.5625 6.8125 C2.11003906 7.70582031 1.65757813 8.59914063 1.19140625 9.51953125 C-0.62711481 13.30563247 -1.15899352 16.21305385 -1.1875 20.375 C-1.20876953 21.77878906 -1.20876953 21.77878906 -1.23046875 23.2109375 C-0.98668108 26.16118154 -0.23112508 28.32364112 1 31 C-2.40636923 29.5904679 -4.23944644 28.26959946 -6 25 C-7.97666137 17.62147016 -6.59507072 10.66185918 -2.90625 4.03515625 C-1.99430796 2.65095851 -1.00562241 1.31771212 0 0 Z " fill="#5C707D" transform="translate(92,323)"/>
<path d="M0 0 C0.99 0 1.98 0 3 0 C3.65996595 6.54755695 1.63403109 10.36169093 -1.75 15.875 C-2.1934375 16.64585937 -2.636875 17.41671875 -3.09375 18.2109375 C-6.42659638 23.77875146 -6.42659638 23.77875146 -9.03613281 24.78564453 C-11 25 -11 25 -13 24 C-10.99936528 18.76200612 -8.34088051 14.04513789 -5.5625 9.1875 C-5.07201172 8.30384766 -4.58152344 7.42019531 -4.07617188 6.50976562 C-3.59857422 5.67509766 -3.12097656 4.84042969 -2.62890625 3.98046875 C-2.19650635 3.21629639 -1.76410645 2.45212402 -1.31860352 1.66479492 C-0.88346436 1.1154126 -0.4483252 0.56603027 0 0 Z " fill="#5C707F" transform="translate(423,295)"/>
<path d="M0 0 C1.65 0.33 3.3 0.66 5 1 C3.56691865 4.95906817 1.66858051 8.28718181 -0.625 11.8125 C-1.57246094 13.27623047 -1.57246094 13.27623047 -2.5390625 14.76953125 C-3.26222656 15.87361328 -3.26222656 15.87361328 -4 17 C-6.475 16.01 -6.475 16.01 -9 15 C-8.06652642 13.24784894 -7.1280468 11.49836437 -6.1875 9.75 C-5.66542969 8.77546875 -5.14335938 7.8009375 -4.60546875 6.796875 C-3.21034812 4.36644588 -1.73804039 2.19212301 0 0 Z " fill="#5B6F7C" transform="translate(113,336)"/>
<path d="M0 0 C-1.42089299 3.15282724 -3.15031851 5.53777964 -5.4375 8.125 C-6.03433594 8.80820313 -6.63117188 9.49140625 -7.24609375 10.1953125 C-9 12 -9 12 -12 14 C-10.47258304 8.52675588 -6.74589913 0 0 0 Z " fill="#BC0D06" transform="translate(411,157)"/>
<path d="M0 0 C-0.33 2.31 -0.66 4.62 -1 7 C-2.65 7.33 -4.3 7.66 -6 8 C-6.36458333 3.50347222 -6.36458333 3.50347222 -4.6875 1.1875 C-3 0 -3 0 0 0 Z " fill="#BA0700" transform="translate(241,283)"/>
<path d="M0 0 C-0.33 2.31 -0.66 4.62 -1 7 C-2.65 7.33 -4.3 7.66 -6 8 C-6.36458333 3.50347222 -6.36458333 3.50347222 -4.6875 1.1875 C-3 0 -3 0 0 0 Z " fill="#BA0700" transform="translate(439,151)"/>
<path d="M0 0 C2.475 0.99 2.475 0.99 5 2 C1.80009492 4.74277578 -1.00499382 6.6302836 -5 8 C-3.8141763 4.62496331 -2.72426311 2.35277269 0 0 Z " fill="#5D6E7B" transform="translate(123,341)"/>
</svg>
